<svg width="60" height="60" viewBox="0 0 60 60" fill="none" xmlns="http://www.w3.org/2000/svg">
<path d="M17.5244 32.6756L17.3186 32.4037L18.2453 31.1377L17.5244 32.6756Z" fill="#514C25"/>
<path d="M19.4502 31.494C19.4502 31.494 28.4417 20.7114 28.3843 18.994C28.3269 17.2765 22.9313 17.4324 22.9313 17.4324L19.4502 31.494Z" fill="#282828"/>
<path d="M49.9944 21.8057C50.5456 22.2971 51.7942 23.5955 51.9862 24.4361C52.1783 25.2768 50.2002 26.8296 43.3552 31.2549L43.1307 30.9531L41.7899 31.8199L41.9657 32.3176L39.2043 34.0151L38.8177 33.4164L37.9745 33.9902L38.3362 34.6624L36.9755 35.5417L36.5888 34.9431L35.7744 35.4694L36.161 36.0681L31.6472 39.059L30.9874 38.5065L31.0597 39.4394L28.5365 41.1881L28.176 40.6318L27.5474 41.0384L27.9066 41.5947L24.9731 43.3895L24.66 42.9043L24.0102 43.3246L24.2659 43.8323L21.4633 45.5572L21.1365 45.0521L20.4455 45.4986L20.6601 45.9888L18.0333 47.5117C18.0333 47.5117 17.7003 47.2011 17.4272 47.2747C17.154 47.3495 17.0779 47.9108 17.0779 47.9108C17.0779 47.9108 14.6021 49.3951 13.4684 49.3826C12.5816 49.3726 11.0412 49.2279 9.95858 48.7951C9.65799 48.6754 9.39232 48.5332 9.18528 48.3648C8.75622 48.0168 8.43942 47.5591 8.22114 47.16C7.93428 46.6374 7.92929 46.005 8.18996 45.4687C8.27353 45.2953 8.37705 45.0895 8.50303 44.845C8.64397 44.5707 9.09797 44.0069 9.70913 43.3034C11.5351 41.2006 14.758 37.8554 15.1846 37.2954C15.7533 36.5483 18.1518 31.1227 18.1518 31.1227C18.1518 31.1227 22.4611 24.0408 24.574 22.2435C26.6868 20.4462 35.4264 17.8656 36.272 16.2803C37.1189 14.6951 36.6337 12.4974 38.118 11.5382C39.6022 10.5791 41.0116 11.3112 41.0116 11.3112C41.0116 11.3112 42.0955 12.3465 43.2953 13.5176C43.6071 13.822 43.9252 14.1338 44.2358 14.4406C44.686 14.8846 45.1163 15.3162 45.4755 15.6841C47.0384 17.2881 47.7331 18.7225 47.7331 18.7225L48.2719 18.7412L48.6723 19.3598C48.6723 19.3598 48.9429 19.4184 49.0502 19.5843C49.1537 19.7452 49.4281 21.2457 49.9544 21.7732C49.9669 21.787 49.9794 21.7982 49.9919 21.8107L49.9944 21.8057Z" fill="#282828"/>
<path d="M49.9569 21.7679L35.8978 31.2944L35.0559 30.4475L33.4145 29.7591C33.4145 29.7591 31.9378 28.8835 32.0887 28.1825C32.2396 27.4816 39.3852 19.5926 39.3852 19.5926C39.3852 19.5926 40.9829 18.7532 41.1925 17.7741C41.402 16.7963 40.8644 16.235 42.0755 14.8668C42.532 14.3517 42.9523 13.8877 43.2978 13.5098C43.6096 13.8141 43.9277 14.1259 44.2383 14.4327C44.6885 14.8768 45.1188 15.3083 45.478 15.6763C47.0409 17.2802 47.7356 18.7146 47.7356 18.7146L48.2744 18.7333L48.6748 19.3519C48.6748 19.3519 48.9454 19.4105 49.0527 19.5764C49.1562 19.7373 49.4306 21.2378 49.9569 21.7654V21.7679Z" fill="#282828"/>
<path d="M44.2383 14.4355L36.4554 24.9012L34.3862 26.8157L28.9856 31.8148L25.2413 35.2809L23.7745 36.6392C22.6208 37.7056 21.1503 38.3654 19.5875 38.5188L18.1619 38.6572C18.1619 38.6572 10.5773 43.9543 9.93992 43.5777C9.84138 43.519 9.76655 43.4218 9.71167 43.2983C11.5377 41.1966 14.7618 37.8503 15.1871 37.2902C15.7571 36.5419 18.1556 31.1175 18.1556 31.1175C18.1556 31.1175 18.5335 30.4977 19.1185 29.5772C20.5142 27.3882 23.0898 23.5043 24.5778 22.2396C25.2014 21.7082 26.4012 21.1095 27.8069 20.4896C31.1608 19.0054 35.6796 17.394 36.277 16.2764C37.1239 14.6911 36.6388 12.4935 38.123 11.5343C39.6072 10.5739 41.0166 11.3061 41.0166 11.3061C41.0166 11.3061 42.7366 12.9487 44.2396 14.4355H44.2383Z" fill="#43474B"/>
<path d="M19.1172 29.5773C20.1761 27.78 23.0984 23.0479 24.7897 21.848C27.4352 19.9921 34.8289 17.7807 36.0662 16.2853L36.1198 16.2042C37.0752 14.6065 36.3269 11.5569 39.1345 11.053C39.773 10.9308 40.4441 11.0218 41.0166 11.3062C40.1734 10.9582 39.1469 10.9931 38.3 11.522C37.4631 11.9747 37.2049 12.9738 37.0578 13.898C36.5426 16.9663 36.822 16.9039 30.1479 19.7177C24.2946 22.1474 24.5415 21.7433 19.1197 29.5761L19.1172 29.5773Z" fill="#282828"/>
<path d="M48.479 18.9148L48.6735 19.355L49.1375 22.4033L37.8486 30.6515C37.8486 30.6515 37.7363 28.0347 39.5261 25.65C41.3172 23.264 43.6072 21.1087 45.0128 20.4788C46.4185 19.849 47.7343 18.7189 47.7343 18.7189L47.9776 18.6641C48.1834 18.6179 48.3929 18.7239 48.4777 18.916L48.479 18.9148Z" fill="#282828"/>
<path d="M35.4662 30.628L29.3085 36.9766C29.3085 36.9766 27.5586 35.7642 25.2412 35.2803C23.6771 34.9523 21.8549 34.9548 20.1411 35.8865C15.8892 38.1964 15.187 37.2909 15.187 37.2909C15.757 36.5425 18.1555 31.1182 18.1555 31.1182C18.1555 31.1182 18.5334 30.4983 19.1184 29.5778C20.0002 29.6065 21.0416 29.5417 21.9721 29.2224C24.1124 28.489 24.6749 26.2813 25.6029 25.6801C25.9521 25.4544 27.2281 25.3808 28.6861 25.3771C31.107 25.3721 34.0294 25.5567 34.0294 25.5567L34.3861 26.8164L35.4662 30.6293V30.628Z" fill="#43474B"/>
<path d="M25.1938 35.035C23.6297 34.7069 21.8075 34.7094 20.0938 35.6411C16.8209 37.4197 15.6523 37.2925 15.2868 37.1391C15.2482 37.2002 15.2145 37.2513 15.1858 37.29C15.1858 37.29 15.888 38.1968 20.1399 35.8856C21.8536 34.9539 23.6759 34.9514 25.2399 35.2794C27.5574 35.7634 29.3073 36.9757 29.3073 36.9757L29.6241 36.6489C28.6637 36.1899 26.8177 35.3742 25.1938 35.035Z" fill="#282828"/>
<path d="M35.4026 30.4053L34.2651 31.8658L35.4662 30.6273L35.4026 30.4053Z" fill="#F786E2"/>
<path d="M43.3538 31.2537L43.1306 30.9519L41.7898 31.8187L41.9669 32.3151L39.2055 34.0139L38.8188 33.4152L37.9757 33.989L38.3386 34.6612L36.9779 35.5418L36.5912 34.9444L35.7767 35.4707L36.1634 36.0682L31.6496 39.0578L30.9898 38.5041L31.0621 39.4382L28.5389 41.1857L28.1784 40.6294L27.5486 41.0347L27.909 41.5923L24.9755 43.3871L24.9056 43.2786L24.6624 42.9019L24.0113 43.3222L24.267 43.8298L21.4644 45.5548L21.1364 45.0484L20.4467 45.4949L20.6612 45.9851L18.0357 47.5068C18.0357 47.5068 17.7027 47.195 17.4296 47.271C17.1552 47.3459 17.0791 47.9059 17.0791 47.9059C17.0791 47.9059 14.6033 49.3889 13.4695 49.3764C12.5827 49.3664 11.0448 49.2218 9.95972 48.789C10.1206 48.6979 10.294 48.6031 10.4786 48.4983C14.7193 46.1298 25.3384 40.1367 26.9337 38.6388C27.6483 37.969 28.5588 36.9624 29.6577 35.7763C31.6358 33.6435 34.2301 30.9282 37.4144 28.5297C42.3698 24.8004 43.1144 23.3249 44.2993 22.266C45.4867 21.2071 48.6709 19.3511 48.6709 19.3511C48.6709 19.3511 49.0289 19.3249 49.1349 19.4896C49.2422 19.653 49.4405 21.3106 49.993 21.8008C50.3472 22.1176 50.9908 22.7674 51.456 23.4147C51.713 23.7739 51.9175 24.1306 51.9861 24.4312C52.1782 25.2719 50.2 26.8235 43.3538 31.25V31.2537Z" fill="#43474B"/>
<g style="mix-blend-mode:multiply" opacity="0.46">
<path d="M43.354 31.2535L43.1307 30.9516L41.7899 31.8185L41.967 32.3149L39.2056 34.0136L38.8189 33.415L37.9758 33.9887L38.3387 34.661L36.978 35.5415L36.5913 34.9441L35.7769 35.4704L36.1635 36.0679L31.6497 39.0576L30.9899 38.5038L31.0622 39.438L28.539 41.1854L28.1786 40.6291L27.5487 41.0345L27.9092 41.592L24.9756 43.3868L24.9058 43.2783C31.8792 37.1667 29.6603 35.7773 29.6603 35.7773C31.6385 33.6445 34.2328 30.9292 37.417 28.5307C42.3724 24.8014 43.117 23.3259 44.3019 22.267C45.4893 21.208 48.6735 19.3521 48.6735 19.3521C48.6735 19.3521 49.0315 19.3259 49.1375 19.4906C49.2186 19.614 49.3508 20.5782 49.6439 21.2567C49.6851 21.3515 49.73 21.4413 49.7774 21.5223C49.8422 21.6346 49.9158 21.7306 49.9956 21.8017C50.0206 21.8242 50.0455 21.8479 50.073 21.8741C50.1366 21.9314 50.2064 21.9975 50.2813 22.0699C50.3311 22.1198 50.3848 22.1722 50.4409 22.2283C50.4995 22.2882 50.5606 22.3518 50.623 22.4191C50.9036 22.7172 51.2067 23.0665 51.4574 23.4157C51.7144 23.7749 51.9189 24.1316 51.9875 24.4322C52.1796 25.2729 50.2014 26.8244 43.3552 31.251L43.354 31.2535Z" fill="#282828"/>
</g>
<g style="mix-blend-mode:multiply" opacity="0.46">
<path d="M49.776 21.5264L34.7927 33.2519L49.6426 21.2607C49.6838 21.3555 49.7287 21.4453 49.776 21.5264Z" fill="#6B485F"/>
</g>
<g style="mix-blend-mode:multiply" opacity="0.46">
<path d="M50.2812 22.0737L32.075 35.8385L50.0717 21.8779C50.1353 21.9353 50.2051 22.0014 50.2799 22.0737H50.2812Z" fill="#6B485F"/>
</g>
<g style="mix-blend-mode:multiply" opacity="0.46">
<path d="M50.6231 22.4213L40.0488 30.7056L50.441 22.2305C50.4996 22.2903 50.5607 22.3539 50.6231 22.4213Z" fill="#6B485F"/>
</g>
<path d="M9.95972 48.7913C26.4036 39.261 26.2277 39.2598 27.9826 37.3914C29.5866 35.6976 32.7808 31.977 36.7758 28.8726C40.1833 26.2521 40.7072 25.939 43.6432 22.8296C44.0897 22.3656 44.2855 22.186 44.7894 21.8044C45.8571 21.0136 47.4947 20.0258 48.6734 19.3535C41.4954 23.7264 45.7473 22.2372 36.9242 29.0622C31.2816 33.4837 28.3992 37.9689 25.8623 39.6053C22.0332 42.1621 13.9834 46.6273 9.95972 48.7913Z" fill="#575961"/>
<path d="M51.9861 24.4346C52.1782 25.2753 50.2001 26.8281 43.3551 31.2534L43.1306 30.9516L41.7898 31.8184L41.9657 32.3161L39.2042 34.0136L38.8176 33.4149L37.9744 33.9887L38.3361 34.6609L36.9754 35.5402L36.5887 34.9416L35.7743 35.4679L36.1609 36.0666L31.6471 39.0575L30.9873 38.505L31.0596 39.4379L28.5364 41.1866L28.176 40.6303L27.5473 41.0369L27.9066 41.5932L24.973 43.388L24.6599 42.9028L24.0101 43.3231L24.2658 43.8308L21.4632 45.5557L21.1364 45.0506L20.4455 45.4971L20.66 45.9873L18.0333 47.5102C18.0333 47.5102 17.7002 47.1996 17.4271 47.2732C17.1539 47.348 17.0779 47.9093 17.0779 47.9093C17.0779 47.9093 14.602 49.3936 13.4683 49.3811C12.5815 49.3711 11.0411 49.2264 9.9585 48.7936C10.1194 48.7038 10.2815 48.604 10.4674 48.4993L11.3367 48.7275C11.3367 48.7275 15.3529 47.8856 21.8224 44.054C28.292 40.2225 48.3691 26.9154 49.4916 25.9376C50.4944 25.062 51.3114 24.2787 51.4573 23.4219C51.7142 23.7811 51.9175 24.139 51.9861 24.4384V24.4346Z" fill="#575961"/>
<path d="M51.9862 24.4346C52.0111 24.5493 51.9937 24.6691 51.9525 24.7776C51.4149 26.162 45.2335 29.9936 43.3639 31.1985C43.3314 31.1548 43.1269 30.8792 43.1406 30.8966C41.9096 31.6899 43.1331 30.9016 41.7374 31.8009C41.7462 31.8258 41.9183 32.3172 41.9121 32.2973L39.2205 33.9462C39.2117 33.9324 38.8238 33.33 38.8326 33.345C38.8051 33.3637 37.8485 34.0135 37.9059 33.9736C37.9158 33.9923 38.2825 34.6758 38.2663 34.6446L36.9929 35.4653C36.9841 35.4516 36.5975 34.8517 36.6062 34.8654C36.5925 34.8741 35.6383 35.489 35.6932 35.4541C35.7045 35.4716 36.0886 36.0665 36.0786 36.0528L31.6534 38.9751C31.6334 38.9589 30.8576 38.3091 30.9062 38.3502C30.915 38.4637 30.9923 39.4441 30.9898 39.4079L28.5539 41.1017C28.5427 41.0842 28.186 40.5342 28.1947 40.5479C28.1111 40.6015 27.4501 41.0306 27.4638 41.0219C27.4738 41.0368 27.8417 41.6043 27.8243 41.5781L24.9905 43.3181C24.9269 43.2195 24.6637 42.8154 24.6762 42.8329C24.5951 42.8853 23.9303 43.3168 23.944 43.3081C23.9603 43.3405 24.2085 43.8307 24.1997 43.8157L21.477 45.497C21.4682 45.4833 21.1402 44.9782 21.1489 44.9919C21.1277 45.0056 20.3507 45.5095 20.3918 45.4833C20.4018 45.507 20.6151 45.9922 20.6064 45.9722L18.0358 47.4677C17.5493 47.0549 17.1664 47.1559 17.0467 47.888C16.1786 48.4032 14.6507 49.2201 13.6417 49.3536C13.0742 49.4097 11.1783 49.2675 9.95728 48.7948C10.8915 49.1665 12.1699 49.3486 13.174 49.3897C14.652 49.4633 16.7935 48.0839 17.1091 47.9329C17.1203 47.8768 17.1328 47.7558 17.2039 47.58C17.4595 46.9775 18.0009 47.5488 18.0283 47.5588C18.6295 47.212 20.1125 46.3552 20.7136 46.0084C20.7037 45.986 20.4916 45.4995 20.4991 45.517L21.1227 45.1154C21.1315 45.1291 21.457 45.6355 21.4483 45.6218C22.3301 45.0817 23.2319 44.5292 24.3319 43.8544C24.3157 43.822 24.0688 43.3305 24.0775 43.3468L24.645 42.9813C24.6562 42.9988 24.978 43.4977 24.9568 43.4665C26.5895 42.4712 26.2739 42.6633 27.9889 41.6181C27.9802 41.6031 27.6097 41.0306 27.6297 41.0605L28.1573 40.72C28.1673 40.7362 28.5277 41.2938 28.5177 41.2801C29.4731 40.6203 30.1192 40.1737 31.1295 39.4778C31.1283 39.4566 31.0659 38.6346 31.0684 38.6695C31.0821 38.682 31.6571 39.1622 31.6434 39.151C33.0603 38.2093 34.5233 37.2364 36.2445 36.0915C36.2345 36.0765 35.8441 35.4741 35.8566 35.494L36.5725 35.03C36.5813 35.0438 36.9679 35.6412 36.9592 35.6262C37.9495 34.9839 37.2872 35.4142 38.4073 34.687C38.3973 34.6683 38.0206 33.9724 38.0431 34.0123L38.8026 33.4934C38.8114 33.5071 39.1968 34.1021 39.188 34.0884C40.9953 32.9733 40.2245 33.4485 42.0193 32.3422C42.0081 32.3098 41.8372 31.8296 41.8422 31.8433L43.1194 31.0151C43.1518 31.0588 43.3564 31.3332 43.3439 31.3157C45.135 30.1495 51.4299 26.1782 51.955 24.7863C51.9949 24.6765 52.0111 24.5568 51.9849 24.4421L51.9862 24.4346Z" fill="#33322D"/>
<g style="mix-blend-mode:multiply" opacity="0.53">
<path d="M17.5582 35.5263C17.5582 35.777 17.3548 35.9803 17.1041 35.9803C16.8535 35.9803 16.6501 35.777 16.6501 35.5263C16.6501 35.2756 16.8535 35.0723 17.1041 35.0723C17.3548 35.0723 17.5582 35.2756 17.5582 35.5263Z" fill="#04060C"/>
</g>
<path d="M16.1462 35.4285C16.1462 35.4285 16.2734 34.3209 16.7848 34.1376C17.2962 33.9542 16.8746 34.6352 16.9619 34.7699C17.048 34.9034 17.3461 35.2514 17.3598 35.5208C17.3735 35.7902 17.058 35.9798 16.7985 36.0309C16.5391 36.082 16.1262 35.895 16.1462 35.4297V35.4285Z" fill="#575961"/>
<g style="mix-blend-mode:multiply" opacity="0.53">
<path d="M19.1172 32.9882C19.1172 33.2389 18.9139 33.4422 18.6632 33.4422C18.4125 33.4422 18.2092 33.2389 18.2092 32.9882C18.2092 32.7375 18.4125 32.5342 18.6632 32.5342C18.9139 32.5342 19.1172 32.7375 19.1172 32.9882Z" fill="#04060C"/>
</g>
<path d="M16.6078 34.2471C16.6078 34.2471 16.9183 34.2272 17.3998 34.09C17.8825 33.954 18.6857 33.4788 18.7406 33.2231C18.7955 32.9687 18.8454 32.6506 18.3789 32.5509C17.9124 32.4511 17.3948 32.8066 17.3948 32.8066C17.3948 32.8066 16.4419 33.9004 16.6078 34.2459V34.2471Z" fill="#575961"/>
<g style="mix-blend-mode:multiply" opacity="0.53">
<path d="M20.6514 30.6321C20.7088 30.9526 20.5229 31.2544 20.2361 31.3056C19.9492 31.3567 19.671 31.1372 19.6137 30.8167C19.5563 30.4961 19.7421 30.1943 20.029 30.1431C20.3159 30.092 20.594 30.3115 20.6514 30.6321Z" fill="#04060C"/>
</g>
<path d="M17.3187 32.404C17.3187 32.404 20.0353 31.5871 20.2947 31.2191C20.5541 30.8524 20.0902 29.9531 19.7247 30.0878C19.358 30.2226 18.2255 30.911 18.2255 30.911C18.2255 30.911 16.9471 32.2344 17.3187 32.4028V32.404Z" fill="#575961"/>
<g style="mix-blend-mode:multiply" opacity="0.53">
<path d="M25.4234 23.7815C25.4807 24.102 25.2949 24.4039 25.008 24.455C24.7212 24.5061 24.443 24.2866 24.3856 23.9661C24.3283 23.6455 24.5141 23.3437 24.801 23.2926C25.0866 23.2414 25.366 23.4609 25.4234 23.7815Z" fill="#04060C"/>
</g>
<path d="M21.4982 23.2161C21.4982 23.2161 21.4596 23.241 21.2201 23.3957C20.9806 23.5504 21.043 24.0318 21.0891 24.1029C21.1353 24.174 21.2263 24.3149 21.2263 24.3149C21.2263 24.3149 24.4954 24.4945 24.9058 24.3274C25.3485 24.1465 25.3161 24.0605 25.2675 23.8721C25.25 23.8048 25.1964 23.7449 25.134 23.695C25.0155 23.6002 24.8696 23.5491 24.7199 23.5341L21.4982 23.2148V23.2161Z" fill="#575961"/>
<g style="mix-blend-mode:multiply" opacity="0.53">
<path d="M24.5678 25.7033C24.6215 26.0064 24.4331 26.292 24.1463 26.3432C23.8594 26.3943 23.5837 26.1898 23.5301 25.8879C23.4765 25.5848 23.6648 25.2992 23.9517 25.2481C24.2386 25.1969 24.5142 25.4015 24.5678 25.7033Z" fill="#04060C"/>
</g>
<path d="M20.4504 27.4494C20.4504 27.4494 20.2297 27.3645 20.2122 26.908C20.1948 26.4516 20.3619 26.1684 20.3993 25.9975C20.4355 25.8279 21.0154 25.4824 21.6366 25.4026C22.2577 25.3228 24.196 25.5523 24.196 25.5523C24.196 25.5523 24.7647 25.6932 24.5252 26.0811C24.2845 26.469 23.7956 26.6386 23.0173 26.7472C22.239 26.8557 21.5168 26.5626 21.0466 26.8083C20.5764 27.054 20.4517 27.4506 20.4517 27.4506L20.4504 27.4494Z" fill="#575961"/>
<g style="mix-blend-mode:multiply" opacity="0.53">
<path d="M22.1929 27.9094C22.2503 28.23 22.0644 28.5318 21.7776 28.5829C21.4907 28.6341 21.2125 28.4145 21.1552 28.094C21.0978 27.7735 21.2836 27.4716 21.5705 27.4205C21.8574 27.3693 22.1355 27.5889 22.1929 27.9094Z" fill="#04060C"/>
</g>
<path d="M20.1163 26.7357C20.1163 26.7357 19.6424 27.2471 19.4665 27.6974C19.2894 28.1476 19.5164 28.9958 19.5164 28.9958C19.5164 28.9958 20.4281 29.0494 21.1927 28.6727C21.9573 28.2948 22.208 27.5103 21.7864 27.4205C21.3661 27.3307 20.4518 27.4504 20.4518 27.4504C20.4518 27.4504 20.6826 26.4376 20.1176 26.737L20.1163 26.7357Z" fill="#575961"/>
<path d="M26.0681 27.4492C26.0681 27.4492 26.5296 31.8421 24.5839 33.3575C22.6381 34.8729 19.4701 34.1782 18.8103 34.8367C18.1505 35.4965 19.399 32.5081 20.993 31.9057C22.587 31.3032 26.0669 28.2113 26.0669 27.4492H26.0681Z" fill="#999BA4"/>
</svg>
