<svg xmlns="http://www.w3.org/2000/svg" width="60" height="60"><g fill="none" fill-rule="evenodd"><path d="M0 0h60v60H0z"/><path fill="#EAEAEB" d="M21.851 14.02l5.193 2.888-.779.778-5.022-3.17-.587.853 4.61 3.317-.866.866-4.516-3.519-.667.794 4.199 3.709-1.029 1.028-3.854-3.621-.732.732 3.62 3.855-1.028 1.028-3.709-4.197-.793.664 3.52 4.515-.867.868-3.316-4.61-.855.586 3.17 5.024-.778.778-2.887-5.192-.917.484L28.022 53.81l1.857.19.89-1.642-9.663-17.369 1.138-1.138 10.403 16.475 1.867-.026.694-1.734L23.625 32.47l1.105-1.104 11.872 15.228 1.856-.206.523-1.792-12.891-14.59 1.214-1.215 13.198 14.05 1.83-.366.367-1.831-14.05-13.198 1.215-1.213 14.591 12.891 1.791-.524.207-1.856-15.23-11.871 1.105-1.105L48.424 35.35l1.734-.694.025-1.868-16.474-10.4 1.14-1.14 17.368 9.661 1.641-.887-.19-1.857-31.332-15.062-.485.916zm5.472 4.335l.83-.83 5.585 3.106-1.088 1.088-5.327-3.364zm-1.954 1.953l.9-.9 5.055 3.638-1.07 1.07-4.885-3.808zM23.278 22.4l1.054-1.055 4.615 4.077-1.188 1.188-4.481-4.21zm-2.074 2.076l1.054-1.057 4.209 4.482-1.187 1.189-4.076-4.614zm-1.937 1.936l.9-.9 3.807 4.882-1.071 1.072-3.636-5.054zm-1.884 1.883l.83-.83 3.364 5.328-1.088 1.088-3.106-5.586z"/><path fill="silver" d="M14.096 22.388l-.218-.394-.884.467c.363.004.731-.017 1.102-.073m2.694-1.208a13.5 13.5 0 00.824-.768l-.93-1.052-.793.666.899 1.154zm-1.895 1.031c.351-.106.699-.25 1.036-.435l-.704-.977-.854.586.522.826zm19.068-1.805l-1.312 1.312-5.327-3.363.978-.978 5.661 3.029zm-3.71 3.71l-4.884-3.807 1.249-1.207 5.142 3.464-1.507 1.55zM27.76 26.61l-4.483-4.21 1.253-1.238 4.758 3.906-1.528 1.542zm-5.908-12.59l5.332 2.657-.918 1.01-5.024-3.172-.585.854 5.001 2.894-1.259 1.29-4.515-3.52-.666.794 4.502 3.405-1.332 1.332-3.855-3.622-.732.734.67.713c.628-.948-.032-.75 1.232.314C21.25 21.003 37.97 37.19 42.51 41.59l.189-.945L28.65 27.446l1.6-1.6 15.532 12.89.464-.136.207-1.855-15.23-11.873 1.483-1.482 16.666 11.58.786-.315.026-1.866-16.475-10.402 1.346-1.347 17.68 9.59 1.123-.609-.19-1.857-31.332-15.06-.484.916z"/><path fill="#F5F5F5" d="M10.07 10.07a7.066 7.066 0 000 9.99c.264.265 1.649 1.596 1.942 1.81l9.858-9.858c-.214-.293-1.545-1.678-1.81-1.943a7.066 7.066 0 00-9.99 0"/><path fill="#DBDBDB" d="M13.2 8.257c-.777.213 1.588.525 3.172 2.26 2.836 3.109.635 3.825 1.901 5.092l3.597-3.597c-.214-.294-1.544-1.678-1.81-1.943a7.051 7.051 0 00-6.86-1.812"/><path fill="#A20000" d="M13.317 23.16l9.843-9.844-1.297-1.297-9.844 9.843z"/><path fill="#750000" d="M19.57 16.906l3.59-3.59-1.298-1.297-3.589 3.59z"/></g></svg>