<svg width="60" height="60" xmlns="http://www.w3.org/2000/svg"><g fill="none" fill-rule="evenodd"><path d="M0 0h60v60H0z"/><circle cx="22" cy="22" r="22" transform="translate(8 8)" fill="silver" fill-rule="nonzero"/><path d="M30 8c9.132 0 16.964 5.564 20.292 13.486.01.298.016.598.016.899 0 14.02-11.365 25.385-25.385 25.385-3.767 0-7.343-.82-10.558-2.293A21.93 21.93 0 018 30C8 17.85 17.85 8 30 8z" fill="#F5F5F5" fill-rule="nonzero"/><path d="M41.55 32.491c4.481 7.65 2.164 14.494-4.36 18.307a21.94 21.94 0 01-6.64 1.195c10.313-2.313 15.128-9.945 9.918-18.838-5.139-7.996-13.566-10.691-22.373-6.926-3.457 1.479-6.686 4.15-9.684 8.027-.11-.56-.198-1.128-.264-1.703 2.918-3.545 6.067-6.044 9.45-7.49 9.382-4.012 18.468-1.106 23.952 7.428z" fill="#383A39" fill-rule="nonzero"/><path d="M31.014 51.203l.072.023c.482.21 1.03.411 1.645.605-.66.083-1.33.135-2.009.157l.027.015a.423.423 0 01.265-.8zm3.23-1.364l.075.012v-.001c1.29.339 2.463.535 3.515.59a.421.421 0 01.182.052c-.593.234-1.198.441-1.814.622a21.278 21.278 0 01-2.097-.445.423.423 0 01.139-.83zm2.792-2.008l.074.012c1.291.338 2.463.535 3.515.59a.423.423 0 01.337.646c-.117.067-.235.134-.354.2l-.027-.001c-1.113-.059-2.341-.264-3.685-.616a.423.423 0 01.14-.831zm2.708-3.277l.076.012c1.446.351 2.694.526 3.741.526a.423.423 0 110 .846c-1.12 0-2.434-.184-3.941-.55a.423.423 0 01.124-.834zm5.366-3.547a.423.423 0 01.076.84l-.076.006h-4.114a.423.423 0 01-.076-.84l.076-.006h4.114zm0-4.108a.423.423 0 010 .846c-1.743 0-3.23.184-4.46.55a.423.423 0 11-.242-.811c1.316-.39 2.883-.585 4.702-.585zm-.585-4.489a.423.423 0 01-.305.515c-1.586.406-3.268 1.168-5.045 2.289a.423.423 0 01-.451-.716c1.847-1.165 3.609-1.963 5.286-2.393a.423.423 0 01.515.305zM8.237 30.972c.234 0 .423.19.423.423 0 .983.155 2.027.465 3.134a.423.423 0 01-.513.524l-.032-.012c-.3-1.278-.488-2.6-.554-3.954l-.002-.057a.421.421 0 01.213-.058zm1.692-2.185c.234 0 .423.19.423.423 0 .983.155 2.027.465 3.133a.423.423 0 11-.814.229c-.33-1.178-.497-2.299-.497-3.362 0-.234.19-.423.423-.423zm31.66-.449a.423.423 0 01-.171.574c-1.44.778-2.888 1.925-4.341 3.442a.423.423 0 01-.612-.585c1.511-1.578 3.027-2.779 4.55-3.601a.423.423 0 01.574.17zm-29.55-1.895c.234 0 .423.19.423.423 0 1.003.157 2.21.47 3.617a.423.423 0 11-.825.185c-.327-1.465-.49-2.731-.49-3.802h-.001c0-.234.19-.423.423-.423zm3.126-2.191c.123.088.19.234.176.385-.128 1.341-.034 2.84.283 4.494a.423.423 0 11-.83.159c-.332-1.73-.43-3.307-.296-4.733a.423.423 0 01.667-.305zm23.088.494a.423.423 0 01-.102.581c-1.372.935-2.65 2.172-3.836 3.713a.423.423 0 01-.67-.516c1.238-1.61 2.58-2.909 4.03-3.896a.423.423 0 01.578.118zm-19.777-2.398c.23.043.381.264.338.494-.246 1.314-.23 2.944.05 4.886a.423.423 0 11-.837.122c-.293-2.029-.31-3.749-.045-5.164a.423.423 0 01.494-.338zm14.656.026a.423.423 0 01.061.589c-1.063 1.281-1.947 2.753-2.652 4.417a.423.423 0 01-.779-.33c.736-1.738 1.663-3.281 2.78-4.627a.423.423 0 01.59-.049zm-9.988-1.096c.221.075.34.315.266.536-.427 1.267-.642 2.914-.642 4.936a.423.423 0 01-.846 0c0-2.107.227-3.842.686-5.206a.423.423 0 01.536-.266zm5.092.189c.195.128.25.39.121.586-.747 1.137-1.3 2.671-1.651 4.604a.423.423 0 11-.833-.152c.371-2.036.961-3.675 1.777-4.917a.423.423 0 01.586-.121zM51.055 23.6c.09.3.175.602.254.907l-.136.166-.577.671-.828.927a.423.423 0 11-.628-.567l.805-.902.365-.419.275-.327.133-.165.092-.124a.423.423 0 01.193-.152zm-2.034-4.662c.149.255.293.514.431.776l.102-.167c-.569.951-1.12 1.703-1.655 2.257a.423.423 0 11-.608-.589c.485-.501.999-1.203 1.537-2.102a.423.423 0 01.12-.133zm-3.223-4.249c.217.224.428.451.635.683a9.87 9.87 0 01-1.169 1.978.423.423 0 11-.677-.507 9.023 9.023 0 001.101-1.877zm-3.372-2.847c.263.18.522.367.777.558l-.168 1.191a.423.423 0 01-.838-.12zM38.977 9.91c.28.125.556.256.83.392l-.04.725a.424.424 0 11-.846-.046zm-3.42-1.201c.282.073.562.152.839.236l-.013.379a.424.424 0 01-.847-.024z" fill="#EC4349" fill-rule="nonzero"/></g></svg>