<svg width="60" height="60" xmlns="http://www.w3.org/2000/svg"><g fill="none" fill-rule="evenodd"><path d="M0 0h60v60H0z"/><path d="M26.33 24.561l-.085.296a19.274 19.274 0 00-.372 1.648.423.423 0 10.833.152c.135-.741.3-1.424.493-2.048 1.173.098 2.316.32 3.422.662a19.609 19.609 0 00-.859 1.78.423.423 0 10.78.33c.27-.64.568-1.252.892-1.835a16.34 16.34 0 013.3 1.674c-.372.408-.735.843-1.09 1.304a.423.423 0 00.67.516c.365-.474.738-.919 1.12-1.335a18.733 18.733 0 012.73 2.45c-.593.51-1.16 1.048-1.699 1.614a.423.423 0 00.612.585c.55-.575 1.1-1.097 1.649-1.565.63.75 1.213 1.54 1.743 2.366l.151.26c-.622.317-1.254.678-1.896 1.083a.423.423 0 00.451.716c.598-.379 1.213-.73 1.844-1.052.481.938.865 1.923 1.145 2.94-.63.093-1.214.221-1.756.382a.423.423 0 10.241.811 12.15 12.15 0 011.707-.367 11.04 11.04 0 01.197 3.079h-1.557l-.076.007a.423.423 0 000 .832l.076.007h1.453a9.845 9.845 0 01-1.038 3.04 20.566 20.566 0 01-1.177-.23l-.414-.097-.076-.012a.423.423 0 00-.124.834c.46.112.904.207 1.328.285a11.818 11.818 0 01-2.247 2.524c-.396-.07-.79-.154-1.18-.25l-.41-.104-.076-.012a.423.423 0 00-.139.831c.316.083.625.157.928.224-.645.466-1.349.895-2.108 1.284-.3-.058-.606-.124-.92-.2l-.477-.12-.075-.012a.423.423 0 00-.14.831l.353.09c-.755.318-1.556.601-2.4.847a15.772 15.772 0 01-.664-.251l-.307-.129-.072-.024a.423.423 0 00-.34.759l.048.026-.043-.023-.133.03-.182.003L30 52c-10.415 0-19.14-7.237-21.42-16.958a.423.423 0 00.544-.514 13.847 13.847 0 01-.22-.896c.348-.43.698-.844 1.05-1.242l.049.182a.423.423 0 00.814-.229c-.066-.236-.125-.47-.178-.701.457-.483.917-.94 1.382-1.37l.086.396a.423.423 0 00.826-.185 25.619 25.619 0 01-.178-.865 23.54 23.54 0 011.855-1.44c.05.363.11.734.183 1.112a.423.423 0 10.831-.16c-.094-.488-.17-.98-.228-1.473.787-.5 1.609-.943 2.46-1.323.038.485.095.99.171 1.516a.423.423 0 00.838-.122 22.59 22.59 0 01-.187-1.738c1.11-.44 2.214-.777 3.305-1.014a23.73 23.73 0 00-.061 1.774.423.423 0 00.846 0c0-.69.025-1.338.075-1.94a17.644 17.644 0 013.487-.249zM39.499 49.18c.369.047.739.08 1.11.1-.832.458-1.699.865-2.593 1.215a.391.391 0 00-.182-.054l-.053-.003c.59-.376 1.141-.779 1.652-1.206l.066-.052zm2.927-37.337l-.229 1.628a.423.423 0 00.838.121l.167-1.191c.924.694 1.793 1.46 2.596 2.29-.268.713-.67 1.43-1.211 2.153a.423.423 0 00.677.507 9.948 9.948 0 001.17-1.978 22.15 22.15 0 012.59 3.57.412.412 0 00-.196.17c-.538.9-1.052 1.602-1.537 2.103a.423.423 0 10.608.589c.536-.554 1.086-1.306 1.655-2.257l-.101.168a21.89 21.89 0 011.602 3.885.415.415 0 00-.245.167l-.092.124-.133.165-.275.327-.365.42-.805.9a.423.423 0 00.628.568l.828-.927.577-.671.135-.168c.46 1.795.693 3.64.692 5.494 0 8.159-4.441 15.28-11.038 19.079a.423.423 0 00-.337-.646 12.785 12.785 0 01-.29-.019 12.6 12.6 0 001.992-2.542c.436.044.847.066 1.234.066a.423.423 0 100-.846c-.254 0-.52-.01-.797-.03.487-1.01.82-2.083.985-3.21h1.361l.076-.006a.423.423 0 000-.832l-.076-.007h-1.27c.071-1.075 0-2.155-.209-3.212a20.8 20.8 0 011.48-.05.423.423 0 000-.846c-.583 0-1.14.02-1.671.06a16.565 16.565 0 00-1.271-3.332 14.39 14.39 0 012.05-.703.423.423 0 00-.21-.82c-.765.2-1.513.458-2.238.772a27.317 27.317 0 00-.221-.385c-.557-.869-1.17-1.7-1.834-2.49.54-.403 1.11-.767 1.702-1.089a.423.423 0 00-.403-.744c-.62.335-1.24.733-1.86 1.194a20.163 20.163 0 00-2.822-2.566 14.82 14.82 0 011.818-1.47.423.423 0 00-.476-.698 15.883 15.883 0 00-2.047 1.669 17.613 17.613 0 00-3.527-1.852c.34-.52.704-1.013 1.092-1.481a.423.423 0 00-.65-.54 17.3 17.3 0 00-1.263 1.728 17.148 17.148 0 00-3.628-.774c.21-.49.446-.931.705-1.325a.423.423 0 00-.707-.465 9.822 9.822 0 00-.888 1.721c-1.256-.063-2.516 0-3.759.19.102-.622.238-1.183.407-1.685a.423.423 0 10-.802-.27c-.21.625-.372 1.327-.485 2.107-1.148.225-2.31.555-3.479.992.01-.655.068-1.255.17-1.801a.423.423 0 10-.832-.156 12.208 12.208 0 00-.187 2.292l-.199.085c-.792.34-1.562.73-2.304 1.169a12.8 12.8 0 01.049-1.595.423.423 0 00-.843-.08 14.323 14.323 0 00-.031 2.187c-.653.426-1.297.894-1.93 1.405a11.87 11.87 0 01-.075-1.283.423.423 0 00-.846 0c0 .585.05 1.228.147 1.93-.461.404-.918.83-1.37 1.28a9.253 9.253 0 01-.04-.866.423.423 0 10-.847 0c0 .535.042 1.085.126 1.65-.321.342-.64.696-.955 1.062a7.87 7.87 0 01-.017-.527.423.423 0 00-.635-.366C8.008 30.689 8 30.345 8 30 8 17.85 17.85 8 30 8c1.92 0 3.782.246 5.558.708l-.022.59a.423.423 0 00.846.025l.013-.38c.886.27 1.748.593 2.583.966l-.057 1.07a.423.423 0 10.845.048l.04-.726c.911.454 1.786.97 2.62 1.541v.001z" fill="#777B87" fill-rule="nonzero"/><path d="M39.175 35.214l.248-.154.22-.134a23.584 23.584 0 011.376-.764c.481.938.865 1.923 1.145 2.94-.63.093-1.214.221-1.756.382a.421.421 0 00-.29.3v.007l-.003.011a.42.42 0 00-.009.065l.011-.076a.423.423 0 000 .196l.006.023.007.022.015.037-.022-.059a.424.424 0 00.098.17l.017.017c.023.02.04.034.058.046l-.058-.046a.423.423 0 00.411.098c.56-.163 1.13-.286 1.706-.367.084.413.145.821.183 1.223l-.012-.127c.012.114.022.227.03.341l-.018-.214c.015.158.026.314.034.47l-.016-.256c.009.12.016.24.02.361l.001.001c.011.3.011.6-.002.9a32.98 32.98 0 01-.401.38h-1.178l-.076.007a.423.423 0 000 .832l.076.007h.216l-.392.324a25.282 25.282 0 01-15.896 5.592c-3.769 0-7.346-.821-10.562-2.295A21.967 21.967 0 018.58 35.042l.014.006a.425.425 0 00.018.005l.038.005.02.004.01.001-.068-.01a.423.423 0 00.142.012.02.02 0 01.01-.003.396.396 0 00.163-.051c.002-.004.005-.005.008-.007a.3.3 0 00.062-.043l.01-.012a.423.423 0 00.118-.42 13.844 13.844 0 01-.22-.899c.347-.428.697-.842 1.049-1.24l.049.182c.06.19.243.31.435.295l.083-.015a.423.423 0 00.296-.509l-.021-.078-.011-.04-.062-.234-.029-.117-.054-.232c.456-.483.916-.94 1.381-1.37l.086.396c.045.203.23.339.43.33l.075-.01a.423.423 0 00.321-.505l-.093-.432-.085-.433c.327-.28.66-.552 1.002-.814l.376-.284.477-.342c.045.326.098.66.161.998l.022.114a.423.423 0 00.452.342l.086-.017a.423.423 0 00.293-.485l-.006-.031-.082-.458a20.227 20.227 0 01-.076-.491l-.064-.493c.787-.5 1.609-.943 2.46-1.323.038.485.095.99.171 1.516a.422.422 0 00.057.16l.008.012a.413.413 0 00.195.16h.002a.44.44 0 00.083.024l-.083-.024a.423.423 0 00.2.028l.018-.002.017-.003a.424.424 0 00.04-.01l-.057.013a.424.424 0 00.262-.145l-.06.058a.423.423 0 00.156-.393l-.01-.071-.067-.507a22.53 22.53 0 01-.063-.58l-.047-.58a21.706 21.706 0 013.048-.956l.256-.058c-.012.17-.022.342-.03.518l.031-.518a23.73 23.73 0 00-.061 1.774l.006.075a.423.423 0 00.84-.075c0-.69.025-1.338.075-1.94a17.644 17.644 0 012.486-.249l.5-.007.5.007-.018.065-.066.231-.042.16-.007.025-.005.02.054-.205a19.274 19.274 0 00-.372 1.648.423.423 0 00.384.498l.088-.002a.423.423 0 00.361-.344c.135-.741.3-1.424.493-2.048 1.173.098 2.316.32 3.422.662-.311.57-.594 1.154-.847 1.752l-.012.028a.423.423 0 00.39.589l.081-.008a.423.423 0 00.309-.251 19.235 19.235 0 01.775-1.623l.117-.212a16.347 16.347 0 013.299 1.674c-.372.409-.735.843-1.089 1.304a.423.423 0 00.311.67l.08-.001a.422.422 0 00.279-.153c.243-.316.49-.62.741-.91l.379-.425a18.733 18.733 0 012.73 2.45 23.52 23.52 0 00-1.699 1.614.423.423 0 00.316.716l.08-.01a.421.421 0 00.216-.121l.152-.157.22-.224.081-.08c.384-.381.783-.75 1.195-1.103l.303.369.07.085c.49.613.947 1.25 1.371 1.911l.006.012.144.249c-.621.316-1.253.677-1.895 1.082l-.04.03-.028.023a.423.423 0 00.28.728l.082-.005a.42.42 0 00.08-.022l.077-.038zm5.959 2.531a25.26 25.26 0 01-1.298 1.572l-.01-.119a12.317 12.317 0 00-.01-.128l.02.247a12.587 12.587 0 00-.072-.71l-.026-.182a6.75 6.75 0 00-.034-.226 18.3 18.3 0 00-.073-.404 22.36 22.36 0 011.003-.046l.5-.004zm-1.29-.812l-.404.026a16.565 16.565 0 00-1.271-3.332 14.39 14.39 0 012.05-.703.423.423 0 00.305-.515l-.008-.021-.021-.06a.424.424 0 00-.318-.233l-.083-.004a.425.425 0 00-.085.013 15.39 15.39 0 00-1.8.59l-.438.182a32.311 32.311 0 00-.221-.385c-.557-.869-1.17-1.7-1.834-2.49.54-.403 1.11-.767 1.702-1.089a.423.423 0 00-.403-.744c-.496.268-.992.576-1.488.925l-.372.269a20.163 20.163 0 00-2.39-2.234l-.432-.332c.34-.322.695-.628 1.063-.917l.374-.281c.126-.093.253-.183.382-.271a.424.424 0 00-.477-.7 15.883 15.883 0 00-2.047 1.67 17.612 17.612 0 00-3.527-1.852c.34-.52.704-1.013 1.092-1.481a.423.423 0 00-.288-.675l-.079-.002a.422.422 0 00-.283.137 17.3 17.3 0 00-.967 1.281l-.296.447a17.15 17.15 0 00-1.019-.301l-.515-.127a17.217 17.217 0 00-2.094-.346c.21-.49.446-.931.705-1.325a.423.423 0 00-.06-.537l-.061-.049a.422.422 0 00-.156-.063l-.08-.007a.423.423 0 00-.349.191c-.282.434-.528.89-.738 1.363l-.15.358a18.739 18.739 0 00-3.225.117l-.533.073c.101-.622.237-1.183.406-1.685a.423.423 0 10-.802-.27c-.21.625-.372 1.327-.485 2.107-1.148.225-2.31.555-3.478.991.01-.654.067-1.254.17-1.8a.424.424 0 00-.339-.495l-.076-.007.076.008a.422.422 0 00-.494.338 12.208 12.208 0 00-.187 2.292l-.199.085c-.792.34-1.562.73-2.304 1.169a12.8 12.8 0 01.049-1.595.423.423 0 00-.843-.08 14.323 14.323 0 00-.031 2.187c-.653.426-1.297.894-1.93 1.405l-.04-.421c-.01-.136-.019-.269-.025-.398l.018.306a11.87 11.87 0 01-.02-.37l-.008-.4c0-.208-.15-.38-.347-.416l-.076-.007a.423.423 0 00-.423.423c0 .585.05 1.228.147 1.93a28.5 28.5 0 00-.914.835l-.009.008-.447.437a9.253 9.253 0 01-.04-.866.423.423 0 10-.847 0c0 .529.041 1.072.123 1.63l.003.02c-.32.341-.639.696-.955 1.062a8.038 8.038 0 01-.017-.527.422.422 0 00-.287-.4l.075.034a.423.423 0 00-.211-.057l-.033.001a.423.423 0 00-.02.002l.053-.003a.423.423 0 00-.137.023l-.01.003-.065.031C8.008 30.689 8 30.345 8 30 8 17.85 17.85 8 30 8c1.92 0 3.781.246 5.557.708l-.019.525-.002.065a.422.422 0 00.028.166l.01.02a.34.34 0 00.03.058l.01.013c.014.02.03.04.048.057l.007.006c.04.039.089.07.142.09l-.073-.037a.423.423 0 00.187.062h.021l.024.001a.423.423 0 00.04-.003l-.064.002a.424.424 0 00.146-.02l.027-.01.042-.02.033-.02a.425.425 0 00.032-.024l-.065.044a.423.423 0 00.096-.07l.025-.029a.283.283 0 00.032-.041l.01-.017a.31.31 0 00.027-.053l.009-.026a.392.392 0 00.023-.124l.012-.38c.886.27 1.748.593 2.583.966l-.057 1.07a.423.423 0 10.846.048l.039-.727.542.28c.717.383 1.41.805 2.077 1.261l-.228 1.629-.002.024-.002.053a.423.423 0 00.842.045l.167-1.191a22.05 22.05 0 012.595 2.289l-.04.108.041-.107a7.332 7.332 0 01-.43.94 9.027 9.027 0 01-.351.595l-.203.303c-.073.105-.149.21-.227.314a.421.421 0 00.09.586.423.423 0 00.587-.078 9.948 9.948 0 00.988-1.587.834.834 0 01.038-.08c.033-.066.063-.13.092-.195l.052-.116a22.15 22.15 0 012.59 3.57.287.287 0 00-.045.021l.045-.021a.412.412 0 00-.196.17c-.12.2-.238.39-.355.57l-.175.263a9.627 9.627 0 01-1.007 1.269.421.421 0 00.01.6.423.423 0 00.598-.01c.476-.492.964-1.141 1.466-1.947l.164-.27-.076.128c.307.58.587 1.172.84 1.775a26.06 26.06 0 01-.072 2.994l-.276.317-.805.902-.031.042-.022.03a.423.423 0 00-.041.324l.005.018.008.021a.42.42 0 00.02.044l-.028-.065a.423.423 0 00.103.169l.016.015.016.014c.012.01.024.018.037.027l-.053-.041a.424.424 0 00.131.08c.013.005.025.01.038.013l.026.007.015.002a.424.424 0 00.037.005l-.052-.007a.45.45 0 00.11.009l.006-.001a.352.352 0 00.072-.01l.017-.006a.416.416 0 00.198-.122l.291-.325-.08.527a25.248 25.248 0 01-4.458 10.749.421.421 0 00-.314-.313l-.017-.003a.412.412 0 00-.079-.008h-.001c-.437 0-.859.011-1.267.034z" fill="#8D909B" fill-rule="nonzero"/></g></svg>