<svg width="60" height="60" xmlns="http://www.w3.org/2000/svg"><g fill="none" fill-rule="evenodd"><path d="M0 0h60v60H0z"/><path d="M17.932 38.34a6.6 6.6 0 011.461.787l.267.192.129.096.256.201.265.224c.046.04.093.08.14.123l.303.279c.054.05.109.103.166.158l.37.361.417.42 2.279 2.352.63.639c3.668 3.66 7.212 6.26 10.558 7.217-1.659.4-3.391.611-5.173.611-2.167 0-4.261-.313-6.24-.897-3.029-3.842-4.95-7.977-5.768-12.414l-.06-.349zm-.145-8.606c8.979 5.022 20.15 6.973 33.495 5.86-1.775 6.772-6.697 12.271-13.11 14.838-3.97.128-8.655-3.093-13.528-8.164l-.675-.702-1.248-1.284-.42-.423-.478-.47-.407-.38-.362-.317-.255-.208-.26-.2c-.12-.088-.24-.176-.37-.266a7.817 7.817 0 00-2.45-1.172c-.26-2.284-.239-4.648.066-7.09l.002-.022zm-4.985 11.137c1.427-2.026 2.68-2.972 3.7-2.899.65 4.38 2.307 8.486 4.968 12.313a22.08 22.08 0 01-9.65-7.892c.219-.368.434-.71.645-1.028l.337-.494zm-3.74-17.64a41.731 41.731 0 007.46 5.766l-.01.063c-.365 2.599-.424 5.117-.18 7.554-1.714.024-3.461 1.551-5.32 4.503A21.888 21.888 0 018 30c0-2.246.336-4.413.962-6.454l.1-.315zm33.63-4.277l.182.002.701.012.668.024.634.035c2.305.156 3.902.554 4.817 1.154A21.92 21.92 0 0152 30c0 1.439-.138 2.846-.402 4.208l-.345.03c-13.346 1.125-24.42-.856-33.244-5.935.49-2.55 1.497-4.972 2.936-7.21l.166.09c.217.11.445.2.69.274l.251.068.264.055.069.012.069.012.286.037.303.026.321.015.254.003.266-.004.373-.015.398-.026.422-.038.449-.049.477-.06.771-.113.844-.137 1.245-.222.677-.128 1.09-.212 2.86-.578 1.129-.222 1.008-.188.628-.111.606-.101.597-.094c1.882-.285 3.536-.433 5.052-.433h.183-.001zm-23.606-8.059c-1.19 4.497-.965 7.63.776 9.381-1.468 2.26-2.524 4.707-3.084 7.289a40.423 40.423 0 01-7.015-5.543l-.195-.195.182-.44a22.086 22.086 0 019.244-10.44l.092-.052zm18.643-1.499a22.072 22.072 0 0110.873 8.853c-1.527-.44-3.562-.649-6.092-.649-1.592 0-3.31.154-5.255.449l-.152.023-.152.024-.61.098-.626.108-.994.181-1.096.213-1.65.334-2.228.443-1.593.297-.85.147-.526.085-.495.075-.464.064-.437.053-.409.043-.383.033-.358.023-.335.012-.314.001h-.075l-.074-.003-.283-.014-.265-.024-.063-.008-.062-.008-.24-.04-.224-.05-.054-.014-.053-.015-.204-.065-.098-.037-.095-.04-.068-.032c1.424-1.953 3.185-3.75 5.219-5.35 3.534-2.778 7.641-4.69 10.758-5.205l.027-.005zM30 8c1.793 0 3.536.215 5.205.62-2.912.907-6.193 2.638-9.098 4.923-2.119 1.665-3.96 3.541-5.455 5.586-1.099-1.32-1.264-3.728-.422-7.235l.09-.367.184-.688c.072-.26.15-.526.233-.798A21.893 21.893 0 0130 8z" fill="#444650" fill-rule="nonzero"/><path d="M17.932 38.34c.31.12.612.263.9.428l.285.172c.093.06.186.122.276.187l.267.192.129.096.256.201.265.224c.046.04.093.08.14.123l.303.279c.054.05.109.103.166.158l.37.361.417.42 2.279 2.352.63.639a58.491 58.491 0 001.468 1.413c.433.401.865.787 1.295 1.155l.08.069a37.117 37.117 0 001.543 1.246l.113.086a25.555 25.555 0 00.894.649 21.577 21.577 0 001.004.664c.057.037.115.073.172.108l.163.099.165.099a22.186 22.186 0 01-8.584.24 29.541 29.541 0 01-.628-.898l.18.264c-.103-.15-.204-.3-.303-.45l.123.186c-.1-.15-.2-.301-.298-.452l.175.266a30.741 30.741 0 01-.315-.486l.14.22a30.42 30.42 0 01-.314-.496l.174.276a30.17 30.17 0 01-.33-.53l.156.254c-.095-.154-.19-.309-.282-.464l.127.21c-.091-.15-.18-.3-.268-.45l.141.24a41.93 41.93 0 01-.313-.54l.172.3a29.236 29.236 0 01-.255-.448l.083.149c-.107-.19-.212-.38-.314-.57l.23.42a28.81 28.81 0 01-.267-.489l.037.069c-.07-.13-.139-.26-.207-.391l.17.322c-.097-.18-.191-.362-.283-.544l.113.222a28.19 28.19 0 01-.264-.525l.15.303a29.58 29.58 0 01-.233-.473l.083.17a27.831 27.831 0 01-.275-.576l.192.406a27.74 27.74 0 01-.247-.526l.055.12a27.547 27.547 0 01-.185-.407l.13.287a27.457 27.457 0 01-.22-.492l.09.205c-.075-.17-.148-.34-.22-.51l.13.305a27.208 27.208 0 01-.229-.545l.1.24a27.08 27.08 0 01-.238-.584l.138.344a26.995 26.995 0 01-.199-.501l.061.157c-.066-.17-.131-.34-.194-.512l.133.355a26.828 26.828 0 01-.183-.491l.05.136a26.75 26.75 0 01-.16-.443l.11.307a26.69 26.69 0 01-.196-.557l.086.25c-.059-.17-.117-.34-.172-.511l.086.26a26.585 26.585 0 01-.164-.502l.078.242a26.558 26.558 0 01-.183-.581l.105.34a26.521 26.521 0 01-.157-.515l.052.175c-.045-.151-.09-.302-.132-.453l.08.278a26.487 26.487 0 01-.155-.55l.075.272c-.057-.201-.11-.402-.163-.604l.088.332a26.49 26.49 0 01-.13-.497l.042.165a26.527 26.527 0 01-.109-.44l.068.275a26.833 26.833 0 01-.339-1.552l-.014-.075-.04-.225-.021-.127zm-1.43-.368a28.16 28.16 0 001.013 4.374 27.721 27.721 0 001.215 3.15 25.469 25.469 0 00.522 1.085 27.699 27.699 0 00.736 1.364 24.416 24.416 0 00.416.705l.098.16c.073.119.147.237.222.355l.13.2.141.219a21.982 21.982 0 01-2.482-.817 22.103 22.103 0 01-6.693-6.374c.154-.26.307-.506.457-.74l.188-.288.115-.169.222-.325c1.308-1.857 2.47-2.807 3.44-2.896l.131-.007c.044 0 .086 0 .129.004zm1.286-8.237l.258.142.252.138-.51-.28a41.1 41.1 0 001.278.686l.284.145c.306.156.616.308.928.456l.135.064c.29.138.584.272.879.404l.25.11.141.062.391.167c.49.207.987.407 1.49.599l.157.059.375.14.232.084.284.102.316.11.272.094.268.09c.124.042.25.083.374.123l.202.064c.144.047.288.092.432.136l.073.022c.359.111.722.218 1.087.32l.178.05.388.107.217.057.417.109.127.032c.569.144 1.144.28 1.725.405l.054.012c.19.041.381.081.573.12l.145.03a45.175 45.175 0 001.073.206 58.89 58.89 0 004.797.668 68.203 68.203 0 007.255.328 93.958 93.958 0 001.704-.026 75.442 75.442 0 00.739-.022l.265-.01a22.06 22.06 0 01-13.874 13.398 16.9 16.9 0 01-.67-.348l.132.072a18.379 18.379 0 01-.31-.17l.179.098c-.1-.055-.2-.11-.3-.168l.121.07a19.543 19.543 0 01-.347-.2l.225.13a22.534 22.534 0 01-1.662-1.053 34.625 34.625 0 01-3.481-2.803l.115.105a45.64 45.64 0 01-.339-.308l.224.203c-.116-.104-.23-.21-.346-.317a55.877 55.877 0 01-2.316-2.279l-.675-.702-1.248-1.284-.42-.423-.478-.47-.407-.38-.362-.317-.255-.208-.26-.2c-.12-.088-.24-.176-.37-.266a7.817 7.817 0 00-2.449-1.172 27.814 27.814 0 01-.158-2.054 29.938 29.938 0 01.048-3.228c.03-.452.071-.907.122-1.365l.053-.443v-.008l.003-.013zm-8.726-6.504l.026.025.098.096c.318.307.641.608.968.904l.076.068c.36.323.724.64 1.095.952l.093.077a34.475 34.475 0 00.926.751l.333.259c.354.273.712.54 1.074.8l.156.112a36.867 36.867 0 001.3.891c.433.286.87.562 1.314.831l-.01.063c-.364 2.599-.423 5.117-.18 7.553-.769.01-1.544.325-2.334.934a8.29 8.29 0 00-1.052.977c-.61.659-1.229 1.486-1.86 2.48l-.054.084-.019.029A21.888 21.888 0 018 30c0-2.246.336-4.413.962-6.454l.1-.315zm34.784 11.312l-.527-.005a72.85 72.85 0 01-.903-.017l.22.006a71.653 71.653 0 01-.707-.019l.487.013a71.061 71.061 0 01-.82-.024l.333.011a68.04 68.04 0 01-.644-.023l.31.012a69.44 69.44 0 01-.78-.033l.47.021-.682-.031.212.01-.607-.031.395.021c-.24-.012-.478-.025-.716-.04l.32.019c-.21-.012-.42-.025-.629-.039l.31.02a66.125 66.125 0 01-.786-.053l.476.033c-.176-.011-.35-.023-.525-.036l.049.003c-.226-.016-.45-.034-.675-.052l.626.049a64.599 64.599 0 01-.731-.058l.105.009a63.587 63.587 0 01-.605-.054l.5.045a63.242 63.242 0 01-.76-.07l.26.025-.618-.06.358.035a61.869 61.869 0 01-.79-.081l.432.045c-.18-.018-.36-.038-.54-.058l.109.013a60.62 60.62 0 01-.662-.077l.553.064a60.42 60.42 0 01-.692-.081l.14.017-.542-.068.402.05a59.16 59.16 0 01-.819-.106l.417.056c-.2-.026-.4-.054-.599-.082l.182.026a57.932 57.932 0 01-.696-.1l.514.074c-.218-.03-.435-.062-.652-.096l.138.021a44.18 44.18 0 01-.525-.081l.387.06a57.735 57.735 0 01-.744-.118l.357.058a56.2 56.2 0 01-.47-.078l.113.02a55.563 55.563 0 01-.575-.1l.462.08a54.243 54.243 0 01-4.377-.927l.228.058a49.752 49.752 0 01-.622-.161l.394.103a49.477 49.477 0 01-.602-.159l.208.056a49.032 49.032 0 01-.581-.159l.373.103a48.758 48.758 0 01-.619-.172l.246.07a48.35 48.35 0 01-.604-.174l.358.104a48 48 0 01-.714-.21l.356.106a47.722 47.722 0 01-.52-.156l.164.05a47.292 47.292 0 01-.581-.18l.417.13c-.2-.06-.4-.123-.597-.187l.18.058a46.723 46.723 0 01-.504-.163l.324.105a46.506 46.506 0 01-.589-.193l.265.088a46.142 46.142 0 01-.653-.22l.388.132a45.959 45.959 0 01-.514-.175l.126.043c-.187-.064-.372-.13-.557-.196l.431.153a45.536 45.536 0 01-1.727-.642l.227.09c-.195-.077-.39-.154-.583-.233l.356.143a43.971 43.971 0 01-.497-.2l.14.057a43.68 43.68 0 01-.502-.207l.362.15a43.55 43.55 0 01-.578-.242l.216.092a43.272 43.272 0 01-.577-.247l.361.155a43.15 43.15 0 01-.498-.216l.137.06a42.889 42.889 0 01-.5-.221l.363.161a42.75 42.75 0 01-.642-.29l.28.129a42.544 42.544 0 01-.52-.24l.24.112a42.36 42.36 0 01-.551-.26l.311.149c-.18-.085-.36-.17-.539-.258l.228.11c-.15-.072-.299-.144-.447-.217l.22.107a41.9 41.9 0 01-.521-.257l.3.15c-.19-.094-.38-.19-.568-.286l.268.136a41.62 41.62 0 01-.51-.26h.001a41.038 41.038 0 01-1.527-.837c.49-2.55 1.498-4.972 2.937-7.21l.112.061.053.029c.217.11.445.2.69.274l.251.068.264.055.138.024.286.037.303.026.321.015.254.003.266-.004.373-.015.398-.026.422-.038.449-.049.477-.06.771-.113.844-.137 1.245-.222.677-.128 1.09-.212 2.86-.578 1.129-.222 1.008-.188.628-.111.606-.101.597-.094c1.882-.285 3.536-.433 5.052-.433h.182l.09.001.091.001.702.012.668.024.634.035a25.682 25.682 0 01.84.07c.325.034.633.072.926.116l-.115-.017.126.019a21.92 21.92 0 011.961 9.093 22.01 22.01 0 01-.873 6.155l-.06.004.06-.003c-1.027.045-2.04.071-3.038.078h.108c-.323.002-.646.002-.966 0zM18.739 12.355l-.014.07a24.104 24.104 0 00-.2 1.12c-.04.257-.072.51-.098.756l-.021.208-.003.025c-.028.304-.046.599-.055.885a11.586 11.586 0 00.019 1.086 8.519 8.519 0 00.155 1.145c.006.03.012.06.02.089a5.75 5.75 0 00.502 1.41 4.627 4.627 0 00.818 1.127c-.37.57-.715 1.153-1.032 1.746a22.007 22.007 0 00-1.472 3.423 20.65 20.65 0 00-.41 1.398l-.051.207-.119.514a40.36 40.36 0 01-7.015-5.542l-.195-.195.182-.44a22.086 22.086 0 019.244-10.44l.09-.05c-.132.503-.247.989-.345 1.458zm18.516 5.694l-.152.023-.152.024-.61.098-.626.108-.994.181-1.096.213-1.65.334-2.228.443-1.593.297-.85.147-.526.085-.495.075-.464.064-.437.053-.409.043-.383.033-.358.023-.335.012-.314.001h-.075l-.074-.003-.283-.014-.265-.024-.063-.008-.062-.008-.24-.04-.224-.05-.054-.014-.053-.015-.204-.065-.098-.037-.095-.04-.068-.032c1.424-1.953 3.185-3.75 5.219-5.35 3.534-2.778 7.641-4.69 10.758-5.205l.029-.004.362.14.164.1a22.106 22.106 0 017.669 8.122c-.422-.045-.862-.08-1.323-.105-.031 0-.06-.002-.09-.004a32.033 32.033 0 00-1.49-.049l-.513-.001c-1.592 0-3.31.154-5.255.449zM30 8c1.793 0 3.536.215 5.205.62l-.121.038c-.085.027-.17.054-.255.083l.376-.121a21.386 21.386 0 00-1.227.423 26.414 26.414 0 00-2.702 1.197c-.108.054-.216.11-.325.167l-.184.098a24.47 24.47 0 00-.32.172l-.165.091-.296.166-.207.12c-.1.057-.2.116-.3.176l-.18.108-.331.202-.144.09c-.118.074-.236.15-.354.226l-.071.046c-.138.09-.276.18-.413.273l-.102.07c-.127.085-.252.172-.378.26l-.138.097a26.803 26.803 0 00-.757.553l-.174.132-.33.256a29.296 29.296 0 00-4.626 4.513c-.163.2-.323.402-.479.605l-.35.468c-.773-.928-1.084-2.394-.908-4.401.075-.848.236-1.793.486-2.834l.09-.367.184-.688.163-.565.07-.233A21.893 21.893 0 0130 8z" fill="#575961" fill-rule="nonzero"/></g></svg>