<svg width="60" height="60" viewBox="0 0 60 60" fill="none" xmlns="http://www.w3.org/2000/svg">
<g clip-path="url(#clip0_1054_144875)">
<path fill-rule="evenodd" clip-rule="evenodd" d="M30 52C17.85 52 8 42.15 8 30C8 17.85 17.85 8 30 8C42.15 8 52 17.85 52 30C52 42.15 42.15 52 30 52Z" fill="#EDEDED"/>
<mask id="mask0_1054_144875" style="mask-type:luminance" maskUnits="userSpaceOnUse" x="28" y="13" width="24" height="38">
<path fill-rule="evenodd" clip-rule="evenodd" d="M28.8604 13.9116H52.0002V50.3276H28.8604V13.9116Z" fill="white"/>
</mask>
<g mask="url(#mask0_1054_144875)">
<path fill-rule="evenodd" clip-rule="evenodd" d="M45.0027 13.9116L40.4227 15.0316L30.0507 26.8886C30.0507 26.8886 27.4067 33.7456 29.9997 40.6506C33.3207 49.4926 38.3787 50.2866 38.4267 50.3276C46.3947 47.0206 52.0007 39.1656 52.0007 30.0006C52.0007 23.6496 49.3077 17.9276 45.0027 13.9116" fill="#81838D"/>
</g>
<path fill-rule="evenodd" clip-rule="evenodd" d="M21.7744 17.4438L14.8914 19.4488C14.8914 19.4488 11.3164 23.6118 12.0174 33.8278C12.8234 45.5908 18.3874 48.6628 18.7274 48.8888C21.7144 50.6768 25.1614 51.7778 28.8494 51.9698C28.4434 51.3848 23.0854 47.5238 21.2874 36.2148C19.7444 26.5178 24.4794 19.4868 24.4794 19.4868L21.7744 17.4438Z" fill="#81838D"/>
<path fill-rule="evenodd" clip-rule="evenodd" d="M45.2955 31.4148C51.2525 26.8618 50.9405 23.3388 50.9525 23.2808C50.9515 23.2788 50.9515 23.2758 50.9505 23.2738C50.9505 23.2738 50.3585 21.1648 48.9355 18.7998C48.0075 17.2568 46.9145 15.8248 45.6565 14.5508L35.6535 20.4828L30.0495 26.8888C30.0495 26.8888 28.1565 30.6048 29.0915 37.1618C29.0955 37.1618 37.7765 37.1618 45.2955 31.4148" fill="#63656E"/>
<path fill-rule="evenodd" clip-rule="evenodd" d="M30.0499 8C21.2779 8 13.7049 13.135 10.1729 20.563C10.2109 20.55 14.8379 18.205 22.0889 20.183C27.7049 21.714 30.0499 26.888 30.0499 26.888C30.0499 26.888 37.9649 26.592 42.3019 22.759C47.1059 18.512 46.0389 14.926 46.0419 14.893C42.0309 10.649 36.3499 8 30.0499 8" fill="#63656E"/>
<path fill-rule="evenodd" clip-rule="evenodd" d="M33.7349 10.5769C30.0619 8.91592 25.6319 8.57592 25.1719 8.54492C21.5029 9.37492 18.1809 11.1219 15.4609 13.5329C16.5539 13.2919 22.5599 12.0539 28.8459 15.1719C34.8669 18.1589 38.1689 25.1789 38.1689 25.1789C39.6559 24.5939 41.1109 23.8099 42.2979 22.7609C43.4859 21.7109 44.3139 20.7009 44.8889 19.7759C44.8889 19.7759 39.5829 13.2229 33.7349 10.5769" fill="#81838D"/>
<path fill-rule="evenodd" clip-rule="evenodd" d="M43.7174 42.1131C38.9294 44.8551 32.4414 45.4991 32.4414 45.4991L33.2664 46.6241C35.8984 49.9001 38.3904 50.2991 38.4234 50.3281C44.2964 47.8911 49.9604 42.0671 51.3344 35.3901C51.3344 35.3901 49.6354 38.7251 43.7174 42.1131" fill="#63656E"/>
<path fill-rule="evenodd" clip-rule="evenodd" d="M41.304 11.105C44.508 14.927 46.438 19.852 46.438 25.229C46.438 37.38 36.588 47.229 24.438 47.229C20.25 47.229 16.335 46.059 13.002 44.027C17.038 48.841 23.095 51.902 29.868 51.902C42.019 51.902 51.868 42.053 51.868 29.903C51.868 21.941 47.639 14.967 41.304 11.105" fill="#231815" fill-opacity="0.2"/>
</g>
<defs>
<clipPath id="clip0_1054_144875">
<rect width="60" height="60" fill="white"/>
</clipPath>
</defs>
</svg>
