<svg width="60" height="60" xmlns="http://www.w3.org/2000/svg"><g fill="none" fill-rule="evenodd"><path d="M0 0h60v60H0z"/><path d="M52 30c0 12.15-9.85 22-22 22S8 42.15 8 30 17.85 8 30 8s22 9.85 22 22" fill="#EBEBEB" fill-rule="nonzero"/><path d="M45.002 13.912l-4.58 1.12L30.05 26.889s-2.644 6.857-.05 13.762c3.32 8.842 8.378 9.636 8.426 9.677C46.394 47.021 52 39.166 52 30.001c0-6.351-2.693-12.073-6.998-16.089m-23.228 3.532l-6.883 2.005s-3.575 4.163-2.874 14.379c.806 11.763 6.37 14.835 6.71 15.06A21.878 21.878 0 0028.85 51.97c-.406-.585-5.764-4.446-7.562-15.755-1.543-9.697 3.192-16.728 3.192-16.728l-2.705-2.043h-.001z" fill="#F9CA2E" fill-rule="nonzero"/><path d="M45.295 31.415c5.957-4.553 5.645-8.076 5.657-8.134 0-.002 0-.005-.002-.007 0 0-.592-2.11-2.015-4.474a22.64 22.64 0 00-3.279-4.25l-10.003 5.933-5.604 6.406s-1.893 3.716-.958 10.273c.004 0 8.685 0 16.204-5.747" fill="#365FC5" fill-rule="nonzero"/><path d="M30.05 8c-8.772 0-16.345 5.135-19.877 12.563.038-.013 4.665-2.358 11.916-.38 5.616 1.531 7.961 6.705 7.961 6.705s7.915-.296 12.252-4.129c4.804-4.247 3.737-7.833 3.74-7.866A21.94 21.94 0 0030.05 8" fill="#365FC5" fill-rule="nonzero"/><path d="M33.735 10.577c-3.673-1.661-8.103-2.001-8.563-2.032a21.936 21.936 0 00-9.71 4.988c1.092-.241 7.098-1.479 13.384 1.639 6.021 2.987 9.323 10.007 9.323 10.007 1.487-.585 2.942-1.369 4.13-2.418 1.187-1.05 2.015-2.06 2.59-2.985 0 0-5.306-6.553-11.154-9.199" fill="#F9CA2E" fill-rule="nonzero"/><path d="M43.717 42.113c-4.788 2.742-11.276 3.386-11.276 3.386l.825 1.125c2.632 3.276 5.124 3.675 5.157 3.704 5.873-2.437 11.537-8.261 12.911-14.938 0 0-1.699 3.335-7.617 6.723" fill="#365FC5" fill-rule="nonzero"/><path d="M41.404 11.156a21.909 21.909 0 015.134 14.124c0 12.15-9.85 22-22 22-4.188 0-8.103-1.17-11.436-3.202 4.036 4.814 10.093 7.875 16.866 7.875 12.15 0 22-9.85 22-22 0-7.961-4.23-14.935-10.564-18.797" fill-opacity=".35" fill="#274788" fill-rule="nonzero"/></g></svg>