<svg width="60" height="60" xmlns="http://www.w3.org/2000/svg"><g fill="none" fill-rule="evenodd"><path d="M0 0h60v60H0z"/><path d="M51.961 30.858c1.993-3.953 5.869-12.814-1.724-18.593-6.66-5.067-16.162-4.33-19.505 1.415-.253.434-.471.89-.676 1.35-.252.875-1.457 5.48-.775 11.426a.44.44 0 11-.874.1c-.601-5.24.197-9.384.624-11.1-2.096-.092-3.093 1.561-3.721 4.198-.69 2.891-.122 8.607 1.289 11.908.685 1.604 1.294 3.52 1.74 5.068-.252-.04-.51.003-.737.12-.284.156-.494.42-.583.731l-2.248 7.837c-.185.646.186 1.32.832 1.507 5.873 1.71 11.746 3.419 17.62 5.127a1.216 1.216 0 001.514-.834l2.248-7.836a1.22 1.22 0 00-.872-1.52c.059-.12.115-.24.179-.367 1.603-3.154 4.395-8.012 5.669-10.537" fill="#575961" fill-rule="nonzero"/><path d="M24.152 32.267c-.521-1.22-.933-2.733-1.227-4.324-.32.013-.641.025-.965.023a21.523 21.523 0 01-1.603-.078c.71 1.022 1.34 2.331 1.815 4.024.005.015.016.027.02.043l.108.444c.037.15.073.302.108.456.1.436.209.927.27 1.272a3.87 3.87 0 00.673-.2c.433-.176.788-.518 1.09-.95a27.78 27.78 0 00-.29-.71" fill="#444650" fill-rule="nonzero"/><path d="M22.192 31.955c-.004-.016-.015-.028-.02-.043.044.159.087.322.128.487l-.108-.444m-.759.6l.08.34c-.026-.114-.052-.23-.08-.34" fill="#231815" fill-rule="nonzero"/><path d="M21.856 33.938s-.002 0-.003-.002l.003.002" fill="#CE2527" fill-rule="nonzero"/><path d="M24.442 32.963c-.302.431-.657.773-1.091.95-.221.09-.448.147-.677.192 0 .007.003.015.004.022.01.056.022.117.029.164a.44.44 0 01-.87.129l-.037-.212a16.866 16.866 0 00-.102-.502c-.004-.013-.011-.023-.014-.035-.672-3.483-1.972-5.514-3.363-6.747-1.516-1.343-3.14-1.736-4.18-1.982a13.66 13.66 0 01-.58-.145c-2.973-.652-3.122-1.902-3.418-4.393a56.33 56.33 0 00-.163-1.284c-.115-.877-.321-1.584-.606-2.104-.187-.34-.407-.603-.66-.774-.085-.06-.166-.09-.248-.124-.091-.007-.18-.02-.28-.013-2.674.19-3.306 2.163-3.168 5.178.113 2.49 1.623 6.64 3.444 9.557.643 1.277 1.363 2.456 2.1 3.361 1.295 1.59 2.607 3.623 3.496 5.077h-.285c-.323 0-.634.129-.862.358a1.218 1.218 0 00-.358.861v6.855a1.22 1.22 0 001.22 1.219h5.78a1.201 1.201 0 01-.186-.607V39.81a1.234 1.234 0 01.357-.862c.23-.228.54-.356.863-.356h3.453l.458-1.597a3 3 0 01.866-1.388 41.881 41.881 0 00-.923-2.645" fill="#575961" fill-rule="nonzero"/><path d="M27.963 9.134c-7.794-3.033-16.716.29-18.355 6.726.635.651 1.054 1.7 1.243 3.142.066.472.118.905.165 1.3.292 2.46.371 3.12 2.759 3.642.181.051.363.094.569.143 1.335.315 3.554.847 5.42 3.023.73.074 1.466.123 2.2.126.28 0 .557-.009.835-.018-.458-2.88-.514-5.924-.029-7.957.124-.52.346-1.447.787-2.395.69-1.485 1.925-3.016 4.172-3.147-.26-.08-.521-.159-.783-.234.27.07.533.142.783.22.06-.004.114-.015.175-.016.156-.315.314-.61.478-.893a10.294 10.294 0 011.976-2.43 12.675 12.675 0 00-2.395-1.23" fill="#575961" fill-rule="nonzero"/><path d="M20.357 27.889c.534.041 1.07.076 1.604.078.323.002.644-.01.964-.023-.022-.121-.05-.24-.071-.363-.02-.12-.036-.242-.055-.363-.277.009-.555.017-.835.017a22.494 22.494 0 01-2.2-.125c.203.236.4.5.593.779" fill="#C4C4C4" fill-rule="nonzero"/><path d="M12.698 24.551l.002.012.017.005c-.006-.006-.013-.01-.019-.017" fill="#FFF" fill-rule="nonzero"/><path d="M49.271 22.143c-.893 2.116-3.678 3.506-7.387 2.425-3.71-1.081-6.6-4.112-5.308-8.082 1.294-3.97 6.63-4.264 10.201-2.293 3.572 1.971 3.204 6.268 2.494 7.95" fill-opacity=".2" fill="#EEE" fill-rule="nonzero"/><path d="M48.516 37.184c-.272.463-.571 1.073-.804 1.487a40.88 40.88 0 00-1.561 3.071l-17.843-5.07s-.524-1.862-1.256-4.08c2.06.996 7.27 3.286 11.257 4.1 4.297.877 8.393.613 10.207.492" fill="#444650" fill-rule="nonzero"/><path d="M27.505 44.53c-.19.61.169 1.253.8 1.438l16.135 4.691c.68.199 1.395-.175 1.6-.831l1.403-4.498c.205-.657-.181-1.35-.863-1.548l-16.13-4.69c-.632-.183-1.3.162-1.49.772l-1.455 4.667" fill="#72747D" fill-rule="nonzero"/><path d="M15.478 47.337a1.22 1.22 0 001.22 1.219h3.938a1.22 1.22 0 001.22-1.22v-6.852a1.22 1.22 0 00-1.22-1.22h-3.938a1.22 1.22 0 00-1.22 1.22v6.853z" fill="#444650" fill-rule="nonzero"/><path d="M21.854 49.22h4.855l-.125-.037H21.67c.062.01.12.037.184.037" fill="#E84C3D" fill-rule="nonzero"/><path d="M24.282 48.514a2.943 2.943 0 01-1.349-.85 2.97 2.97 0 01-.682-2.833l1.36-4.74.43-1.498h-3.455c-.673 0-1.218.545-1.219 1.218v8.153c0 .218.077.42.186.607.052.089.097.181.171.256.229.227.539.357.862.357h5.998l-2.302-.67z" fill="#575961" fill-rule="nonzero"/><path d="M18.42 40.947a.19.19 0 01.085.021l2.622 1.35c.093.048.13.161.082.254a.189.189 0 01-.254.081l-2.622-1.35a.19.19 0 01-.082-.254.19.19 0 01.168-.102" fill="#72747D" fill-rule="nonzero"/><path d="M21.143 40.888a.19.19 0 01.08.36l-2.72 1.3a.188.188 0 01-.161-.34l2.72-1.302a.195.195 0 01.08-.018m-2.946 2.134c.03 0 .063.008.092.024l2.57 1.446a.19.19 0 01-.184.33l-2.571-1.447a.19.19 0 01.093-.353" fill="#72747D" fill-rule="nonzero"/><path d="M20.92 43.064c.073 0 .142.042.173.114a.187.187 0 01-.098.247l-2.767 1.199a.187.187 0 01-.247-.098.188.188 0 01.098-.248l2.766-1.198a.184.184 0 01.075-.016m-2.835 2.068c.03 0 .063.008.092.024l2.57 1.446a.189.189 0 11-.185.329l-2.57-1.446a.19.19 0 01.093-.353" fill="#72747D" fill-rule="nonzero"/><path d="M20.809 45.174c.073 0 .142.042.173.114a.187.187 0 01-.098.247l-2.766 1.199a.187.187 0 01-.248-.098.188.188 0 01.098-.248l2.766-1.198a.184.184 0 01.075-.016" fill="#72747D" fill-rule="nonzero"/></g></svg>