<svg width="60" height="60" xmlns="http://www.w3.org/2000/svg"><g fill="none" fill-rule="evenodd"><path d="M0 0h60v60H0z"/><path d="M13.52 26.586a8.164 8.164 0 10-.18 16.327 8.164 8.164 0 00.18-16.327m0-2.357c5.81 0 10.52 4.71 10.52 10.52s-4.71 10.52-10.52 10.52S3 40.559 3 34.749s4.71-10.52 10.52-10.52" fill="#3A3C61" fill-rule="nonzero"/><path d="M13.52 26.585a8.164 8.164 0 100 16.328 8.164 8.164 0 000-16.328m0-.977a9.141 9.141 0 11-.001 18.282 9.141 9.141 0 110-18.282" fill="#352A54" fill-rule="nonzero"/><path d="M13.52 36.53c.98 0 1.782-.8 1.782-1.782 0-.98-.801-1.782-1.782-1.782s-1.782.801-1.782 1.782.8 1.782 1.782 1.782" fill="#352A54" fill-rule="nonzero"/><path d="M46.48 26.586a8.164 8.164 0 10-.18 16.327 8.164 8.164 0 00.18-16.327m0-2.357c5.81 0 10.52 4.71 10.52 10.52s-4.71 10.52-10.52 10.52-10.52-4.71-10.52-10.52 4.71-10.52 10.52-10.52" fill="#3A3C61" fill-rule="nonzero"/><path d="M46.48 26.585a8.164 8.164 0 10.002 16.328 8.164 8.164 0 00-.001-16.328m0-.977a9.14 9.14 0 110 18.28 9.14 9.14 0 010-18.28" fill="#352A54" fill-rule="nonzero"/><path d="M46.48 36.53c.982 0 1.782-.8 1.782-1.782 0-.98-.8-1.782-1.782-1.782-.98 0-1.782.801-1.782 1.782s.801 1.782 1.782 1.782" fill="#352A54" fill-rule="nonzero"/><path d="M25.554 35.578l-2.33-9.555-8.491 8.227 10.82 1.328h.001zm-2.701-11.08l-.911-3.737 1.434-.1.197.808 16.115-.818-1.037-2.724 1.579-.442 1.22 3.087.523 1.321 5.075 12.841-.84.457-5.49-11.83-10.684 13.36-1.578-1.044 10.676-13.654-15.244.74 3.124 12.815 1.372.559v1.73l-15.3-2.351c-1.12-.172-.623-.897.006-1.577l9.763-9.441z" fill="#509CF3" fill-rule="nonzero"/><path d="M26.027 37.563l-12.944-2.048c-.55-.086-.709-.305-.655-.585l13.121 1.886.478.747zm20.6-2.6L40.883 22.45l-10.52 12.87-.746 1.125 1.098-.579L40.72 23.362l5.489 11.83.418-.229z" fill="#3E74B5" fill-rule="nonzero"/><path d="M27.841 40.566a3.235 3.235 0 003.229-3.229 3.235 3.235 0 00-3.229-3.229 3.235 3.235 0 00-3.229 3.23 3.235 3.235 0 003.23 3.228" fill="#352A54" fill-rule="nonzero"/><path d="M27.843 34.04c.91 0 1.733.37 2.33.966s.966 1.42.966 2.33c0 .912-.369 1.737-.966 2.333a3.283 3.283 0 01-2.331.966c-1.29 0-7.265-1.825-11.336-3.067a170.76 170.76 0 00-3.349-1.004 1.852 1.852 0 01.654-3.644l.307.025-.133.127-.191-.015a1.713 1.713 0 00-.607 3.371l.054.012v.005c.67.186 1.87.553 3.306.99 4.062 1.242 10.024 3.062 11.295 3.062a3.15 3.15 0 002.234-.926A3.15 3.15 0 0031 37.337a3.153 3.153 0 00-3.16-3.16l-12.041-.96.131-.128 11.912.95.001.001z" fill="#2A2243" fill-rule="nonzero"/><path fill="#3E74B5" fill-rule="nonzero" d="M23.888 22.762l15.244-.739v-.42l-14.802.74z"/><path d="M38.616 17.646l-.843-2.22c-.12-.311-.045-.5.35-.5h4.473l.543 1.23h-3.62l.642 1.82-1.545-.33z" fill="#509CF3" fill-rule="nonzero"/><path d="M38.616 17.646l1.587-.452a.28.28 0 01.343.191l.1.351a.279.279 0 01-.191.343l-1.587.451a.277.277 0 01-.343-.19l-.1-.35a.279.279 0 01.191-.344" fill="#3A3C61" fill-rule="nonzero"/><path d="M41.714 15.127a.654.654 0 11.901-.947l2.23 2.117c.713.676 1.021 1.502 1.021 2.29 0 .378-.073.748-.207 1.089-.132.341-.33.654-.581.92a2.55 2.55 0 01-1.874.809h-4.113a.655.655 0 010-1.31h4.113c.374 0 .695-.156.926-.4.132-.139.238-.308.31-.495.075-.19.114-.397.114-.613 0-.455-.183-.937-.61-1.342l-2.23-2.118z" fill="#352A54" fill-rule="nonzero"/><path fill="#509CF3" fill-rule="nonzero" d="M22.355 20.732l-.418-.29-.467-2.096.38-.74.849.753.45 2.02z"/><path d="M21.82 20.45l1.69-.087a.278.278 0 01.29.264l.02.363a.279.279 0 01-.264.293l-1.69.086a.278.278 0 01-.29-.263l-.02-.365a.279.279 0 01.263-.291" fill="#3A3C61" fill-rule="nonzero"/><path d="M17.733 15.853c-.143-.389.085-.774.488-.617 3.46 1.34 5.137.732 7.75 1.335.704.072 2.002 1.024.674 1.026-1.075.002-2.175.104-3.085.523-2.048.946-3.906.835-5.827-2.267" fill="#352A54" fill-rule="nonzero"/><path d="M27.841 38.247a.91.91 0 10-.909-.91c0 .501.409.91.91.91" fill="#2A2243" fill-rule="nonzero"/><path d="M27.386 37.24a.412.412 0 01.487-.316l4.684 1.01-.174.801-4.682-1.009a.41.41 0 01-.315-.487" fill="#3E74B5" fill-rule="nonzero"/><path d="M31.563 38.162l2.233-.406a.16.16 0 01.185.128l.103.562a.16.16 0 01-.128.186l-2.234.406a.16.16 0 01-.186-.128l-.102-.563a.16.16 0 01.129-.185" fill="#352A54" fill-rule="nonzero"/></g></svg>