<svg width="60" height="60" viewBox="0 0 60 60" fill="none" xmlns="http://www.w3.org/2000/svg">
<path d="M47.3227 32.1826V37.3869H44.73H42.5915L39.7812 34.5766L37.3872 32.1826H44.4839H47.3227Z" fill="#1E1D21"/>
<path d="M47.3227 23.1934V28.3977H44.4839H37.3872L39.7812 26.0037L42.5915 23.1934H44.73H47.3227Z" fill="#1E1D21"/>
<path d="M48.2691 28.3984V32.1834H47.3229H44.4841V28.3984H47.3229H48.2691Z" fill="#999BA4"/>
<path d="M34.0754 28.3984V32.1834H31.2367L28.8711 30.2909L31.2367 28.3984H34.0754Z" fill="#1E1D21"/>
<path d="M44.4838 28.3984V32.1834H37.3871H34.5483H34.0752V28.3984H34.5483H37.3871H44.4838Z" fill="#888A92"/>
<path d="M34.5483 32.3535C33.7818 33.9337 32.1638 35.0219 30.2903 35.0219C27.6786 35.0219 25.5591 32.9023 25.5591 30.2907C25.5591 27.679 27.6786 25.5596 30.2903 25.5596C32.1638 25.5596 33.7819 26.6477 34.5483 28.2279V28.3983H34.0752H31.2365L28.8709 30.2908L31.2365 32.1833H34.0752H34.5483V32.3535Z" fill="#888A92"/>
<path d="M39.7811 34.5776C38.1441 38.1828 34.5106 40.6998 30.2904 40.6998C24.5373 40.6998 19.8818 36.0443 19.8818 30.2912C19.8818 29.5721 19.9575 28.8719 20.0899 28.1905C21.0646 23.4499 25.2564 19.8826 30.2904 19.8826C34.5106 19.8826 38.1441 22.3996 39.7811 26.0048L42.5915 23.1945H44.7299C42.1089 17.867 36.6302 14.2051 30.2904 14.2051C21.8689 14.2051 14.9614 20.6774 14.2706 28.919C14.2233 29.3732 14.2043 29.8274 14.2043 30.2911C14.2043 39.1763 21.4052 46.3772 30.2904 46.3772C36.6302 46.3772 42.1089 42.7152 44.7299 37.3879H42.5915L39.7811 34.5776Z" fill="#999BA4"/>
<path d="M39.781 26.0039L37.3871 28.3978H34.5484V28.2275C33.7819 26.6473 32.1639 25.5591 30.2903 25.5591C27.6787 25.5591 25.5591 27.6787 25.5591 30.2903C25.5591 32.902 27.6786 35.0215 30.2903 35.0215C32.1638 35.0215 33.7819 33.9334 34.5483 32.3532V32.1828H37.387L39.7809 34.5768C38.1439 38.182 34.5104 40.699 30.2902 40.699C24.5371 40.699 19.8816 36.0435 19.8816 30.2904C19.8816 29.5713 19.9573 28.8711 20.0897 28.1898C21.0643 23.4491 25.2562 19.8818 30.2902 19.8818C34.5105 19.8818 38.144 22.3987 39.781 26.0039Z" fill="#383C43"/>
<path d="M30.2903 9C42.0521 9 51.5807 18.5286 51.5807 30.2903C51.5807 42.0521 42.0521 51.5807 30.2903 51.5807C18.5286 51.5807 9 42.0521 9 30.2903C9 18.5286 18.5286 9 30.2903 9ZM48.2688 32.1828V28.3979H47.3225V23.1936H44.7299C42.1088 17.8663 36.6301 14.2043 30.2903 14.2043C21.8688 14.2043 14.9613 20.6766 14.2705 28.9183C14.2232 29.3724 14.2043 29.8266 14.2043 30.2903C14.2043 39.1755 21.4052 46.3764 30.2903 46.3764C36.6301 46.3764 42.1088 42.7144 44.7299 37.3871H47.3225V32.1828H48.2688Z" fill="#43474B"/>
<path d="M14.2706 28.9184C14.2233 29.3725 14.2043 29.8267 14.2043 30.2904C14.2043 39.1756 21.4052 46.3765 30.2904 46.3765C34.5876 46.3765 38.4859 44.6904 41.3702 41.9473C39.4577 41.1335 37.6313 40.16 35.8959 39.056C34.2772 40.0936 32.355 40.6991 30.2903 40.6991C24.5372 40.6991 19.8817 36.0436 19.8817 30.2905C19.8817 29.5714 19.9574 28.8712 20.0899 28.1899C20.4303 26.534 21.17 25.0271 22.1942 23.7596C21.292 21.9191 20.5372 19.9942 19.9398 18C16.7695 20.6743 14.6376 24.5404 14.2706 28.9184Z" fill="#888A92"/>
<path d="M30.2903 46.3771C21.4052 46.3771 14.2043 39.1762 14.2043 30.2911C14.2043 29.8274 14.2232 29.3732 14.2705 28.919C14.6374 24.5411 16.7694 20.6749 19.9398 18.0004C19.3985 16.1935 18.9899 14.3299 18.7221 12.4199C12.8721 16.2136 9 22.7966 9 30.2911C9 42.0528 18.5286 51.5814 30.2903 51.5814C36.9334 51.5814 42.8628 48.5407 46.7667 43.7759C44.9086 43.3004 43.1064 42.6865 41.3702 41.9479C38.4858 44.691 34.5875 46.3771 30.2903 46.3771Z" fill="#383C43"/>
<path d="M39.7812 34.5771C38.9451 36.4185 37.586 37.973 35.896 39.0563C37.6313 40.1603 39.4576 41.1338 41.3703 41.9476C42.7412 40.6437 43.8856 39.1038 44.7301 37.3876H42.5916L39.7812 34.5771Z" fill="#AFB6BB"/>
<path d="M45.4301 25.3232H43.5376V26.7426H45.4301V25.3232Z" fill="white"/>
<path d="M45.4301 33.8398H43.5376V35.2592H45.4301V33.8398Z" fill="white"/>
</svg>
