<svg width="30" height="30" xmlns="http://www.w3.org/2000/svg"><g fill="none"><circle fill="#F56E14" cx="13.399" cy="12.268" r="10.268"/><path d="M16.723 2.55A10.275 10.275 0 013.68 15.592 10.27 10.27 0 1016.723 2.55z" fill="#B7520E"/><path d="M21.904 18.024c1.384-5.809-1.283-8.838-3.005-10.908-.645-.776-1.217-1.463-1.55-2.148 1.918.097 3.334.801 4.56 1.551a10.314 10.314 0 00-1.014-1.267c-1.164-.551-2.385-.899-3.786-.933a3.012 3.012 0 01.062-1.602v-.002a9.874 9.874 0 00-.593-.213 3.598 3.598 0 00-.113 1.823c-.97.05-1.93.214-2.861.49-1.12-1.381-2.166-2.203-2.62-2.529-.271.066-.538.142-.8.228l.229.145c.014.008 1.204.767 2.539 2.357-.652.215-1.619.529-3.073 1.483-1.406-1.276-3.05-1.328-4.004-1.217-.229.246-.445.503-.65.771l.048-.015c.024-.007 2.27-.69 4.072.83-3.613 2.622-5.102 6.352-5.621 8.845.132.372.286.736.461 1.09.068-.647.77-6.028 5.615-9.485.85 1.007.587 2.069.17 3.758-.594 2.399-1.403 5.672.459 11.024.242.073.487.137.737.192-1.902-5.32-1.264-8.32-.585-11.065.414-1.675.747-3.024-.258-4.264 1.41-.908 2.388-1.212 3.053-1.42 3.194 4.163 3.379 8.64 3.286 11.205l.63.022c.08-2.216.051-6.946-3.267-11.413a11.49 11.49 0 012.63-.397c.344.856 1.004 1.65 1.759 2.559 1.943 2.336 4.361 5.244 2.682 11.1l.808-.595z" fill="#303030"/><path d="M27.527 19.98c.198-.567.35-1.15.454-1.74a1.255 1.255 0 00-.514-1.242 11.187 11.187 0 00-1.553-.91l.377 1.946 1.236 1.946z" fill="#B56959"/><path d="M12.413 27.05a11.176 11.176 0 01-2.493-1.342 1.257 1.257 0 01-.505-1.22 11.17 11.17 0 01.81-2.705l1.63 2.634.558 2.634z" fill="#A85B4A"/><path d="M14.157 27.565c1.853.385 4.159.36 6.772-.722 3.046-1.262 4.797-3.253 5.802-5.075l-.817-3.465-1.823-2.915c-2-.579-4.647-.75-7.695.513-2.613 1.083-4.26 2.696-5.3 4.278l1.095 3.868 1.966 3.518z" fill="#B56959"/><path d="M21.302 25.606a8.033 8.033 0 01-8.03-7.849 10.852 10.852 0 00-2.175 2.422l1.094 3.868 1.966 3.518c1.853.385 4.159.36 6.772-.722a12.426 12.426 0 002.833-1.621 8.027 8.027 0 01-2.46.384z" fill="#A85B4A"/><path d="M24.088 15.388l2.642 6.38c.316-.573.582-1.171.797-1.789l-1.612-3.89c-.588-.285-1.2-.52-1.827-.701zm-1.252 1.794c-.688.113-1.385.265-2.092.455l-.206-.499c-.16-.385-.742-.144-.583.241l.179.43c-.74.22-1.484.48-2.234.781l-.172-.415c-.16-.386-.742-.144-.583.241l.172.415c-.74.317-1.451.66-2.131 1.028l-.178-.43c-.16-.386-.742-.143-.583.24l.207.5c-.421.242-.827.494-1.22.755-.35.234.008.753.35.524.358-.238.73-.47 1.113-.692l.237.572c.16.384.743.145.582-.242l-.266-.642a25.099 25.099 0 012.13-1.03l.274.66c.16.384.743.146.582-.241l-.273-.66c.75-.301 1.495-.56 2.235-.778l.266.642c.16.385.742.145.582-.241l-.237-.572a20.947 20.947 0 011.95-.42c.412-.067.31-.689-.101-.622z" fill="#FAFAFA"/><path d="M12.405 27.047c.569.22 1.155.394 1.752.518l-3.06-7.386c-.334.51-.626 1.047-.872 1.604l2.18 5.264z" fill="#E0E0E0"/><circle fill="#FAFAFA" cx="6.4" cy="22.204" r="4.4"/><path d="M8.381 18.275A6.228 6.228 0 012.27 23.72a4.4 4.4 0 106.112-5.445z" fill="#000" opacity=".1"/><path d="M9.639 19.228a5.418 5.418 0 00-.63.952l-.357-.354c-.296-.295-.74.153-.444.447l.509.505a9.128 9.128 0 00-.461 1.323l-.543-.062c-.414-.049-.486.578-.072.626l.471.054c-.095.481-.157.969-.184 1.46l-.49.147c-.4.12-.215.723.183.603l.29-.087c.003.488.033.976.09 1.461.208-.081.41-.179.603-.29a11.168 11.168 0 01-.06-1.362l.673-.203c.4-.121.216-.724-.183-.604l-.457.138c.032-.4.09-.797.17-1.19l.527.06c.414.048.487-.578.073-.625l-.45-.052c.086-.31.19-.613.309-.91l.213.21c.292.291.744-.149.444-.446l-.38-.379c.156-.322.342-.628.557-.915a4.423 4.423 0 00-.401-.507zm-5.885.761l-.46.283c-.358.221-.02.753.331.537l.26-.16c.048.318.08.638.093.96l-.453-.053c-.414-.047-.486.579-.072.626l.53.061c-.01.402-.046.802-.106 1.199l-.416-.24c-.361-.208-.675.339-.314.547l.61.35c-.097.445-.22.883-.37 1.313.164.153.338.293.523.42.165-.46.305-.928.42-1.403l.261.151c.358.206.68-.336.315-.546l-.443-.255c.085-.483.137-.972.153-1.463l.47.054c.414.048.487-.578.073-.626l-.542-.062a9.162 9.162 0 00-.149-1.393l.61-.377c.355-.219.025-.755-.33-.536l-.428.264a5.443 5.443 0 00-.397-1.07 4.424 4.424 0 00-.506.402c.145.327.258.668.337 1.017z" fill="#F33A40"/></g></svg>