<svg width="60" height="60" viewBox="0 0 60 60" fill="none" xmlns="http://www.w3.org/2000/svg">
<g clip-path="url(#clip0_845_79095)">
<mask id="mask0_845_79095" style="mask-type:alpha" maskUnits="userSpaceOnUse" x="8" y="8" width="44" height="44">
<path fill-rule="evenodd" clip-rule="evenodd" d="M52 30C52 42.15 42.15 52 30 52C17.85 52 8 42.15 8 30C8 17.85 17.85 8 30 8C42.15 8 52 17.85 52 30" fill="#4EBAFF"/>
</mask>
<g mask="url(#mask0_845_79095)">
<path fill-rule="evenodd" clip-rule="evenodd" d="M52 30C52 42.15 42.15 52 30 52C17.85 52 8 42.15 8 30C8 17.85 17.85 8 30 8C42.15 8 52 17.85 52 30" fill="#43474B"/>
<rect x="7" y="38.7002" width="44" height="17" fill="#43474B"/>
<path fill-rule="evenodd" clip-rule="evenodd" d="M23.8238 38.942C23.1958 39.386 22.1018 39.386 21.4718 38.942L21.2258 38.769C19.8798 37.819 17.5338 37.819 16.1878 38.769L15.9648 38.926C15.3168 39.383 14.2608 39.383 13.6128 38.926L13.3308 38.727C12.0208 37.803 9.94878 37.765 8.55078 38.583C8.64778 39.011 8.75678 39.435 8.87878 39.854C9.14978 39.872 9.42878 39.822 9.63678 39.675C10.2858 39.218 11.3398 39.218 11.9878 39.675L12.2708 39.875C13.6598 40.854 15.9198 40.854 17.3088 39.875L17.5328 39.717C18.1598 39.273 19.2548 39.273 19.8838 39.717L20.1298 39.89C20.8018 40.364 21.6958 40.627 22.6478 40.627C23.5998 40.627 24.4938 40.366 25.1678 39.89C25.5398 39.628 25.5398 39.204 25.1678 38.942C24.7968 38.68 24.1938 38.68 23.8238 38.942" fill="#43474B"/>
<path fill-rule="evenodd" clip-rule="evenodd" d="M39.273 38.942C38.645 39.386 37.551 39.386 36.921 38.942L36.675 38.769C35.329 37.819 32.983 37.819 31.637 38.769L31.414 38.926C30.766 39.383 29.71 39.383 29.062 38.926L28.78 38.727C27.47 37.803 25.398 37.765 24 38.583C24.097 39.011 24.206 39.435 24.328 39.854C24.599 39.872 24.878 39.822 25.086 39.675C25.735 39.218 26.789 39.218 27.437 39.675L27.72 39.875C29.109 40.854 31.369 40.854 32.758 39.875L32.982 39.717C33.609 39.273 34.704 39.273 35.333 39.717L35.579 39.89C36.251 40.364 37.145 40.627 38.097 40.627C39.049 40.627 39.943 40.366 40.617 39.89C40.989 39.628 40.989 39.204 40.617 38.942C40.246 38.68 39.643 38.68 39.273 38.942" fill="#43474B"/>
<path fill-rule="evenodd" clip-rule="evenodd" d="M55.273 38.942C54.645 39.386 53.551 39.386 52.921 38.942L52.675 38.769C51.329 37.819 48.983 37.819 47.637 38.769L47.414 38.926C46.766 39.383 45.71 39.383 45.062 38.926L44.78 38.727C43.47 37.803 41.398 37.765 40 38.583C40.097 39.011 40.206 39.435 40.328 39.854C40.599 39.872 40.878 39.822 41.086 39.675C41.735 39.218 42.789 39.218 43.437 39.675L43.72 39.875C45.109 40.854 47.369 40.854 48.758 39.875L48.982 39.717C49.609 39.273 50.704 39.273 51.333 39.717L51.579 39.89C52.251 40.364 53.145 40.627 54.097 40.627C55.049 40.627 55.943 40.366 56.617 39.89C56.989 39.628 56.989 39.204 56.617 38.942C56.246 38.68 55.643 38.68 55.273 38.942" fill="#43474B"/>
<path fill-rule="evenodd" clip-rule="evenodd" d="M23.8238 37.942C23.1958 38.386 22.1018 38.386 21.4718 37.942L21.2258 37.769C19.8798 36.819 17.5338 36.819 16.1878 37.769L15.9648 37.926C15.3168 38.383 14.2608 38.383 13.6128 37.926L13.3308 37.727C12.0208 36.803 9.94878 36.765 8.55078 37.583C8.64778 38.011 8.75678 38.435 8.87878 38.854C9.14978 38.872 9.42878 38.822 9.63678 38.675C10.2858 38.218 11.3398 38.218 11.9878 38.675L12.2708 38.875C13.6598 39.854 15.9198 39.854 17.3088 38.875L17.5328 38.717C18.1598 38.273 19.2548 38.273 19.8838 38.717L20.1298 38.89C20.8018 39.364 21.6958 39.627 22.6478 39.627C23.5998 39.627 24.4938 39.366 25.1678 38.89C25.5398 38.628 25.5398 38.204 25.1678 37.942C24.7968 37.68 24.1938 37.68 23.8238 37.942" fill="#575961"/>
<path fill-rule="evenodd" clip-rule="evenodd" d="M39.273 37.942C38.645 38.386 37.551 38.386 36.921 37.942L36.675 37.769C35.329 36.819 32.983 36.819 31.637 37.769L31.414 37.926C30.766 38.383 29.71 38.383 29.062 37.926L28.78 37.727C27.47 36.803 25.398 36.765 24 37.583C24.097 38.011 24.206 38.435 24.328 38.854C24.599 38.872 24.878 38.822 25.086 38.675C25.735 38.218 26.789 38.218 27.437 38.675L27.72 38.875C29.109 39.854 31.369 39.854 32.758 38.875L32.982 38.717C33.609 38.273 34.704 38.273 35.333 38.717L35.579 38.89C36.251 39.364 37.145 39.627 38.097 39.627C39.049 39.627 39.943 39.366 40.617 38.89C40.989 38.628 40.989 38.204 40.617 37.942C40.246 37.68 39.643 37.68 39.273 37.942" fill="#575961"/>
<path fill-rule="evenodd" clip-rule="evenodd" d="M55.273 37.942C54.645 38.386 53.551 38.386 52.921 37.942L52.675 37.769C51.329 36.819 48.983 36.819 47.637 37.769L47.414 37.926C46.766 38.383 45.71 38.383 45.062 37.926L44.78 37.727C43.47 36.803 41.398 36.765 40 37.583C40.097 38.011 40.206 38.435 40.328 38.854C40.599 38.872 40.878 38.822 41.086 38.675C41.735 38.218 42.789 38.218 43.437 38.675L43.72 38.875C45.109 39.854 47.369 39.854 48.758 38.875L48.982 38.717C49.609 38.273 50.704 38.273 51.333 38.717L51.579 38.89C52.251 39.364 53.145 39.627 54.097 39.627C55.049 39.627 55.943 39.366 56.617 38.89C56.989 38.628 56.989 38.204 56.617 37.942C56.246 37.68 55.643 37.68 55.273 37.942" fill="#575961"/>
<path d="M34.6533 22.9002H31.8635L28.1737 22.4503C28.6237 20.3804 29.6136 17.2306 32.0435 16.4206C33.3034 15.9707 34.2033 14.7108 34.2033 13.3608C34.2033 13.0009 34.1134 12.7309 34.0234 12.3709C33.4833 10.751 31.5934 9.94109 29.9735 10.481C23.044 12.8209 21.6941 20.7404 21.6041 21.1004C21.5141 21.3703 21.5141 21.7303 21.5141 22.0003C21.5141 24.7001 22.414 25.6001 24.2139 25.6001H34.6532C35.3732 25.6001 36.0031 24.9701 36.0031 24.2501C36.0031 23.5302 35.3732 22.9002 34.6533 22.9002ZM19.8042 29.6498C19.8042 31.3597 21.2441 32.7996 22.954 32.7996C24.6639 32.7996 26.1038 31.3597 26.1038 29.6498C26.1038 27.9399 24.6639 26.5 22.954 26.5C21.2441 26.5 19.8042 27.9399 19.8042 29.6498Z" fill="#999BA4"/>
<path d="M19.8042 29.6499C19.8042 31.3598 21.2441 32.7997 22.954 32.7997C24.6639 32.7997 26.1038 31.3598 26.1038 29.6499C25.5 30 24.6639 30.0006 22.954 30.0006C21.2441 30.0006 20.5 29.5006 19.8042 29.6499Z" fill="#575961"/>
<path d="M32.4034 12.1016C31.4135 12.1016 30.6035 12.9115 30.6035 13.9014V33.7002C30.6035 34.6901 31.4135 35.5001 32.4034 35.5001C33.3933 35.5001 34.2033 34.6901 34.2033 33.7002V13.4515C34.2033 12.4616 33.3933 12.1016 32.4034 12.1016Z" fill="#999BA4"/>
<path d="M28.2635 22.0005H26.0137L28.6235 20.5605C28.5335 21.1005 28.3535 21.5505 28.2635 22.0005Z" fill="#606FC4"/>
<path d="M34.2034 13.3609C34.2034 13.0009 34.1134 12.7309 34.0234 12.3709C33.4834 10.751 31.5936 9.94109 29.9737 10.481C29.2537 10.751 28.5337 11.021 27.9038 11.381L30.6036 17.2306L34.2034 13.3609C34.2034 13.4509 34.2034 13.4509 34.2034 13.3609Z" fill="#383C43"/>
<path d="M30.6037 25.6002H34.2035V27.4H30.6037V25.6002ZM30.6037 21.1005V22.7204L31.8636 22.9003H34.2035V21.1005H30.6037ZM30.6037 17.2307L29.7038 15.3408C28.3538 16.4207 26.824 18.4906 26.104 21.9104L28.0839 22.3604C28.5339 20.8305 29.2538 18.5806 30.6037 17.2307Z" fill="#888A92"/>
</g>
</g>
<defs>
<clipPath id="clip0_845_79095">
<rect width="60" height="60" fill="white"/>
</clipPath>
</defs>
</svg>
