<svg width="60" height="60" xmlns="http://www.w3.org/2000/svg"><g fill="none" fill-rule="evenodd"><path d="M0 0h60v60H0z"/><path d="M24.136 15.845l-9.858 3.717a3.124 3.124 0 01.074-1.067c.475-2.029 2.835-4.094 6.361-4.48 1.151-.126 2.13.527 2.743 1.088.431.393.68.742.68.742" fill="#9E9EA2" fill-rule="nonzero"/><path d="M23.456 15.104c.431.393.68.742.68.742l-9.857 3.715a3.094 3.094 0 01.073-1.066c1.758-1.945 3.986-3.175 6.474-3.447a9.573 9.573 0 012.63.056" fill="#787A80" fill-rule="nonzero"/><path d="M35.903 15.858l9.85 3.738a3.117 3.117 0 00-.072-1.066c-.47-2.03-2.826-4.1-6.35-4.494-1.152-.129-2.132.522-2.746 1.082-.432.392-.682.74-.682.74" fill="#9E9EA2" fill-rule="nonzero"/><path d="M36.585 15.118c-.432.392-.682.74-.682.74l9.85 3.739a3.147 3.147 0 00-.07-1.067c-1.755-1.95-3.98-3.183-6.468-3.461a9.61 9.61 0 00-2.63.049" fill="#787A80" fill-rule="nonzero"/><path d="M45.633 45.632c-5.868-.006-5.859-8.956-9.77-8.96l-5.866-.007-5.869-.006c-3.91-.004-3.92 8.945-9.787 8.938-5.869-.006-9.8-16.743-1.93-24.597 2.927-2.921 8.042-4.754 12.892-5.466.276-.042.55-.079.824-.112a26.98 26.98 0 013.893-.27 26.873 26.873 0 013.891.279c.274.034.548.071.824.113 4.848.723 9.96 2.568 12.88 5.495 7.854 7.871 3.884 24.599-1.982 24.593" fill="#DCDBDD" fill-rule="nonzero"/><path d="M49.762 40.622c-1.088 2.62-2.632 4.183-4.128 4.181-2.733-.003-4.013-2.401-5.251-4.718-.967-1.813-1.963-3.678-3.69-4.134-.27-.073-.55-.11-.83-.109l-11.734-.013c-.294 0-.57.037-.83.105-1.727.455-2.727 2.317-3.698 4.128-1.241 2.314-2.526 4.709-5.26 4.706-1.495-.001-3.038-1.57-4.12-4.192-2.33-5.646-1.931-14.293 2.777-18.988 2.507-2.502 7.15-4.458 12.427-5.232.27-.041.535-.076.8-.109a26.433 26.433 0 013.795-.264c1.297.002 2.566.092 3.77.27.286.036.552.071.819.113 5.277.786 9.916 2.752 12.418 5.26 4.697 4.707 5.08 13.354 2.735 18.996" fill="#E9E9EA" fill-rule="nonzero"/><path d="M45.632 45.633c-5.422-.006-5.827-7.647-8.94-8.812a2.366 2.366 0 00-.83-.149l-5.866-.006-5.869-.007c-.299 0-.575.052-.83.149-3.116 1.161-3.539 8.796-8.957 8.791-3.71-.005-6.646-6.694-6.315-13.599.272 6.111 2.98 11.518 6.317 11.521 5.42.006 5.841-7.634 8.96-8.792a2.35 2.35 0 01.828-.147c3.911.005 7.823.01 11.734.013.297 0 .571.053.828.148 3.116 1.164 3.52 8.807 8.942 8.813 3.335.004 6.055-5.397 6.34-11.506.316 6.904-2.634 13.587-6.342 13.583" fill="#D2D1D2" fill-rule="nonzero"/><path d="M34.735 15.544a4.742 4.742 0 01-4.72 4.35 4.741 4.741 0 01-4.711-4.36c.276-.042.55-.079.824-.112 1.29-.184 2.59-.274 3.893-.269 1.23.002 2.542.08 3.89.278.274.035.548.072.824.114" fill="#90B5FF" fill-rule="nonzero"/><path d="M26.127 15.422a3.909 3.909 0 003.888 3.643 3.91 3.91 0 003.896-3.634 27.14 27.14 0 00-3.892-.279 27.243 27.243 0 00-3.892.27" fill="#017AC3" fill-rule="nonzero"/><path d="M24.056 26.585a5.772 5.772 0 10-11.543-.164 5.772 5.772 0 0011.543.164m23.564 0a5.772 5.772 0 10-11.542-.013 5.772 5.772 0 0011.543.013" fill="#CACBD0" fill-rule="nonzero"/><path d="M46.412 27.925a1.685 1.685 0 01-2.38-.003 1.685 1.685 0 01.003-2.38 1.685 1.685 0 012.38.003 1.685 1.685 0 01-.003 2.38" fill="#E4002A" fill-rule="nonzero"/><path d="M46.412 27.925a1.684 1.684 0 01-2.603-.278c.667.43 1.543.338 2.106-.222.56-.561.653-1.437.224-2.103a1.685 1.685 0 01.273 2.603" fill-opacity=".5" fill="#000" fill-rule="nonzero"/><path d="M39.774 27.917a1.685 1.685 0 01-2.38-.003 1.685 1.685 0 01.003-2.38 1.685 1.685 0 012.38.003 1.685 1.685 0 01-.003 2.38" fill="#FFAE24" fill-rule="nonzero"/><path d="M39.775 27.918a1.686 1.686 0 01-2.603-.278 1.684 1.684 0 002.33-2.325 1.687 1.687 0 01.273 2.603" fill-opacity=".5" fill="#000" fill-rule="nonzero"/><path d="M43.1 22.2a1.685 1.685 0 01-.004 2.38 1.685 1.685 0 01-2.38-.004 1.685 1.685 0 01.003-2.38 1.685 1.685 0 012.38.003" fill="#87DA50" fill-rule="nonzero"/><path d="M43.097 24.58a1.686 1.686 0 01-2.604-.28c.65.424 1.533.352 2.107-.22.56-.561.653-1.437.224-2.103a1.687 1.687 0 01.273 2.603" fill-opacity=".5" fill="#000" fill-rule="nonzero"/><path d="M43.092 28.838a1.685 1.685 0 01-.003 2.38 1.685 1.685 0 01-2.38-.003 1.685 1.685 0 01.003-2.38 1.685 1.685 0 012.38.003" fill="#B496F9" fill-rule="nonzero"/><path d="M43.09 31.217a1.684 1.684 0 01-2.603-.278c.65.422 1.534.35 2.106-.221.57-.568.645-1.45.226-2.103a1.685 1.685 0 01.271 2.602" fill-opacity=".5" fill="#000" fill-rule="nonzero"/><path d="M21.176 25.943l-1.46.004a.304.304 0 01-.305-.303l-.004-1.461a.305.305 0 00-.306-.303l-1.46.004a.303.303 0 00-.303.305l.004 1.46a.305.305 0 01-.304.305l-1.43.004a.304.304 0 00-.303.305l.004 1.46c0 .169.137.305.305.304l1.43-.004c.168 0 .305.136.305.304l.004 1.43c0 .168.137.303.305.303l1.46-.004a.305.305 0 00.304-.305l-.004-1.43a.303.303 0 01.303-.305l1.461-.004a.304.304 0 00.303-.305l-.004-1.461a.304.304 0 00-.305-.303" fill="#9DA0A1" fill-rule="nonzero"/><path d="M20.871 25.64l-1.46.004a.304.304 0 01-.305-.303l-.004-1.461a.305.305 0 00-.306-.303l-1.46.004a.303.303 0 00-.303.305l.004 1.46a.305.305 0 01-.304.305l-1.43.004a.304.304 0 00-.303.305l.004 1.46c0 .169.137.305.305.304l1.43-.004c.168 0 .305.136.305.304l.004 1.43c0 .168.137.304.305.303l1.46-.004a.305.305 0 00.304-.305l-.004-1.43a.303.303 0 01.303-.305l1.461-.004a.304.304 0 00.303-.305l-.004-1.461a.304.304 0 00-.305-.303" fill="#61626A" fill-rule="nonzero"/><path d="M32.934 32.863h-5.95a1.302 1.302 0 110-2.603h5.95a1.302 1.302 0 010 2.603" fill="#767679" fill-rule="nonzero"/><path d="M32.82 32.53h-5.717a.968.968 0 110-1.936h5.717a.968.968 0 110 1.936" fill="#454545" fill-rule="nonzero"/></g></svg>