<svg width="60" height="60" viewBox="0 0 60 60" fill="none" xmlns="http://www.w3.org/2000/svg">
<g clip-path="url(#clip0_1054_143649)">
<circle cx="30" cy="30" r="22" fill="#191B21"/>
<path fill-rule="evenodd" clip-rule="evenodd" d="M30 52C42.1503 52 52 42.1503 52 30C52 17.8497 42.1503 8 30 8C17.8497 8 8 17.8497 8 30C8 42.1503 17.8497 52 30 52ZM15.8032 35H10L17.5901 27.654C17.5901 27.654 20.1668 25 23.3757 25H43.5506L40.105 28.3852H25.4404C25.4404 28.3852 22.403 28.5979 20.9415 30C19.4801 31.4021 15.8032 35 15.8032 35ZM40.7383 35H34.6896L44.9207 25H51L40.7383 35ZM22.6813 35H17.3499C17.3499 35 20.4261 31.8999 21.7554 30.6401C23.0846 29.3803 25.5512 29.3434 25.5512 29.3434H39.0292L35.5019 32.8118H26.172C24.7816 32.8118 24.0535 33.613 24.0535 33.613L22.6813 35Z" fill="#575961"/>
<mask id="mask0_1054_143649" style="mask-type:luminance" maskUnits="userSpaceOnUse" x="8" y="8" width="44" height="44">
<path fill-rule="evenodd" clip-rule="evenodd" d="M30 52C42.1503 52 52 42.1503 52 30C52 17.8497 42.1503 8 30 8C17.8497 8 8 17.8497 8 30C8 42.1503 17.8497 52 30 52ZM15.8032 35H10L17.5901 27.654C17.5901 27.654 20.1668 25 23.3757 25H43.5506L40.105 28.3852H25.4404C25.4404 28.3852 22.403 28.5979 20.9415 30C19.4801 31.4021 15.8032 35 15.8032 35ZM40.7383 35H34.6896L44.9207 25H51L40.7383 35ZM22.6813 35H17.3499C17.3499 35 20.4261 31.8999 21.7554 30.6401C23.0846 29.3803 25.5512 29.3434 25.5512 29.3434H39.0292L35.5019 32.8118H26.172C24.7816 32.8118 24.0535 33.613 24.0535 33.613L22.6813 35Z" fill="white"/>
</mask>
<g mask="url(#mask0_1054_143649)">
</g>
</g>
<defs>
<clipPath id="clip0_1054_143649">
<rect width="60" height="60" fill="white"/>
</clipPath>
</defs>
</svg>
