<svg width="60" height="60" xmlns="http://www.w3.org/2000/svg"><g fill="none" fill-rule="evenodd"><path d="M0 0h60v60H0z"/><path d="M23.288 8.148l4.48 4.927a.45.45 0 00.558.087l7.806-4.506a.45.45 0 01.675.401l-.181 7.028a.45.45 0 00.416.461l7.986.606a.45.45 0 01.31.74l-4.93 5.824a.45.45 0 00-.023.55l3.515 4.983a.45.45 0 01-.323.707l-7.7.764a.45.45 0 00-.405.432l-.264 7.728a.45.45 0 01-.812.252l-4.054-5.5a.45.45 0 00-.68-.052l-6.053 6.046a.45.45 0 01-.76-.229l-2.17-10.747a.45.45 0 00-.496-.358l-5.856.72a.45.45 0 01-.414-.718l4.16-5.515a.45.45 0 00-.013-.559l-4.222-5.05a.45.45 0 01.357-.74l7.713.194a.451.451 0 00.462-.442l.135-7.739a.45.45 0 01.783-.295" fill="#CCC" fill-rule="nonzero"/><path d="M3 41.106c.044-2.07 4.591-5.29 6.663-5.334 2.071-.044 6.271 4.35 6.45 6.451.18 2.101-3.232 6.841-5.334 6.662-2.102-.179-7.823-5.708-7.779-7.779" fill="#666870" fill-rule="nonzero"/><path d="M14.56 46.059c.96-1.347 1.635-2.87 1.553-3.836-.179-2.102-4.379-6.494-6.45-6.451-1.043.023-2.714.85-4.12 1.93 1.427 2.457 5.115 6.669 9.017 8.357" fill="#666870" fill-rule="nonzero"/><path d="M30.793 33.878c0-5.326-6.302-14.248-13.052-13.47-2.154.249-4.468 1.506-6.654 4.11-1.351-.317-2.774.11-4.105 1.442-2.192 2.192-1.827 7.83-1.146 10.195C7 40.198 13.126 45.4 16.384 45.572c3.968.209 14.409-5.43 14.409-11.694" fill="#83858C" fill-rule="nonzero"/><path d="M8.978 30.073c-.018-.06-.708-2.974.515-5.579a3.662 3.662 0 011.594.024c1.022-1.218 2.072-2.142 3.122-2.804-1.464 1.381-3.163 3.557-3.853 5.107-.952 2.138-1.365 3.22-1.378 3.252" fill="#666870" fill-rule="nonzero"/><path d="M19.661 22.563c3.94.414 12.68 8.094 8.076 14.164-2.625 3.462-8.076-4.194-9.688-6.634-1.873-2.834-4.34-8.155 1.612-7.53" fill-opacity=".7" fill="#ADAFB5" fill-rule="nonzero"/><path d="M58 41.106c-.044-2.07-4.592-5.29-6.663-5.334-2.071-.044-6.271 4.35-6.45 6.451-.18 2.101 3.232 6.841 5.334 6.662 2.102-.179 7.823-5.708 7.779-7.779" fill="#666870" fill-rule="nonzero"/><path d="M46.356 45.94c-.914-1.317-1.549-2.78-1.47-3.717.18-2.102 4.38-6.495 6.451-6.451 1.06.023 2.77.877 4.192 1.984-1.594 2.565-5.308 6.667-9.173 8.184" fill="#666870" fill-rule="nonzero"/><path d="M30.207 33.878c0-5.326 6.302-14.248 13.052-13.47 2.154.249 4.468 1.506 6.654 4.11 1.351-.317 2.774.11 4.105 1.442 2.192 2.192 1.827 7.83 1.146 10.195C54 40.198 47.875 45.4 44.616 45.572c-3.968.209-14.409-5.43-14.409-11.694" fill="#83858C" fill-rule="nonzero"/><path d="M40.76 22.362c-3.975.648-11.618 8.263-7.672 12.933 2.588 3.062 8.236-3.715 9.645-5.899 1.744-2.703 3.736-7.965-1.974-7.034" fill-opacity=".7" fill="#ADAFB5" fill-rule="nonzero"/><path d="M39.635 40.447c-.58 1.01-.26 2.243.792 3.176.12.105.205.025.125-.11-.196-.328-.486-1.904.675-3.301.507-.61-1.1-.507-1.592.235" fill="#666870" fill-rule="nonzero"/><path d="M38.873 40.006c2.592-.744 7.619-5.72 7.898-7.669 0 .01 2.313 1.218 2.328 1.183-2.188 2.53-6.225 6.56-8.893 7.326-1.735.498-3.602.28-5.248-.439-.093-.04-.052-.182.05-.165 1.211.212 2.533.147 3.865-.236" fill="#666870" fill-rule="nonzero"/><path d="M49.853 24.551c-2.375.476-4.911 2.608-4.691 5.213.21 2.491 3.323 5.514 6.2 3.53 1.567-1.079.683-3.054 2.526-2.297-1.616-1.34-1.712.544-2.884 1.37-1.088.767-2.152.644-3.224-.143-1.6-1.175-1.903-2.619-1.465-3.969.496-1.533 1.947-2.944 3.538-3.704" fill="#666870" fill-rule="nonzero"/><path d="M52.027 26.489c1.315-1.315-1.706-2.033-2.81-.647-1.107 1.389 2.08 1.376 2.81.647" fill-opacity=".7" fill="#ADAFB5" fill-rule="nonzero"/></g></svg>