<svg width="60" height="60" xmlns="http://www.w3.org/2000/svg"><g fill="none" fill-rule="evenodd"><path d="M0 0h60v60H0z"/><circle cx="22" cy="22" r="22" transform="translate(8 8)" fill="#666870" fill-rule="nonzero"/><path d="M30 8c2.858 0 5.589.545 8.094 1.537 6.31 3.867 10.521 10.827 10.521 18.771 0 12.15-9.85 22-22 22-2.858 0-5.589-.545-8.094-1.537C12.211 44.904 8 37.944 8 30 8 17.85 17.85 8 30 8z" fill="#83858C" fill-rule="nonzero"/><path d="M36.66 45.882l2.868 3.954c-.182.087-.364.171-.548.254l-2.799-3.859.479-.349zm-7.208-1.095l.32.498-.224.136-.127.071-.285.15-.326.161-.178.084-.388.176-.428.186-.72.298-.814.32-.905.344-1 .367-1.091.39-.78.273-1.684.577-1.409.472c-.232-.128-.462-.26-.69-.396l1.032-.342 1.223-.412 1.145-.393 1.404-.493.963-.347 1.16-.432.78-.3.7-.282.812-.344.517-.234.301-.146.137-.069.248-.132.213-.123.094-.058zM11.744 30.972l.591.034c-.083 1.44-.141 2.81-.174 4.106l-.025 1.272c-.03 2.287.022 4.332.16 6.133l.039.485-.078.007c-.2-.27-.392-.546-.579-.826-.188-2.732-.19-5.995-.009-9.787l.075-1.424zm38.631 4.234l.326.495c-.298.196-.626.398-.985.607l-.56.318a35.39 35.39 0 01-.608.329l-.653.338-.699.35-.744.358-.791.37-.837.378-.883.39-.93.4-.481.203-.23-.546.944-.401.899-.391.852-.381.408-.187.783-.365.737-.355.691-.344.328-.168.622-.33c.1-.053.197-.107.293-.16l.552-.313c.265-.154.512-.304.742-.45l.224-.145zM18.75 28.382l1.736 1.745 1.287 1.278 1.481 1.451 1.083 1.044.753.713.7.655.651.596.6.536.37.325.513.438.314.26.29.233.269.206.245.18.222.155.102.067-.32.498-.105-.069-.229-.158-.25-.184-.274-.21-.296-.237-.32-.263-.34-.289-.364-.315-.588-.522-.864-.787-.706-.659-1.022-.97-1.113-1.077-1.204-1.18-1.633-1.625-1.41-1.418.422-.417zm19.98-7.362l.589.063c-.48 4.442-1.149 8.533-2.009 12.273l-.202.856-.576-.139c.884-3.661 1.579-7.675 2.085-12.04l.113-1.013zm6.13-2.603c2.425 2.528 4.459 5.097 6.1 7.71l.371.604-.507.306c-1.559-2.583-3.507-5.127-5.845-7.632l-.546-.578.427-.41zM10.05 25.69v.592H8.313c.034-.199.07-.396.109-.592h1.628zm22.009-10.935l.2.558a61.918 61.918 0 00-11.512 5.507l-.775.483-.317-.5a62.42 62.42 0 0111.533-5.729l.87-.319h.001zM15.556 17.85l-.14.819-.584-.093a41.26 41.26 0 011.32-5.672c.27-.219.546-.432.827-.639a40.698 40.698 0 00-1.423 5.585zm26.037-6.551c.193.12.384.242.573.368a6.61 6.61 0 01-.31 1.54l-.12.342-.554-.208c.23-.6.367-1.23.405-1.872zM27.388 8.153l.221.075.709.244.67.238.635.233.597.226.56.222.522.216.486.21.23.103.43.202.2.099.376.194c.595.319 1.036.615 1.325.89l.083.082-.428.41a3.104 3.104 0 00-.468-.387l-.252-.166a7.71 7.71 0 00-.14-.085l-.308-.175-.168-.09-.364-.185-.196-.095-.419-.194-.456-.2-.494-.206-.53-.212-.865-.33-.622-.228-.659-.233-.695-.24-.733-.244-.552-.18c.43-.077.866-.142 1.305-.194z" fill="#FFF" fill-rule="nonzero"/><path d="M11.935 40.876c.543 1.645 1.606 3.157 3.19 4.534 1.582 1.378 3.463 2.468 5.64 3.269a15.33 15.33 0 01-1.808.352 22.104 22.104 0 01-6.928-6.338 9.981 9.981 0 01-.1-1.489l.006-.328zm25.182-8.005l6.184 6.407-6.184 7.865-9.413-1.113v-8.74c2.04-.765 3.611-1.406 4.712-1.923 1.1-.516 2.667-1.349 4.701-2.496zm13.203-7.665c.646.89 1.168 1.74 1.568 2.548.074.738.112 1.488.112 2.246 0 1.8-.216 3.548-.623 5.222-.348.262-.821.582-1.42.958.481-1.358.796-2.994.943-4.907.147-1.914-.046-3.936-.58-6.067zm-35.175-7.622l5.62 2.867c-.347.482-.717 3.665-1.11 9.549-1.774.407-3 .736-3.678.989-2.73 1.015-4.042 1.882-4.042 1.882-.29-.447-.835-1.96-1.337-3.46l-.166-.497c-.516-1.566-.949-2.984-.949-2.984 0-.707 1.888-3.489 5.662-8.346zm17.909-7.045l8.415 2.096 4.33 6.91-6.853 2.855-8.066-6.884 2.174-4.977z" fill="#EEE" fill-rule="nonzero"/></g></svg>