<svg width="60" height="60" xmlns="http://www.w3.org/2000/svg"><g fill="none" fill-rule="evenodd"><path d="M0 0h60v60H0z"/><circle cx="22" cy="22" r="22" transform="translate(8 8)" fill="#B2B2B4" fill-rule="nonzero"/><path d="M30 8c2.858 0 5.589.545 8.094 1.537 6.31 3.867 10.521 10.827 10.521 18.771 0 12.15-9.85 22-22 22-2.858 0-5.589-.545-8.094-1.537C12.211 44.904 8 37.944 8 30 8 17.85 17.85 8 30 8z" fill="#EAEAEB" fill-rule="nonzero"/><path d="M36.66 45.883l2.868 3.953c-.181.087-.363.171-.547.253l-2.8-3.858.48-.348zm-7.208-1.096l.32.498-.098.061-.221.128-.256.137-.291.146-.326.154-.36.162-.394.171-.658.273-.481.192-.788.305-1.172.437-.97.35-1.417.498-1.154.396-1.773.595c-.232-.128-.462-.26-.689-.395l1.03-.342 1.612-.545 1.118-.386 1.04-.366 1.266-.459.858-.32.78-.302.7-.28.424-.177.57-.249.336-.154.302-.145.266-.137.23-.128.103-.06.093-.058zM11.744 30.972l.592.034-.075 1.417c-.045.928-.078 1.825-.1 2.689l-.025 1.272c-.03 2.287.023 4.332.16 6.132l.039.485-.078.008c-.2-.27-.392-.546-.579-.826a71.524 71.524 0 01-.134-5.801l.025-1.28c.017-.653.04-1.323.069-2.011l.067-1.4.04-.72zm38.631 4.235l.326.494c-.224.147-.464.297-.722.452l-.538.313c-.187.106-.381.214-.584.323l-.63.334c-.217.113-.443.227-.676.343l-.721.354-.768.364-.814.374-.424.191-.883.39-.93.4-.481.203-.23-.546.478-.202.921-.396.875-.386.83-.376.782-.365.737-.355.691-.344.645-.334c.207-.11.406-.217.598-.323l.552-.314c.265-.154.512-.304.742-.45l.224-.144zm-31.627-6.825l1.735 1.744 1.287 1.278.906.89 1.396 1.353 1.015.965.924.86.428.39.599.537.37.325.515.439.313.26.291.232.269.207.245.18.222.155.103.067-.32.498-.217-.145-.24-.171-.263-.198-.285-.223-.47-.385-.341-.289-.555-.482-.605-.542-.656-.6-.707-.66-1.022-.97-1.113-1.076-1.204-1.181-1.632-1.624-1.408-1.418.42-.416zm19.983-7.362l.588.064c-.48 4.442-1.149 8.533-2.01 12.272l-.201.856-.576-.138c.884-3.662 1.58-7.675 2.085-12.04l.114-1.014zm6.13-2.603c2.426 2.529 4.458 5.098 6.098 7.71l.371.604-.506.306c-1.558-2.583-3.506-5.126-5.844-7.632l-.547-.578.428-.41zM10.049 25.69v.592H8.313c.034-.199.07-.396.11-.593l1.626.001zm22.01-10.935l.199.558a61.893 61.893 0 00-11.512 5.507l-.776.483-.316-.5a62.485 62.485 0 0111.538-5.731l.866-.317zm-16.503 3.094l-.14.82-.584-.093c.306-1.92.748-3.816 1.32-5.672.271-.219.547-.431.827-.638a40.592 40.592 0 00-1.423 5.583zm26.036-6.55c.192.12.383.242.572.368a6.602 6.602 0 01-.31 1.556l-.118.33-.552-.214c.23-.596.365-1.224.402-1.861zm-14.2-3.145l.217.075.709.244.67.238.635.233.597.227.56.221.522.216.486.21.449.205.412.2c.065.032.13.064.192.097l.357.191c.112.063.22.125.32.186l.283.18c.22.149.404.292.548.43l.083.081-.428.41c-.187-.196-.474-.408-.86-.638l-.308-.175-.168-.09-.364-.185a17.952 17.952 0 00-.195-.095l-.42-.194a25.488 25.488 0 00-.224-.099l-.474-.203a34.897 34.897 0 00-.252-.104l-.53-.213-.567-.218-.604-.225-.975-.347-1.057-.361-.75-.248-.169-.055c.43-.077.866-.142 1.305-.194z" fill="#484848" fill-rule="nonzero"/><path d="M11.935 40.875c.543 1.646 1.606 3.158 3.19 4.535 1.582 1.378 3.463 2.468 5.64 3.269a15.33 15.33 0 01-1.808.352 22.104 22.104 0 01-6.928-6.338 10.28 10.28 0 01-.094-1.818zm25.182-8.004l6.184 6.407-6.184 7.865-9.413-1.113v-8.74c2.04-.765 3.611-1.406 4.712-1.923 1.1-.516 2.667-1.349 4.701-2.496zm13.203-7.665c.646.89 1.168 1.74 1.568 2.548.074.738.112 1.488.112 2.246 0 1.8-.216 3.548-.623 5.222-.348.262-.821.582-1.42.958.481-1.358.796-2.994.943-4.907.147-1.914-.046-3.936-.58-6.067zm-35.175-7.622l5.62 2.867c-.347.482-.717 3.665-1.11 9.549-1.774.407-2.999.736-3.678.989-2.731 1.015-4.042 1.881-4.042 1.881-.275-.422-.776-1.794-1.254-3.209l-.167-.5c-.552-1.66-1.031-3.231-1.031-3.231 0-.706 1.888-3.489 5.662-8.346zm17.909-7.045l8.415 2.096 4.33 6.91-6.853 2.855-8.066-6.884 2.174-4.977z" fill="#383838" fill-rule="nonzero"/></g></svg>