<svg xmlns="http://www.w3.org/2000/svg" width="36" height="36"><g fill="none" fill-rule="evenodd"><path fill="#000" d="M0 0h36v36H0z"/><path fill="#FFF" d="M2.089 21.9s-.004-2.526-.011-3.319l-.028-2.426c-.011-.937-.028-2.03-.05-3.155.296.007.633.007 1.01 0 .326 0 .711.027 1.156.02.444-.008.944.011 1.5-.003a9.707 9.707 0 00-.012.5c-.007.17-.011.377-.011.621v.867a5.638 5.638 0 00-.389-.011c-.133 0-.304.001-.51.005l-.734.017v.41c0 .134-.002.297-.005.49-.004.192-.002.24.005.483h.483c.256 0 .34-.007.77-.022v.716c0 .17-.031.673-.031.914 0 .24.003-.023.01.258a4.741 4.741 0 00-.355-.011h-.269c-.185 0-.315.004-.574.011.007.333.012.912.016 1.283.004.37.013 1.519.028 1.934l-2 .419zm5.796-.905c-.424 0-.782-.079-1.075-.235a1.844 1.844 0 01-.716-.696 3.423 3.423 0 01-.404-1.136 8.479 8.479 0 01-.128-1.566c0-.566.034-1.083.102-1.55.068-.468.19-.87.363-1.208.174-.338.41-.6.707-.788.296-.188.677-.282 1.14-.282.472 0 .859.087 1.162.26.304.175.542.426.717.753.173.328.293.727.358 1.198.065.47.097 1.006.097 1.606-.007.67-.058 1.236-.154 1.7-.095.463-.237.839-.424 1.126a1.66 1.66 0 01-.717.624 2.51 2.51 0 01-1.028.194m.02-1.402c.048 0 .09-.024.128-.072.038-.047.069-.15.092-.307.024-.156.041-.389.051-.696.01-.306.016-.723.016-1.248 0-.498-.005-.897-.016-1.198a6.57 6.57 0 00-.05-.685c-.024-.157-.057-.261-.098-.312a.177.177 0 00-.143-.077.19.19 0 00-.164.087c-.041.057-.071.172-.092.343a7.79 7.79 0 00-.04.716 48.637 48.637 0 00.009 2.39c.014.296.033.524.057.68.023.157.056.26.097.307a.194.194 0 00.153.072m5.289 1.527l-.182-.725c-.056-.234-.127-.424-.213-.754-.085-.33-.184-.701-.298-1.114-.007.008-.021.011-.042.011h-.107l.043 2.29h-1.182c-.242 0-.504.004-.789.01a656.624 656.624 0 00.038-4.27c.004-.894.038-1.842.038-2.97.32-.058 1.468-.025 1.717-.025.987 0 1.444.058 1.902.509.458.451.876 1.066.876 1.953 0 .47-.05.86-.21 1.172a2.107 2.107 0 01-.654.767c.042.142.15.47.32.985s.418 1.13.745 2.032c-.15.007-.323.018-.522.032-.17.015-.38.03-.629.048-.248.018-.532.034-.851.048m-.842-3.87a.61.61 0 00.485-.23c.117-.147.175-.394.175-.74 0-.34-.055-.606-.165-.802-.11-.195-.285-.284-.526-.264a48.557 48.557 0 00.02 1.393c.008.224.011.439.011.644m6.854 3.467c.007-.54.011-1.17.011-1.891 0-.62-.004-1.364-.01-2.235-.008-.871.013-1.697-.001-2.804.157-.008 1.44-.267 1.705-.282.093.284.235.643.364 1.014a149.925 149.925 0 00.946 2.733 115.38 115.38 0 00-.096-1.689c-.043-.681-.104-1.193-.183-2.147.136.007 1.481.01 1.754.002.007.597-.026 6.201.01 7.425-.115.015-1.197.134-1.498.155-.108-.305-.23-.655-.366-1.049-.122-.335-.265-.607-.43-1.063l-.549-1.514.054 1.388c.021.547.057 1.21.107 1.99-.143 0-.308-.004-.494-.011-.158-.007-.35-.013-.576-.017a45.997 45.997 0 00-.748-.005m4.944.398V18.87c0-.696-.004-1.51-.011-2.443-.008-.933-.019-1.546-.034-2.634h1.139c.248 0 .538-.004.872-.011 0 .733.003 1.123.01 1.967.008.718.014 1.54.017 2.466.004.925.013 1.892.028 2.899H24.15zm2.148-5.137a6.7 6.7 0 00.01-.422c0-.148-.001-.344-.004-.588l-.016-.911s3.412-.122 4.09-.137c-.007.156-.014.422-.02.615a21.16 21.16 0 00-.011 1.26h-.29c-.098 0-.213-.003-.348-.006a17.11 17.11 0 00-.463-.006v1.044c0 .386.002 1 .006 1.478.003.478.008.484.015 1.062l.021 1.932a8.484 8.484 0 00-.467-.01 89.827 89.827 0 00-1.401.021c.007-.459.01-.988.01-1.588 0-.51-.002-.604-.005-1.323l-.016-2.432-1.11.011zm-11.273-.534c.008-.104.011-.245.011-.422 0-.148-.002-.344-.005-.589l-.017-.91s3.291.227 4.049.336a33.205 33.205 0 00-.013 1.922h-.31c-.105 0-.075-.002-.22-.006a23.732 23.732 0 00-.494-.005v1.044c0 .385.002.479.006.957.003.478.009.545.016 1.123.008.577.015 1.221.023 1.932a9.19 9.19 0 00-.5-.01c-.17 0-.38 0-.628.005-.248.003-.538.009-.872.016.008-.459.012-.988.012-1.588 0-.51-.002-.665-.006-1.384a809.08 809.08 0 00-.017-2.432l-1.035.01zm15.6 5.979c-.006-.644.079-1.52.072-2.32l-.026-2.431c-.01-.933-.022-2.116-.036-3.242.192 0 2.722-.301 3.345-.309v1.601c0 .24.007.26.02.55-.191.007-.38.01-.564.01a9.976 9.976 0 01-.498.012c-.174 0-.33.003-.466.01a5.302 5.302 0 00-.005.406c.003.122.005.476.005.572v.3l.359.006c.198.004.503-.002.913-.017V17.7c0 .225.003.23.01.504h-.359c-.116 0-.25-.002-.4-.005-.15-.004-.311-.006-.482-.006v.267c0 .178.01.66.03.956a213.81 213.81 0 01.841.05c.178.01.377.02.596.027-.007.127-.01.282-.01.467-.007.156-.01.348-.01.577v1.118c-.302-.008-2.903-.224-3.335-.231"/></g></svg>