<svg width="60" height="60" xmlns="http://www.w3.org/2000/svg"><g fill="none" fill-rule="evenodd"><path d="M0 0h60v60H0z"/><path d="M29.999 8C17.849 8 8 17.85 8 30s9.85 22 21.999 22C42.151 52 52 42.15 52 30S42.15 8 29.999 8" fill="#8D909B" fill-rule="nonzero"/><path d="M25.254 33.22a2.424 2.424 0 000 4.848 2.424 2.424 0 000-4.847m2.641-5.837a2.424 2.424 0 100 4.848 2.424 2.424 0 000-4.848M23.35 40.732a2.425 2.425 0 000 4.848 2.425 2.425 0 000-4.848m-5.822.842c-.88 0-1.596.74-1.596 1.652 0 .911.716 1.65 1.596 1.65.88 0 1.595-.739 1.595-1.65 0-.913-.715-1.652-1.595-1.652m3.783-12.849a2.425 2.425 0 10-.001 4.85 2.425 2.425 0 00.001-4.85m6.369 16.151a1.654 1.654 0 100 3.307 1.654 1.654 0 000-3.307m-8.283-9.821c-1.294 0-2.343 1.085-2.343 2.424s1.049 2.425 2.343 2.425c1.293 0 2.342-1.086 2.342-2.425 0-1.34-1.049-2.424-2.342-2.424m14.409 8.875a1.652 1.652 0 10-.115 3.302 1.652 1.652 0 00.115-3.302M39.4 30.797a2.412 2.412 0 00-2.401 2.423c0 1.34 1.076 2.425 2.4 2.425 1.325 0 2.4-1.085 2.4-2.425a2.411 2.411 0 00-2.4-2.423m-6.653 1.436a2.424 2.424 0 10-.002 4.848 2.424 2.424 0 00.002-4.848m-3.023 6.075a2.425 2.425 0 10.002 4.85 2.425 2.425 0 00-.002-4.85M34.296 26.3a2.426 2.426 0 10-.001 4.849 2.426 2.426 0 00.002-4.848m7.156 16.692a2.12 2.12 0 100 4.24 2.12 2.12 0 000-4.24M30 8c-.946 0-1.874.066-2.789.182a1.068 1.068 0 00-.025.2c0 .702.739 1.27 1.651 1.27.914 0 1.653-.568 1.653-1.27a.984.984 0 00-.081-.371c-.137-.002-.272-.011-.41-.011m14.026 38.53c0 .131.017.256.047.379a22.322 22.322 0 002.059-1.953 1.608 1.608 0 00-.472-.079c-.902 0-1.634.74-1.634 1.652M23.439 8.995c-.485.152-.96.324-1.427.508-.568.435-.878 1.088-.73 1.737.213.95 1.313 1.512 2.455 1.258 1.142-.259 1.895-1.237 1.68-2.188-.182-.818-1.022-1.345-1.978-1.315m14.556 1.502c-.293.81.362 1.793 1.462 2.19 1.102.4 2.231.063 2.526-.75.04-.112.06-.226.065-.342a21.775 21.775 0 00-3.374-1.816c-.32.156-.563.4-.679.718m-21.753 2.341a21.938 21.938 0 00-2.885 2.785c.499.586 1.502.734 2.422.308 1.065-.494 1.613-1.564 1.23-2.39-.152-.327-.428-.562-.767-.703m-5.692 6.881c.757.224 1.68-.36 2.117-1.38.3-.697.293-1.419.042-1.933a22.01 22.01 0 00-2.16 3.313m2.804 17.761c-.815 0-1.476.739-1.476 1.651s.66 1.651 1.476 1.651c.813 0 1.475-.74 1.475-1.65 0-.913-.662-1.653-1.475-1.653M36.968 47.61c-1.152.213-1.942 1.171-1.763 2.143.113.614.585 1.084 1.207 1.295.97-.295 1.908-.657 2.813-1.077.15-.306.213-.643.15-.985-.177-.97-1.255-1.588-2.407-1.376M8.664 35.371c.329 1.317.78 2.584 1.336 3.794.471-.427.742-1.124.66-1.883-.126-1.153-1.017-2-1.996-1.91m5.378-4.575c-1.194 0-2.165 1.084-2.165 2.423 0 1.34.97 2.425 2.165 2.425 1.197 0 2.167-1.085 2.167-2.425 0-1.339-.97-2.423-2.167-2.423m-6.038-.994C8.003 29.87 8 29.935 8 30c0 1.368.13 2.704.37 4.004.914-.186 1.606-1.044 1.606-2.081 0-1.17-.882-2.116-1.972-2.12m22.953 19.034c-1.17 0-2.12.802-2.12 1.789 0 .55.301 1.037.765 1.364.133.004.264.01.397.01.844 0 1.671-.053 2.491-.144.362-.32.587-.752.587-1.23 0-.987-.948-1.789-2.12-1.789m-6.573-.6c-1.17 0-2.12.801-2.12 1.79 0 .22.054.43.144.629a22.1 22.1 0 003.095.883c.6-.315 1.002-.874 1.002-1.513 0-.988-.948-1.79-2.12-1.79M37.594 38.07a2.424 2.424 0 100 4.849 2.425 2.425 0 100-4.849M18.025 17.153c-1.295 0-2.343 1.086-2.343 2.424 0 1.34 1.048 2.425 2.343 2.425 1.293 0 2.342-1.086 2.342-2.425 0-1.338-1.05-2.424-2.342-2.424m2.295-4.373a1.653 1.653 0 10-.163 3.302 1.653 1.653 0 00.163-3.302m-3.68 11.097c-1.293 0-2.342 1.084-2.342 2.424 0 1.339 1.049 2.424 2.343 2.424s2.342-1.085 2.342-2.424c0-1.34-1.048-2.424-2.342-2.424m8.286-7.967a2.426 2.426 0 10.001 4.85 2.426 2.426 0 00-.001-4.849m-11.961 4.973c-.815 0-1.476.738-1.476 1.65 0 .912.66 1.652 1.476 1.652.814 0 1.475-.74 1.475-1.651 0-.913-.661-1.651-1.475-1.651m10.08 1.651a2.424 2.424 0 100 4.848 2.424 2.424 0 000-4.848m24.282-3.253c0 .911.734 1.65 1.636 1.65.351 0 .674-.113.942-.305a22.15 22.15 0 00-1.613-2.85c-.568.26-.965.835-.965 1.505m2.784 8.021c-.926-.095-1.774.77-1.898 1.934-.123 1.164.529 2.187 1.454 2.284.925.098 1.774-.768 1.897-1.933.121-1.163-.53-2.186-1.453-2.285M27.895 11.129a1.651 1.651 0 100 3.303 1.651 1.651 0 000-3.303M12.012 27.074c-.74 0-1.341.739-1.341 1.651s.6 1.652 1.34 1.652c.74 0 1.342-.74 1.342-1.652 0-.912-.602-1.65-1.341-1.65m-2.858-4.108a21.872 21.872 0 00-.95 4.07c.111.028.229.043.347.043 1.012 0 1.832-.95 1.832-2.121 0-.925-.514-1.703-1.23-1.992m3.037 19.52c-.077.035-.143.082-.21.128a22.01 22.01 0 002.661 3.13c.377-.567.445-1.371.099-2.109-.496-1.062-1.638-1.577-2.55-1.15m7.083 3.928c-1.098-.18-2.106.39-2.343 1.282 1.03.76 2.124 1.43 3.27 2.001.46-.255.792-.666.876-1.174.16-.978-.65-1.92-1.803-2.11m24.178-32.454c-.959.402-1.37 1.606-.914 2.685.455 1.08 1.602 1.625 2.56 1.221.96-.404 1.368-1.606.914-2.685-.453-1.078-1.601-1.626-2.56-1.221m4.509 7.798a2.119 2.119 0 100 4.238 2.119 2.119 0 00-.001-4.238m-4.805 14.66c-.903 0-1.635.74-1.635 1.653 0 .912.732 1.651 1.635 1.651.904 0 1.634-.74 1.634-1.65 0-.913-.73-1.654-1.634-1.654m6.237-2.265c-.984-.327-2.08.307-2.452 1.419-.37 1.11.13 2.276 1.113 2.603.985.329 2.082-.306 2.452-1.418.368-1.11-.13-2.277-1.113-2.604M42.39 19.11c-.903 0-1.636.739-1.636 1.651s.733 1.651 1.636 1.651c.902 0 1.634-.74 1.634-1.65 0-.913-.732-1.652-1.634-1.652m2.819 11.162c-.904 0-1.635.738-1.635 1.65 0 .912.73 1.653 1.635 1.653.903 0 1.634-.74 1.634-1.652a1.64 1.64 0 00-1.634-1.651m1.693 9.228c-.94-.2-1.898.569-2.142 1.715-.242 1.145.326 2.235 1.265 2.434.94.198 1.899-.568 2.14-1.714.242-1.146-.32-2.237-1.263-2.436m-8.53-25.066a1.651 1.651 0 000 3.302 1.652 1.652 0 100-3.302m-6.222 0a2.424 2.424 0 100 4.849 2.424 2.424 0 000-4.849m1.656-5.423a2.12 2.12 0 10-.002 4.239 2.12 2.12 0 00.002-4.24M36.23 20.11a2.425 2.425 0 100 4.85 2.425 2.425 0 000-4.85m6.16 4.476a2.413 2.413 0 00-2.402 2.425c0 1.338 1.076 2.424 2.402 2.424 1.325 0 2.398-1.086 2.398-2.424 0-1.34-1.073-2.425-2.398-2.425m-12.667-3.825a2.425 2.425 0 10.002 4.85 2.425 2.425 0 00-.002-4.85" fill="#777B87" fill-rule="nonzero"/><path d="M47.458 18.336c0 14.962-12.129 27.092-27.09 27.092-2.373 0-4.674-.307-6.866-.881C17.534 49.114 23.428 52 30 52c12.152 0 22-9.85 22-22a21.9 21.9 0 00-4.608-13.465c.039.595.066 1.195.066 1.801" fill-opacity=".3" fill="#231815" fill-rule="nonzero"/></g></svg>