<svg width="60" height="60" viewBox="0 0 60 60" fill="none" xmlns="http://www.w3.org/2000/svg">
<g clip-path="url(#clip0_601_34492)">
<path d="M30 52C42.1503 52 52 42.1503 52 30C52 17.8497 42.1503 8 30 8C17.8497 8 8 17.8497 8 30C8 42.1503 17.8497 52 30 52Z" fill="#F5ECE1"/>
<path d="M37.8516 36.5817C37.8516 35.7109 34.0542 35.0049 29.3698 35.0049C24.6854 35.0049 20.888 35.7109 20.888 36.5817C20.888 36.8611 21.2808 37.1234 21.9672 37.3511C19.5003 37.6268 17.8494 38.1292 17.8494 38.7033C17.8494 39.574 21.6502 40.1022 26.3312 40.28C30.9819 40.4566 34.8067 39.6074 34.813 38.7033C34.815 38.4237 34.42 38.1614 33.7338 37.9338C36.2007 37.658 37.8516 37.1558 37.8516 36.5817Z" fill="#D1CAC0"/>
<path d="M49.7927 38.3715C49.6796 38.4075 49.5509 38.3738 49.4711 38.2763L32.9587 18.1282C32.8543 18.0008 32.8729 17.8127 33.0004 17.7082C33.1278 17.6038 33.3158 17.6224 33.4203 17.7499L49.9327 37.8981C50.0372 38.0255 50.0185 38.2135 49.8911 38.318C49.861 38.3426 49.8276 38.3604 49.7927 38.3715Z" fill="#575756"/>
<path d="M32.9546 28.1172C36.9182 31.7622 15.0504 34.2755 12.5308 32.2685L14.0562 34.6904C19.0928 40.4758 38.9807 32.9025 36.4386 30.6072L32.9546 28.1172Z" fill="#AB4A45"/>
<path d="M16.4886 44.9385C16.7424 39.2365 34.1178 28.7088 36.4945 30.6637L33.2054 27.5928C30.7675 25.5866 13.4743 37.6488 14.1114 43.1644L15.3542 42.6705L16.4886 44.9385Z" fill="#E96660"/>
<path d="M32.3019 18.8625C32.1133 18.8625 31.9522 18.8315 31.886 18.7753L32.0676 18.5619C32.0601 18.5555 32.0547 18.553 32.0547 18.553C32.1318 18.5895 32.6041 18.6235 32.8972 18.447C33.0331 18.3652 33.1023 18.2538 33.1088 18.1064L33.3887 18.1189C33.376 18.4031 33.216 18.6202 32.926 18.7464C32.7428 18.8262 32.5063 18.8625 32.3019 18.8625Z" fill="#575756"/>
<path d="M29.5165 16.8902C23.3962 16.0181 9.67386 27.405 12.3493 32.3725L14.1825 34.8335C12.1656 31.184 24.6319 20.3061 31.2063 19.7371C31.9884 18.6508 32.1453 18.3763 32.6945 17.9055C32.6946 17.9057 30.2806 16.9991 29.5165 16.8902ZM31.2891 18.3471C31.0059 18.3471 30.7762 18.2235 30.7762 18.0709C30.7762 17.9184 31.0058 17.7948 31.2891 17.7948C31.5723 17.7948 31.802 17.9184 31.802 18.0709C31.802 18.2235 31.5723 18.3471 31.2891 18.3471Z" fill="#E96660"/>
<path d="M31.2977 18.3614C31.2832 18.2794 31.2742 18.1773 31.2742 18.0952C31.2742 17.6807 31.7065 17.3799 32.3021 17.3799C32.9116 17.3799 33.389 17.7014 33.389 18.1117H33.1088C33.1088 17.8669 32.7394 17.66 32.3021 17.66C31.8758 17.66 31.5543 17.8471 31.5543 18.0952C31.5543 18.1612 31.5619 18.2466 31.5736 18.3127L31.2977 18.3614Z" fill="#575756"/>
</g>
<defs>
<clipPath id="clip0_601_34492">
<rect width="60" height="60" fill="white"/>
</clipPath>
</defs>
</svg>
