<svg width="60" height="60" xmlns="http://www.w3.org/2000/svg"><g fill="none" fill-rule="evenodd"><path d="M0 0h60v60H0z"/><path d="M11.225 39.423c1.137 2.984 5.26 6.365 5.26 6.365s.45 1.095 1.124 2.38a21.935 21.935 0 01-8.133-10.266c1.336 1.368 1.75 1.52 1.75 1.52" fill="#CCC" fill-rule="nonzero"/><path d="M51.595 25.804a22.214 22.214 0 00-.9-3.272c-1.016-1.371-2.337-3.044-2.682-2.977 0 0-2.716-4.49-6.23-7.245-1.77-.771-7.327-.854-7.327-.854-1.034 2.802-1.716 6.232-1.716 6.232-2.21.104-8.845 3.25-8.845 3.25-.223 1.483.585 8.758.585 8.758 1.856.709 8.824 2.143 8.824 2.143 1.136 2.985 3.239 9.033 3.239 9.033 1.762-.017 7.429.463 7.429.463s3.48-3.37 5.198-8.162c0 0 1.652-.463 2.712-.889.22-2.111.138-4.289-.287-6.48" fill="#777B86" fill-rule="nonzero"/><path d="M49.17 33.173c-1.717 4.793-5.198 8.162-5.198 8.162s-5.667-.48-7.428-.462c0 0-2.103-6.05-3.24-9.033 0 0-6.967-1.435-8.824-2.143 0 0-.808-7.275-.585-8.76 0 0 6.636-3.145 8.846-3.248 0 0 .68-3.43 1.716-6.233 0 0 5.557.083 7.326.855 3.514 2.755 6.23 7.244 6.23 7.244.346-.067 1.666 1.606 2.683 2.978a21.959 21.959 0 00-9.46-11.444 21.903 21.903 0 00-11.753-3.082c-.564.236-1.11.534-1.334.865-3.722.444-8.661 3.4-8.661 3.4s-2.118 3.523-2.067 5.464c0 0-5.201 4.075-5.892 6.02-.898 3.75.02 9.287.02 9.287s5.932 2.472 6.413 2.796c0 0 2.954 7.323 3.163 8.398 0 0 4.608 2.682 9.197 2.395 0 0 2.877 3.576 3.806 3.814 0 0 6.52-1.823 8.363-3.342 0 0 .449.113 1.068.212a22.058 22.058 0 008.323-15.031c-1.06.425-2.712.888-2.712.888" fill="#CCC" fill-rule="nonzero"/><path d="M42.49 47.104c-1.842 1.519-8.363 3.342-8.363 3.342-.927-.238-3.805-3.814-3.805-3.814-4.59.287-9.197-2.395-9.197-2.395-.21-1.074-3.164-8.398-3.164-8.398-.48-.324-6.412-2.796-6.412-2.796s-.917-5.535-.02-9.286c.69-1.946 5.892-6.021 5.892-6.021-.051-1.941 2.067-5.464 2.067-5.464s4.939-2.956 8.662-3.4c.223-.331.769-.628 1.334-.865a21.902 21.902 0 00-13.84 5.325 22.095 22.095 0 00-5.231 6.664 21.897 21.897 0 00-.938 17.906c1.337 1.368 1.75 1.521 1.75 1.521 1.136 2.984 5.258 6.365 5.258 6.365s.45 1.095 1.124 2.38a21.929 21.929 0 0014.62 3.708 21.893 21.893 0 0011.33-4.56c-.618-.099-1.068-.212-1.068-.212" fill="#777B86" fill-rule="nonzero"/><path d="M43.437 12.532a24.806 24.806 0 011.507 5.028c2.512 13.448-6.352 26.387-19.799 28.901a24.699 24.699 0 01-9.813-.137c4.911 4.392 11.732 6.542 18.71 5.237 11.94-2.232 19.811-13.722 17.58-25.662a21.909 21.909 0 00-8.185-13.367" fill-opacity=".25" fill="#000" fill-rule="nonzero"/></g></svg>