<svg width="60" height="60" viewBox="0 0 60 60" fill="none" xmlns="http://www.w3.org/2000/svg">
<g clip-path="url(#clip0_898_109725)">
<path d="M51.7875 23.3303L42.6216 12.3304C42.4471 12.1208 42.1893 12 41.9168 12H18.0838C17.8113 12 17.5535 12.1208 17.3802 12.3304L8.21312 23.3303C7.90829 23.6942 7.93381 24.23 8.26821 24.5657L13.7682 30.0657C14.1267 30.4229 14.7082 30.4229 15.0654 30.0657L17.1668 27.9629V47.7494C17.1668 48.2568 17.5777 48.6678 18.0839 48.6678H41.9168C42.423 48.6678 42.8338 48.2569 42.8338 47.7494V28.2288L44.9796 30.1073C45.3434 30.4242 45.89 30.4067 46.2324 30.0657L51.7324 24.5657C52.0668 24.2301 52.0909 23.6943 51.7875 23.3303Z" fill="#6A6E79"/>
<path d="M30.6764 21.2974L22.4264 12.2981C22.2518 12.1074 22.0074 12 21.7496 12H18.0838C17.8113 12 17.5535 12.1208 17.3802 12.3304L8.21312 23.3303C7.90829 23.6942 7.93381 24.23 8.26821 24.5657L13.7682 30.0657C14.1267 30.4229 14.7082 30.4229 15.0654 30.0657L17.1668 27.9629V44.6393C17.1668 45.1254 17.5441 45.5256 18.0288 45.5551L20.1115 45.6787C20.1303 45.6814 20.1491 45.6814 20.1665 45.6814C20.5304 45.6814 20.8634 45.4639 21.0084 45.1281L30.8429 22.2788C30.9853 21.9474 30.9194 21.5633 30.6764 21.2974Z" fill="#777B87"/>
<path d="M51.7874 23.3303L42.6216 12.3304C42.447 12.1208 42.1892 12 41.9167 12H38.2495C37.9932 12 37.7487 12.1074 37.5742 12.2981L17.407 34.2975C17.2526 34.4667 17.1667 34.6869 17.1667 34.9179V47.7495C17.1667 48.2569 17.5776 48.6679 18.0838 48.6679H41.9167C42.4229 48.6679 42.8338 48.257 42.8338 47.7495V28.2288L44.9796 30.1073C45.3434 30.4242 45.89 30.4067 46.2323 30.0657L51.7323 24.5657C52.0667 24.2301 52.0908 23.6943 51.7874 23.3303Z" fill="#8D909B"/>
<path d="M42.8337 34.918H17.1663V38.5836H42.8337V34.918Z" fill="#4E4A56"/>
<path d="M51.7875 23.3305L50.0675 21.2666L42.979 28.3551L44.9797 30.1075C45.3435 30.4243 45.8901 30.4069 46.2325 30.0659L51.7325 24.5658C52.0669 24.2302 52.091 23.6945 51.7875 23.3305Z" fill="#656D78"/>
<path d="M8.21312 23.3305L9.93325 21.2666L16.8982 28.2316L15.0196 30.1075C14.6571 30.4243 14.1093 30.4069 13.7682 30.0659L8.26821 24.5658C7.93381 24.2302 7.90829 23.6945 8.21312 23.3305Z" fill="#656D78"/>
<path d="M35.7937 40.5037L31.9333 35.3555L29.9997 37.2864L28.0688 35.3555L24.207 40.5037L27.3491 43.6459L29.9997 40.1116L32.6517 43.6459L35.7937 40.5037Z" fill="#4E4A56"/>
<path d="M29.9995 33.999C28.4835 33.999 27.2495 35.2343 27.2495 36.749C27.2495 38.2664 28.4835 39.499 29.9995 39.499C31.5169 39.499 32.7495 38.2664 32.7495 36.749C32.7495 35.2343 31.5169 33.999 29.9995 33.999Z" fill="#5A5564"/>
</g>
<defs>
<clipPath id="clip0_898_109725">
<rect width="60" height="60" fill="white"/>
</clipPath>
</defs>
</svg>
