<svg width="60" height="60" xmlns="http://www.w3.org/2000/svg"><g fill="none" fill-rule="evenodd"><path d="M0 0h60v60H0z"/><path d="M49.376 21.223L48.127 22.5c-.235.515-.672.877-.997 1.325-.329.454-.606.93-.755 1.472-.179.656.271 1.188.948 1.126.4-.037.726-.234 1-.509.525-.528 1.087-1.02 1.55-1.61.161-.208.352-.384.634-.417.176.003.34.091.44.236.74 1.062 1.075 2.21.71 3.496-.008.027-.05.042-.082.057.031.251-.057.471-.167.691-.715 1.431-1.777 2.587-2.92 3.674-1.382 1.311-2.905 2.455-4.377 3.657-.849.693-1.73 1.344-2.598 2.014-.738.452-1.484.88-2.348 1.058-1.794.373-3.346-.075-4.719-1.279-2.385-2.093-4.579-4.373-6.72-6.708-1.37-1.493-2.738-2.985-3.958-4.606-.566-.752-.952-1.564-.977-2.522-.08-1.773.587-3.337 1.434-4.823 1.797-3.152 4.207-5.799 6.888-8.22a66.718 66.718 0 013.048-2.598c.23-.184.46-.369.712-.523.384-.234.777-.272 1.188-.065a8.114 8.114 0 012.446 1.911c.298.34.315.717.14 1.117-.485.733-.988 1.455-1.362 2.256-.154.33-.295.664-.356 1.023-.073.432.018.793.481.962.507.167.87-.115 1.2-.42.665-.612 1.155-1.365 1.631-2.123.312-.496.605-1.003.907-1.504.107-.178.206-.363.428-.425.741-.07 1.291.353 1.808.771.914.74 1.585 1.682 2.065 2.756.141.316.286.641.061.985-.525.793-1.253 1.428-1.745 2.247.05.206-.115.313-.213.447-.329.45-.64.904-.804 1.448-.187.626-.116 1.01.268 1.262.345.23.691.151 1.201-.309.79-.713 1.414-1.572 2.062-2.408.195-.25.39-.493.736-.529.341.01.578.23.806.431.975.867 1.8 1.823 1.793 3.24-.002.253-.059.475-.238.66M28.24 46.893c-.035.248-.24.372-.395.527-1.676 1.682-3.356 3.358-5.033 5.04-.342.342-.672.696-1.008 1.044-2.13-1.403-4.157-2.932-6.029-4.678-2.24-2.09-4.219-4.403-6.062-6.837-1.199-1.584-1.317-3.316-.245-4.886.632-.926 1.424-1.753 2.463-2.267 1.498-.74 3.37-.458 4.517.751 2.065 2.174 4.037 4.436 6.21 6.508a98.376 98.376 0 004.847 4.326c.23.19.536.244.734.472" fill="#575961" fill-rule="nonzero"/><path d="M28.24 46.893c-.333.047-.555-.158-.78-.345a87.942 87.942 0 01-10.295-10.049c-.724-.833-1.483-1.599-2.634-1.83-1.111-.223-2.145-.063-3.069.589a7.618 7.618 0 00-1.84 1.823c-1.042 1.482-.978 3.256.13 4.744a57.103 57.103 0 004.026 4.827 40.018 40.018 0 007.616 6.408c.176.114.355.22.41.445-.156.57-.383.64-.943.281a39.576 39.576 0 01-6.246-4.985c-2.029-1.975-3.855-4.128-5.55-6.393-1.583-2.113-1.38-4.73.468-6.613.885-.901 1.788-1.756 3.087-1.994.49-.09.993-.106 1.491-.155 1.174.23 2.266.629 3.096 1.543.617.68 1.22 1.373 1.833 2.055a81.67 81.67 0 007.024 6.924c.743.648 1.463 1.324 2.275 1.889.245.312.277.599-.1.836" fill="#444650" fill-rule="nonzero"/><path d="M39.835 9.717a.227.227 0 00.076-.277c-.034-.163-.162-.263-.269-.371a13.974 13.974 0 00-4.067-2.828c-.914-.421-1.713-.293-2.472.413-2.634 2.452-5.344 4.824-7.783 7.478-.195.057-.311.217-.442.352a35.59 35.59 0 00-2.853 3.304c-.478.627-.883 1.304-1.35 1.969-.363-.854-.471-1.914-.367-2.737.185-1.473.805-2.75 1.665-3.932.129-.177.315-.337.253-.597-.532-.163-1.069-.257-1.62-.102.07.143.253.082.363.204-.319.388-.63.779-.917 1.188-1.016 1.448-2.026 2.902-2.609 4.595-.733 2.13-1.015 4.352-1.202 6.579-.153 1.819-.409 3.607-.941 5.355-.245.805-.475 1.615-.813 2.388l-.376.949c.074.244.294.203.471.24 1.049.222 1.96.696 2.655 1.52 1.193 1.418 2.465 2.763 3.74 4.105.959 1 1.949 1.968 2.969 2.904a116.11 116.11 0 003.888 3.437c.144.122.288.258.506.205l1.398-1.043.572-.364a6.241 6.241 0 001.254-.713l1.559-.845c.199-.101.402-.193.594-.305.571-.333 1.22-.536 1.706-1.012.198-.025.36-.125.517-.24a34.83 34.83 0 003.746-2.478c-.239-.213-.493-.072-.739-.025-1.49.29-2.843.045-4.055-.93-1.163-.936-2.231-1.977-3.289-3.02-1.812-1.784-3.545-3.65-5.245-5.544-.878-.98-1.742-1.976-2.508-3.047-.601-.84-1.049-1.751-.949-2.835-.036-1.78.626-3.353 1.493-4.848 2.621-4.516 6.389-7.967 10.437-11.152.393-.31.808-.33 1.257-.077.774.437 1.469.97 2.11 1.586.376.362.535.752.358 1.254.517-.068.876-.427 1.279-.703" fill="#444650" fill-rule="nonzero"/><path d="M20.605 12.388l.624.038c-.533.734-1.052 1.414-1.534 2.12-.702 1.026-1.378 2.064-1.862 3.223-.529 1.267-.828 2.588-1.046 3.931-.314 1.936-.373 3.907-.672 5.837a20.926 20.926 0 01-1.53 5.252c-.005.011-.019.02-.029.03l-.069-.122c.395-2.594.217-5.219.415-7.824.138-1.812.218-3.629.618-5.41.131-.584.38-1.09.755-1.569 1.2-1.528 2.205-3.189 3.211-4.846.275-.455.603-.682 1.12-.66m4.714 1.744c-.356.579-.894.998-1.338 1.5-1.195 1.35-2.332 2.74-3.226 4.315-.024.042-.043.087-.103.208-.68-1.688-.651-3.26-.06-4.843.385-1.033 1.014-1.924 1.633-2.821 1.216.199 2.183.868 3.094 1.64" fill="#32343A" fill-rule="nonzero"/><path d="M50.417 23.969c-.574.596-1.146 1.194-1.723 1.786-.29.298-.603.569-.999.727-.44.175-.854.139-1.205-.188-.327-.303-.368-.69-.229-1.097.368-1.074 1.07-1.919 1.866-2.698.108.198.241.029.357.018.977-.093 1.905-.045 2.586.807-.12.313-.394.472-.653.645m-3.44-6.992c-.59.268-.825.87-1.214 1.322-.497.577-.942 1.198-1.523 1.7-.529.455-.915.531-1.306.266-.43-.29-.542-.754-.326-1.397.242-.716.655-1.33 1.157-1.887.114.028.204-.02.278-.098.736-.762 1.66-.84 2.635-.722.273.033.545.075.818.114.104.44-.269.524-.519.702" fill="#282828" fill-rule="nonzero"/><path d="M39.686 39.057c-.542-.041-1.04.198-1.58.227-1.465.077-2.67-.462-3.714-1.419-1.235-1.132-2.496-2.242-3.649-3.454-2.39-2.51-4.837-4.974-6.933-7.747-.605-.801-1.03-1.676-.99-2.717.004-.104-.002-.209.081-.291.05 1.133.615 2.032 1.296 2.883 1.68 2.098 3.505 4.065 5.36 6.008 1.542 1.618 3.151 3.164 4.79 4.684 2.06 1.91 4.314 1.928 6.6.712.18-.096.341-.243.566-.232-.573.498-1.186.94-1.827 1.346" fill="#444650" fill-rule="nonzero"/><path d="M41.565 10.316c-.51.551-.786 1.252-1.192 1.87-.513.778-.999 1.58-1.702 2.205-.355.316-.731.66-1.282.43-.109-.153-.052-.305.028-.435.516-.846.889-1.778 1.526-2.55.066-.08.129-.163.237-.187.21.037.253-.15.341-.264.333-.422.64-.864.985-1.275.405-.484.892-.825 1.576-.704.173.5-.236.67-.517.91" fill="#282828" fill-rule="nonzero"/><path d="M39.18 11.65c-.576.811-1.017 1.704-1.53 2.555-.114.19-.236.384-.26.615-.6-.248-.762-.59-.559-1.287.34-1.165 1.01-2.153 1.724-3.113.42-.373 1.016-.499 1.355-.98.243.297.067.588-.049.853-.203.463-.45.905-.68 1.356" fill="#282828" fill-rule="nonzero"/><path d="M41.565 10.316c.139-.322.514-.51.517-.91 1.75.718 3.022 1.953 3.866 3.63.316.63.176 1.072-.438 1.697 0-1.083-.65-1.876-1.251-2.667-.514-.676-1.153-1.239-1.945-1.6-.242-.112-.482-.184-.749-.15m5.412 6.661c.123-.27.475-.373.52-.702 1.243.726 2.204 1.703 2.575 3.13.19.73.041 1.406-.696 1.818.368-1.248-.173-2.23-.952-3.116-.405-.46-.813-.949-1.447-1.13M50.417 23.969c.167-.266.38-.486.653-.645.915 1.256 1.158 2.627.714 4.119-.035.116-.034.248-.209.232.317-1.273-.042-2.406-.719-3.474-.102-.16-.262-.212-.439-.232" fill="#575961" fill-rule="nonzero"/><path d="M23.861 22.499c-.014-.799.277-1.52.596-2.227.822-1.821 2.117-3.337 3.247-4.959.213-.08.411-.008.605.065 3.161 1.192 6.021 2.879 8.568 5.109 3.554 3.11 6.277 6.861 8.573 10.952.246.439.488.878.717 1.326.075.146.222.285.085.472-.499.58-1.157.972-1.737 1.456a61.94 61.94 0 01-2.22 1.763c-1.422 1.086-3.034 1.104-4.693.783-1.522-.294-2.764-1.124-3.945-2.074a37.874 37.874 0 01-3.817-3.512 66.13 66.13 0 01-3.727-4.309c-.514-.65-1.069-1.268-1.569-1.928-.436-.574-.705-1.225-.685-1.968a1.978 1.978 0 01.002-.949" fill="#444650" fill-rule="nonzero"/><path d="M46.252 33.237c-.641-1.361-1.414-2.648-2.201-3.926-1.116-1.809-2.341-3.547-3.725-5.157-2.23-2.596-4.743-4.881-7.727-6.602-1.561-.9-3.178-1.679-4.895-2.239.33-.486.619-1.004 1.049-1.415.564-.54 1.263-.679 1.959-.35 3.336 1.578 6.195 3.78 8.635 6.55 3.122 3.544 5.312 7.636 7.128 11.954.179.425.267.869-.223 1.185m-35.957 6.495c.004-1.018.253-1.732.868-2.293.506-.463.917-1.024 1.605-1.28 1.029-.386 2.256-.198 3.01.602 2.04 2.164 3.986 4.421 6.162 6.454 1.298 1.214 2.638 2.384 3.979 3.552.229.2.205.291.02.475-1.402 1.393-2.8 2.79-4.192 4.192-.17.17-.285.225-.52.066a39.726 39.726 0 01-3.941-3.019 37.296 37.296 0 01-2.495-2.422c-1.45-1.528-2.772-3.167-4.01-4.87-.347-.479-.536-1.049-.486-1.457" fill="#444650" fill-rule="nonzero"/><path d="M32.753 22.686c-.665.276-1.337.534-1.99.834-.328.15-.553.116-.831-.123-.902-.776-.911-.763-.518-1.901.138-.401.266-.805.385-1.167-.551.51-1.143 1.02-1.686 1.576-.584.599-.564.619-1.22.11-.629-.488-.627-.487-.073-1.056.992-1.018 1.99-2.03 3.039-2.99.403-.37.792-.377 1.214-.076.183.13.354.277.531.417.348.274.413.59.229 1.006-.394.894-.753 1.802-1.137 2.729.336.065.536-.104.752-.186.759-.29 1.509-.605 2.265-.904.665-.263 1.499.08 1.779.737.125.292.023.543-.203.747a56.24 56.24 0 00-3.443 3.394c-.164.176-.266.185-.456.023-.9-.771-.906-.765-.074-1.603l1.481-1.49-.044-.077m3.511 4.672c.23.104.372-.04.523-.102.816-.334 1.622-.693 2.442-1.02.478-.19.84.019 1.198.629.23.392.07.683-.227.957-1.16 1.067-2.317 2.139-3.38 3.305-.222.243-.334.25-.543-.013-.567-.715-.573-.7.073-1.362.542-.555 1.067-1.125 1.624-1.715-.631.276-1.261.532-1.871.827-.294.142-.442.078-.7-.13-.673-.534-.681-1.085-.28-1.774.249-.428.41-.906.634-1.413-.2.017-.271.137-.355.222-.461.47-.912.95-1.378 1.415-.204.204-.423.644-.61.564-.34-.147-.59-.514-.868-.798-.121-.123-.017-.217.069-.306 1.148-1.204 2.32-2.384 3.567-3.486.284-.25.596-.23.9-.001.764.575.832.89.395 1.753-.41.81-.808 1.628-1.213 2.448m3.226 8.505c-.215-.368-.378-.669-.564-.956-.16-.245.025-.405.138-.552.235-.306.257-.575-.001-.874a2.666 2.666 0 01-.31-.479c-.195-.36-.413-.577-.803-.212-.167.156-.302.134-.462-.069-.635-.806-.648-.807.25-1.306a266.704 266.704 0 013.599-1.96c.327-.175.715-.45 1.025-.039.566.753.705.915.263 1.563a87.413 87.413 0 00-3.135 4.884" fill="#191B21" fill-rule="nonzero"/><path d="M41.168 31.034l-1.11 1.717c-.057-.031-.114-.044-.14-.08-.543-.743-.542-.745.256-1.201.3-.171.601-.337.902-.506l.092.07" fill="#444650" fill-rule="nonzero"/></g></svg>