<svg width="60" height="60" viewBox="0 0 60 60" fill="none" xmlns="http://www.w3.org/2000/svg">
<g clip-path="url(#clip0_1054_145415)">
<path fill-rule="evenodd" clip-rule="evenodd" d="M53.0199 30.7662L45.3384 35.912L42.3706 31.4806L50.258 26.1987C50.951 25.7341 51.8971 26.0333 52.1952 26.813L53.3326 29.7785C53.4721 30.1407 53.3416 30.5502 53.0199 30.7662" fill="#32343A"/>
<path fill-rule="evenodd" clip-rule="evenodd" d="M43.4931 35.0379L37.7084 38.9124C37.2888 39.1936 36.7218 39.0811 36.4405 38.6615V38.6615C36.1593 38.2419 36.2718 37.6749 36.6914 37.3936L42.4761 33.5191C42.8958 33.2379 43.4628 33.3504 43.744 33.77C44.0253 34.1896 43.9128 34.7566 43.4931 35.0379" fill="black"/>
<path fill-rule="evenodd" clip-rule="evenodd" d="M42.4759 33.5195L36.6911 37.394C36.4279 37.5695 36.2861 37.8587 36.2861 38.1523C36.5584 38.2637 36.879 38.2423 37.1411 38.0668L42.9259 34.1923C43.1891 34.0157 43.3309 33.7277 43.3309 33.4329C43.0598 33.3215 42.738 33.344 42.4759 33.5195" fill="black"/>
<path fill-rule="evenodd" clip-rule="evenodd" d="M52.6011 31.0465L43.3592 37.2362L40.3926 32.806L49.6333 26.6162L52.6011 31.0465Z" fill="black"/>
<path fill-rule="evenodd" clip-rule="evenodd" d="M52.6012 31.0467L43.3594 37.2364L41.8755 35.0213L51.1174 28.8315L52.6012 31.0467Z" fill="black"/>
<path fill-rule="evenodd" clip-rule="evenodd" d="M50.3501 27.6861L41.1082 33.8758L40.3916 32.806L49.6335 26.6162L50.3501 27.6861Z" fill="black"/>
<path fill-rule="evenodd" clip-rule="evenodd" d="M40.9133 36.8803L43.359 37.2369L40.3924 32.8066L39.7905 35.204L40.9133 36.8803Z" fill="black"/>
<path fill-rule="evenodd" clip-rule="evenodd" d="M40.9134 36.8805L43.3592 37.2371L41.8753 35.022L40.3521 36.0423L40.9134 36.8805Z" fill="black"/>
<path fill-rule="evenodd" clip-rule="evenodd" d="M40.0617 35.6085L41.109 33.876L40.3924 32.8062L39.7905 35.2035L40.0617 35.6085Z" fill="black"/>
<path fill-rule="evenodd" clip-rule="evenodd" d="M40.9133 36.8803L43.359 37.2369L40.3924 32.8066L39.7905 35.204L40.9133 36.8803Z" fill="black"/>
<mask id="mask0_1054_145415" style="mask-type:luminance" maskUnits="userSpaceOnUse" x="40" y="29" width="17" height="17">
<path fill-rule="evenodd" clip-rule="evenodd" d="M40.6621 29.147H56.9999V45.4842H40.6621V29.147Z" fill="white"/>
</mask>
<g mask="url(#mask0_1054_145415)">
<path fill-rule="evenodd" clip-rule="evenodd" d="M43.6535 37.3156C43.6535 34.4558 45.9721 32.1383 48.8307 32.1383C51.6905 32.1383 54.0091 34.4558 54.0091 37.3156C54.0091 40.1753 51.6905 42.4928 48.8307 42.4928C45.9721 42.4928 43.6535 40.1753 43.6535 37.3156M40.6621 37.3156C40.6621 41.8268 44.3195 45.4842 48.8307 45.4842C53.3431 45.4842 57.0005 41.8268 57.0005 37.3156C57.0005 32.8043 53.3431 29.147 48.8307 29.147C44.3195 29.147 40.6621 32.8043 40.6621 37.3156" fill="#575961"/>
</g>
<path fill-rule="evenodd" clip-rule="evenodd" d="M48.8312 42.1525C46.1593 42.1525 43.9937 39.9868 43.9937 37.315C43.9937 34.6442 46.1593 32.4786 48.8312 32.4786C51.5031 32.4786 53.6687 34.6442 53.6687 37.315C53.6687 39.9868 51.5031 42.1525 48.8312 42.1525M48.8312 31.9341C45.859 31.9341 43.4492 34.3427 43.4492 37.315C43.4492 40.2872 45.859 42.697 48.8312 42.697C51.8035 42.697 54.2132 40.2872 54.2132 37.315C54.2132 34.3427 51.8035 31.9341 48.8312 31.9341" fill="#575961"/>
<path fill-rule="evenodd" clip-rule="evenodd" d="M44.8486 37.3155C44.8486 39.5149 46.6318 41.298 48.8311 41.298C51.0305 41.298 52.8136 39.5149 52.8136 37.3155C52.8136 35.1161 51.0305 33.333 48.8311 33.333C46.6318 33.333 44.8486 35.1161 44.8486 37.3155" fill="#32343A"/>
<path fill-rule="evenodd" clip-rule="evenodd" d="M46.6333 37.3154C46.6333 38.5293 47.6177 39.5137 48.8316 39.5137C50.0454 39.5137 51.0298 38.5293 51.0298 37.3154C51.0298 36.1016 50.0454 35.1172 48.8316 35.1172C47.6177 35.1172 46.6333 36.1016 46.6333 37.3154" fill="black"/>
<path fill-rule="evenodd" clip-rule="evenodd" d="M50.6098 33.7555C50.5457 35.8986 48.7918 37.6176 46.633 37.6176C45.9928 37.6176 45.391 37.4635 44.8555 37.1958C44.9196 35.0515 46.6723 33.3325 48.8312 33.3325C49.4713 33.3325 50.0743 33.4878 50.6098 33.7555" fill="#1D1E23"/>
<mask id="mask1_1054_145415" style="mask-type:luminance" maskUnits="userSpaceOnUse" x="3" y="29" width="17" height="17">
<path fill-rule="evenodd" clip-rule="evenodd" d="M3 29.1475H19.3372V45.4841H3V29.1475Z" fill="white"/>
</mask>
<g mask="url(#mask1_1054_145415)">
<path fill-rule="evenodd" clip-rule="evenodd" d="M11.1686 42.4933C8.30887 42.4933 5.99137 40.1747 5.99137 37.3161C5.99137 34.4563 8.30887 32.1377 11.1686 32.1377C14.0284 32.1377 16.3459 34.4563 16.3459 37.3161C16.3459 40.1747 14.0284 42.4933 11.1686 42.4933M11.1686 29.1475C6.65737 29.1475 3 32.8037 3 37.3161C3 41.8273 6.65737 45.4847 11.1686 45.4847C15.6799 45.4847 19.3372 41.8273 19.3372 37.3161C19.3372 32.8037 15.6799 29.1475 11.1686 29.1475" fill="#575961"/>
</g>
<path fill-rule="evenodd" clip-rule="evenodd" d="M11.1686 42.1525C8.49675 42.1525 6.33112 39.9868 6.33112 37.315C6.33112 34.6442 8.49675 32.4786 11.1686 32.4786C13.8405 32.4786 16.0061 34.6442 16.0061 37.315C16.0061 39.9868 13.8405 42.1525 11.1686 42.1525M11.1686 31.9341C8.19637 31.9341 5.78662 34.3427 5.78662 37.315C5.78662 40.2872 8.19637 42.697 11.1686 42.697C14.1409 42.697 16.5506 40.2872 16.5506 37.315C16.5506 34.3427 14.1409 31.9341 11.1686 31.9341" fill="#575961"/>
<path fill-rule="evenodd" clip-rule="evenodd" d="M15.151 37.3155C15.151 39.5149 13.3679 41.298 11.1685 41.298C8.96916 41.298 7.18604 39.5149 7.18604 37.3155C7.18604 35.1161 8.96916 33.333 11.1685 33.333C13.3679 33.333 15.151 35.1161 15.151 37.3155" fill="#32343A"/>
<path fill-rule="evenodd" clip-rule="evenodd" d="M13.3667 37.3154C13.3667 38.5293 12.3823 39.5137 11.1685 39.5137C9.95459 39.5137 8.97021 38.5293 8.97021 37.3154C8.97021 36.1016 9.95459 35.1172 11.1685 35.1172C12.3823 35.1172 13.3667 36.1016 13.3667 37.3154" fill="black"/>
<path fill-rule="evenodd" clip-rule="evenodd" d="M9.39014 33.7555C9.45426 35.8986 11.2081 37.6176 13.367 37.6176C14.0071 37.6176 14.609 37.4635 15.1445 37.1958C15.0804 35.0515 13.3276 33.3325 11.1688 33.3325C10.5286 33.3325 9.92564 33.4878 9.39014 33.7555" fill="#1D1E23"/>
<path fill-rule="evenodd" clip-rule="evenodd" d="M10.4672 36.9107C10.2433 37.2977 10.3761 37.7927 10.7631 38.0166C11.1512 38.2405 11.6462 38.1077 11.8701 37.7207L21.8556 20.425C22.1672 19.885 21.778 19.21 21.1536 19.21C20.8645 19.21 20.5978 19.3641 20.4527 19.615L10.4672 36.9107Z" fill="#575961"/>
<path fill-rule="evenodd" clip-rule="evenodd" d="M21.1542 19.21C20.8651 19.21 20.5973 19.3641 20.4533 19.615L15.689 27.8657H17.5587L21.8551 20.425C22.1667 19.885 21.7775 19.21 21.1542 19.21" fill="#32343A"/>
<path fill-rule="evenodd" clip-rule="evenodd" d="M52.109 28.8774C51.2731 33.0129 47.6191 36.1269 43.2361 36.1269C42.0807 36.1269 40.976 35.9076 39.959 35.5127C40.7949 31.3772 44.4489 28.2632 48.8307 28.2632C49.9872 28.2632 51.092 28.4826 52.109 28.8774" fill="#32343A"/>
<path fill-rule="evenodd" clip-rule="evenodd" d="M51.6601 30.3951C51.8514 29.9079 52.0032 29.4006 52.109 28.8774C51.092 28.4814 49.9872 28.2632 48.8307 28.2632C44.4489 28.2632 40.7949 31.3761 39.959 35.5116C40.5395 35.7377 41.1481 35.9031 41.7792 36.0066C43.1034 32.6496 46.3749 30.2747 50.2021 30.2747C50.6982 30.2747 51.1854 30.3174 51.6601 30.3951Z" fill="#575961"/>
<path fill-rule="evenodd" clip-rule="evenodd" d="M43.3691 23.1421C42.9383 23.1421 42.5108 23.258 42.1553 23.501C41.3576 24.0443 40.1269 24.3931 38.7431 24.3931C37.2953 24.3931 36.0139 24.0106 35.223 23.4233C34.9744 23.2388 34.6729 23.1421 34.3635 23.1421H33.4995V26.7263H45.0128V23.1421H43.3691Z" fill="#32343A"/>
<path fill-rule="evenodd" clip-rule="evenodd" d="M46.8113 23.1421C45.5963 23.1421 40.3144 25.9501 37.269 27.6263L37.1633 27.3867H22.9253V42.1523H35.541C37.5165 42.1523 39.2727 40.8923 39.906 39.0203L40.2537 37.9932V34.4337L39.5348 32.7946C39.3188 32.3018 39.4009 31.7292 39.7463 31.3163L40.896 29.9427C43.2743 27.1032 46.7877 25.463 50.4912 25.463H54.2138C54.2138 25.463 52.6197 23.1421 46.8113 23.1421" fill="#32343A"/>
<path fill-rule="evenodd" clip-rule="evenodd" d="M19.1235 25.9021L21.2532 22.0895C21.4984 21.6507 21.8652 21.2952 22.3107 21.0623C24.726 19.799 32.1443 17.0753 34.0905 21.9263L34.3752 24.173C34.5 25.1607 35.3404 25.9021 36.3372 25.9021H37.1078C38.6434 25.9021 40.1532 25.5005 41.4863 24.7366L41.8553 24.5251C42.8847 23.9345 43.6733 22.9996 44.0805 21.8847L44.8197 19.8586C44.9468 19.5098 45.2775 19.2781 45.6488 19.2781H53.6689C53.6689 20.2366 53.166 21.1242 52.3459 21.6181L44.1222 26.567C42.8025 27.3623 41.3232 27.8618 39.7898 28.0148C28.5038 29.1421 19.1235 25.9021 19.1235 25.9021" fill="#575961"/>
<path fill-rule="evenodd" clip-rule="evenodd" d="M15.8586 17.9834L17.6181 19.2951C17.8588 19.474 17.9455 19.7935 17.8296 20.0703L17.7936 20.1558C17.5551 20.725 17.7857 21.3831 18.3268 21.6801L24.124 24.856C25.078 25.3791 25.6708 26.3793 25.6708 27.4671V30.8016L12.2676 26.665L15.8586 17.9834Z" fill="#32343A"/>
<path fill-rule="evenodd" clip-rule="evenodd" d="M48.732 39.502L26.1353 36.8627L26.6449 32.4966L49.2416 35.1347C50.4476 35.2765 51.3116 36.3677 51.1699 37.5737V37.5737C51.0293 38.7797 49.938 39.6426 48.732 39.502" fill="#1A1A1A"/>
<path fill-rule="evenodd" clip-rule="evenodd" d="M26.9549 33.1092L49.5516 35.7485C50.1906 35.8227 50.7306 36.1658 51.0794 36.6496C50.824 35.8531 50.1254 35.2377 49.2411 35.1353L26.6455 32.4961L26.1348 36.8622L26.5116 36.9072L26.9549 33.1092Z" fill="#808285"/>
<path fill-rule="evenodd" clip-rule="evenodd" d="M7.89111 28.8774C8.72699 33.0129 12.381 36.1269 16.764 36.1269C17.9194 36.1269 19.0241 35.9076 20.0411 35.5127C19.2052 31.3772 15.5512 28.2632 11.1694 28.2632C10.0129 28.2632 8.90811 28.4826 7.89111 28.8774" fill="#32343A"/>
<path fill-rule="evenodd" clip-rule="evenodd" d="M35.3464 33.9794C35.3464 35.821 33.8536 37.3127 32.0131 37.3127C30.1714 37.3127 28.6797 35.821 28.6797 33.9794C28.6797 32.1377 30.1714 30.646 32.0131 30.646C33.8536 30.646 35.3464 32.1377 35.3464 33.9794" fill="#1A1A1A"/>
<path fill-rule="evenodd" clip-rule="evenodd" d="M32.0128 31.199C33.2548 31.199 34.3607 31.7761 35.0818 32.6761C34.5745 31.4825 33.391 30.6455 32.0128 30.6455C30.6336 30.6455 29.4512 31.4825 28.9438 32.6761C29.665 31.7773 30.7708 31.199 32.0128 31.199" fill="#808285"/>
<path fill-rule="evenodd" clip-rule="evenodd" d="M32.0125 36.3362C31.0495 36.3362 30.1923 35.8884 29.6343 35.1909C30.0269 36.1157 30.9438 36.7648 32.0125 36.7648C33.0813 36.7648 33.9982 36.1157 34.3908 35.1909C33.8328 35.8884 32.9755 36.3362 32.0125 36.3362" fill="#808285"/>
<path fill-rule="evenodd" clip-rule="evenodd" d="M9.87008 28.5658C14.0157 29.0496 17.213 32.1613 17.9971 36.0414C18.7081 35.9447 19.3921 35.7647 20.0412 35.5127C19.2053 31.3772 15.5502 28.2632 11.1683 28.2632C10.4472 28.2632 9.74633 28.3487 9.07471 28.5084C9.33796 28.5174 9.60346 28.5343 9.87008 28.5658" fill="#32343A"/>
<path fill-rule="evenodd" clip-rule="evenodd" d="M7.89111 28.8773C7.94174 29.1293 8.00361 29.3779 8.07561 29.6221C8.14874 29.5951 8.22299 29.5692 8.29724 29.5444C8.73711 29.3982 9.03186 28.9831 9.03186 28.5196C8.64149 28.6141 8.26011 28.7333 7.89111 28.8773" fill="white"/>
<path fill-rule="evenodd" clip-rule="evenodd" d="M8.38561 23.3424C7.51148 25.3899 6.96023 27.9875 11.0361 27.9875V27.9875C13.3997 28.2879 15.5091 29.3409 17.1291 30.89C19.7594 33.4055 20.7494 37.1911 19.8449 40.7169L19.3375 42.6969H36.5174V42.6969C36.5174 40.4052 34.6589 38.5467 32.3661 38.5467H31.8149C30.8372 38.5467 29.9271 38.0472 29.4029 37.2237L28.5074 35.8175C27.64 34.4551 27.6209 32.7181 28.4601 31.3366V31.3366C29.422 29.7526 28.8291 27.6837 27.1742 26.8501L16.8265 21.638C15.76 21.1014 15.5192 19.685 16.3472 18.8255C16.8512 18.3024 16.9885 17.525 16.6937 16.8601L15.8702 15.0005C12.1161 16.1986 9.72886 20.1935 8.38561 23.3424" fill="#575961"/>
<path fill-rule="evenodd" clip-rule="evenodd" d="M22.3108 21.0623C22.0858 21.1793 21.881 21.329 21.7021 21.5033L22.1274 21.8645C22.4739 22.1592 22.9599 22.1918 23.3626 21.9792C23.3649 21.9781 23.3671 21.977 23.3694 21.9758C25.3066 20.9622 30.4603 19.0137 33.4291 20.7833C30.8326 17.5613 24.5068 19.9137 22.3108 21.0623" fill="#ABACB0"/>
<path fill-rule="evenodd" clip-rule="evenodd" d="M46.7069 20.1923H52.7312C53.2364 20.1923 53.6673 19.7929 53.6684 19.2878V19.2788H45.6482C45.2781 19.2788 44.9474 19.5094 44.8202 19.8582L44.08 21.8843C44.0125 22.0688 43.9315 22.2466 43.8438 22.4209C44.7044 22.4209 45.4728 21.8832 45.7675 21.0743L45.8777 20.7717C46.0049 20.4241 46.3368 20.1923 46.7069 20.1923" fill="#ABACB0"/>
<path fill-rule="evenodd" clip-rule="evenodd" d="M22.2586 21.2421L21.0043 20.4783C20.7376 20.3163 20.6521 19.9686 20.8153 19.702C20.9773 19.4354 21.3249 19.3499 21.5915 19.513L22.8459 20.2769C23.1125 20.4389 23.198 20.7865 23.0349 21.0531C22.8729 21.3198 22.5253 21.4041 22.2586 21.2421" fill="#808285"/>
<path fill-rule="evenodd" clip-rule="evenodd" d="M20.8186 19.6968C20.8175 19.699 20.8164 19.7002 20.8153 19.7013C20.6521 19.9679 20.7376 20.3155 21.0043 20.4787L22.2586 21.2425C22.5253 21.4045 22.8729 21.3202 23.0349 21.0535C23.036 21.0513 23.0371 21.0502 23.0383 21.0479L20.8186 19.6968Z" fill="#414042"/>
<path fill-rule="evenodd" clip-rule="evenodd" d="M23.0354 21.0529C22.8734 21.3196 22.5258 21.4039 22.2591 21.2419C21.9925 21.0799 21.907 20.7323 22.0701 20.4657C22.2321 20.1991 22.5798 20.1136 22.8464 20.2767C23.113 20.4387 23.1974 20.7863 23.0354 21.0529" fill="#414042"/>
<path fill-rule="evenodd" clip-rule="evenodd" d="M22.8546 20.9426C22.7534 21.1091 22.5362 21.1619 22.3697 21.0607C22.2021 20.9594 22.1492 20.7423 22.2516 20.5747C22.3529 20.4082 22.57 20.3553 22.7365 20.4577C22.903 20.5589 22.9559 20.7761 22.8546 20.9426" fill="#808285"/>
<path fill-rule="evenodd" clip-rule="evenodd" d="M16.4987 16.4191L15.8698 15.0005C12.307 16.1379 9.9771 19.7919 8.6001 22.8541C10.3236 22.8541 11.9346 21.9845 12.8661 20.5355C13.8561 18.9954 15.0587 17.5351 16.4987 16.4191" fill="#32343A"/>
<path fill-rule="evenodd" clip-rule="evenodd" d="M32.3667 38.5466H31.8143C30.8367 38.5466 29.9277 38.0471 29.4023 37.2236L28.5079 35.8184C28.1097 35.1929 27.8926 34.4898 27.8521 33.7777C27.7969 34.6586 28.0152 35.5507 28.5079 36.3236L29.4023 37.7287C29.9277 38.5522 30.8367 39.0517 31.8143 39.0517H32.3667C34.4873 39.0517 36.2344 40.6436 36.4842 42.6978H36.5179V42.6978C36.5179 40.4051 34.6594 38.5466 32.3667 38.5466M28.9096 29.9246C29.0007 28.6871 28.3639 27.4496 27.1737 26.8499L16.8271 21.6378C16.2781 21.3622 15.9496 20.8514 15.8708 20.3047C15.7684 21.0247 16.1104 21.7818 16.8271 22.1429L27.1737 27.3551C28.2019 27.8726 28.8184 28.8659 28.9096 29.9246" fill="#ABACB0"/>
<path fill-rule="evenodd" clip-rule="evenodd" d="M16.0142 15.3251L15.8702 15C12.1161 16.1992 9.72995 20.193 8.38558 23.3419C8.16733 23.8526 7.97158 24.3971 7.86133 24.9281H8.91433C9.01558 24.63 9.13258 24.3341 9.25408 24.0472C10.5636 20.9805 12.7405 17.2118 16.0142 15.3251" fill="#32343A"/>
<path fill-rule="evenodd" clip-rule="evenodd" d="M7.76849 25.8734H7.93837C8.74049 25.8734 9.39074 25.2231 9.39074 24.421V24.421C9.39074 23.854 8.93062 23.395 8.36362 23.395C8.02274 24.2039 7.73699 25.0938 7.76849 25.8734" fill="#E6E7E8"/>
<path fill-rule="evenodd" clip-rule="evenodd" d="M8.36361 23.3945C8.32873 23.4778 8.29498 23.5622 8.26123 23.6465C8.77423 23.7039 9.17361 24.1337 9.17361 24.6613C9.17361 24.9763 9.07236 25.2665 8.90248 25.505C9.20061 25.2384 9.39073 24.8525 9.39073 24.4217C9.39073 23.8547 8.93061 23.3945 8.36361 23.3945" fill="#808285"/>
</g>
<defs>
<clipPath id="clip0_1054_145415">
<rect width="60" height="60" fill="white"/>
</clipPath>
</defs>
</svg>
