<svg width="60" height="60" viewBox="0 0 60 60" fill="none" xmlns="http://www.w3.org/2000/svg">
<g clip-path="url(#clip0_1054_145527)">
<path fill-rule="evenodd" clip-rule="evenodd" d="M52 30C52 42.15 42.15 52 30 52C17.85 52 8 42.15 8 30C8 17.85 17.85 8 30 8C42.15 8 52 17.85 52 30" fill="#777B87"/>
<path fill-rule="evenodd" clip-rule="evenodd" d="M16.52 35.4899C16.609 35.1679 16.699 34.8459 16.788 34.5239C17.121 33.3209 17.456 32.1179 17.786 30.9139C17.815 30.8079 17.86 30.7749 17.968 30.7769C18.417 30.7819 18.867 30.7789 19.316 30.7789C19.36 30.7789 19.403 30.7839 19.466 30.7869C19.396 31.0449 19.33 31.2909 19.262 31.5369C18.563 34.0619 17.862 36.5869 17.167 39.1129C17.131 39.2409 17.078 39.2809 16.947 39.2789C16.513 39.2699 16.078 39.2759 15.643 39.2749C15.605 39.2749 15.566 39.2699 15.514 39.2659C15.252 37.6909 14.991 36.1199 14.726 34.5299C14.705 34.5609 14.687 34.5769 14.682 34.5959C14.258 36.1069 13.834 37.6179 13.416 39.1299C13.385 39.2419 13.342 39.2799 13.226 39.2779C12.782 39.2719 12.337 39.2749 11.893 39.2759C11.845 39.2759 11.797 39.2759 11.728 39.2759C11.83 38.9059 11.925 38.5599 12.022 38.2139C12.683 35.8309 13.345 33.4489 14.006 31.0669C14.086 30.7799 14.084 30.7789 14.383 30.7789C14.821 30.7789 15.26 30.7789 15.716 30.7789C15.975 32.3539 16.232 33.9199 16.49 35.4859C16.5 35.4869 16.51 35.4889 16.52 35.4899" fill="#EBEBEB"/>
<path fill-rule="evenodd" clip-rule="evenodd" d="M42.4104 32.3814C42.3384 32.3814 42.2864 32.3814 42.2334 32.3814C41.6564 32.3814 41.0794 32.3844 40.5014 32.3784C40.3854 32.3774 40.3424 32.4164 40.3134 32.5264C40.1204 33.2454 39.9184 33.9614 39.7204 34.6794C39.6814 34.8194 39.6444 34.9604 39.6054 35.1024C39.6354 35.1104 39.6494 35.1174 39.6634 35.1174C40.2954 35.1184 40.9264 35.1164 41.5584 35.1214C41.6544 35.1214 41.6684 35.0634 41.6874 34.9954C41.8354 34.4584 41.9834 33.9214 42.1324 33.3844C42.2224 33.0574 42.3134 32.7314 42.4104 32.3814M40.5024 39.2744C40.7394 38.4184 40.9684 37.5874 41.2024 36.7434C41.1414 36.7394 41.0994 36.7344 41.0564 36.7344C40.4684 36.7344 39.8804 36.7374 39.2924 36.7314C39.1824 36.7304 39.1394 36.7674 39.1114 36.8714C38.9044 37.6334 38.6914 38.3934 38.4824 39.1554C38.4624 39.2284 38.4414 39.2784 38.3494 39.2774C37.8604 39.2734 37.3714 39.2754 36.8824 39.2744C36.8634 39.2744 36.8444 39.2654 36.8154 39.2584C36.8324 39.1874 36.8474 39.1214 36.8654 39.0554C37.5114 36.7244 38.1574 34.3944 38.8074 32.0644C38.8264 31.9954 38.8774 31.9224 38.9344 31.8784C39.3784 31.5314 39.8254 31.1894 40.2764 30.8514C40.3334 30.8084 40.4184 30.7824 40.4914 30.7824C41.3904 30.7774 42.2894 30.7804 43.1884 30.7774C43.2814 30.7764 43.3424 30.8024 43.3984 30.8794C43.6284 31.1994 43.8624 31.5174 44.1004 31.8334C44.1584 31.9114 44.1704 31.9794 44.1434 32.0764C43.6184 33.9594 43.0974 35.8424 42.5764 37.7264C42.4444 38.2024 42.3154 38.6784 42.1794 39.1534C42.1664 39.1994 42.1164 39.2684 42.0834 39.2694C41.5654 39.2764 41.0474 39.2744 40.5024 39.2744" fill="#EBEBEB"/>
<path fill-rule="evenodd" clip-rule="evenodd" d="M20.8368 35.1039C20.8748 35.1099 20.8978 35.1179 20.9208 35.1179C21.5428 35.1189 22.1648 35.1159 22.7858 35.1209C22.8808 35.1219 22.8988 35.0719 22.9188 34.9999C23.0888 34.3819 23.2608 33.7649 23.4308 33.1479C23.4998 32.8979 23.5678 32.6489 23.6378 32.3969C23.6048 32.3899 23.5908 32.3839 23.5768 32.3839C22.9448 32.3829 22.3138 32.3839 21.6818 32.3789C21.5838 32.3779 21.5728 32.4369 21.5538 32.5049C21.4168 33.0039 21.2778 33.5029 21.1408 34.0019C21.0398 34.3669 20.9388 34.7319 20.8368 35.1039V35.1039ZM21.7348 39.2749C21.9708 38.4219 22.2008 37.5919 22.4378 36.7339C22.3748 36.7339 22.3288 36.7339 22.2818 36.7339C21.7038 36.7339 21.1268 36.7379 20.5488 36.7309C20.4238 36.7299 20.3698 36.7669 20.3368 36.8889C20.1368 37.6369 19.9248 38.3819 19.7238 39.1299C19.6938 39.2409 19.6508 39.2799 19.5348 39.2789C19.0468 39.2719 18.5588 39.2759 18.0488 39.2759C18.0608 39.2139 18.0678 39.1679 18.0798 39.1229C18.7308 36.7799 19.3818 34.4359 20.0388 32.0939C20.0638 32.0029 20.1298 31.9079 20.2038 31.8489C20.6298 31.5129 21.0618 31.1839 21.4978 30.8599C21.5588 30.8139 21.6478 30.7829 21.7248 30.7819C22.6238 30.7769 23.5218 30.7809 24.4208 30.7759C24.5238 30.7759 24.5828 30.8119 24.6388 30.8909C24.8558 31.1969 25.0728 31.5029 25.3038 31.7989C25.3898 31.9099 25.3988 32.0059 25.3618 32.1349C25.0598 33.2039 24.7638 34.2739 24.4668 35.3429C24.1188 36.5939 23.7698 37.8429 23.4268 39.0949C23.3898 39.2299 23.3388 39.2839 23.1898 39.2789C22.7648 39.2669 22.3398 39.2749 21.9158 39.2749H21.7348Z" fill="#EBEBEB"/>
<path fill-rule="evenodd" clip-rule="evenodd" d="M48.6695 32.3923C48.6345 32.3873 48.6155 32.3823 48.5975 32.3823C47.9755 32.3823 47.3535 32.3843 46.7315 32.3793C46.6265 32.3783 46.6145 32.4383 46.5945 32.5123C46.4215 33.1403 46.2465 33.7673 46.0725 34.3943C46.0075 34.6293 45.9455 34.8653 45.8825 35.0993C45.9115 35.1093 45.9215 35.1153 45.9305 35.1153C46.5615 35.1173 47.1935 35.1203 47.8255 35.1143C47.8655 35.1133 47.9275 35.0493 47.9415 35.0033C48.0925 34.4823 48.2365 33.9593 48.3815 33.4363C48.4775 33.0913 48.5725 32.7453 48.6695 32.3923M43.0815 39.2663C43.2645 38.6063 43.4405 37.9733 43.6155 37.3413C44.1675 35.3533 44.7205 33.3653 45.2725 31.3773C45.3185 31.2113 45.3685 31.0453 45.4095 30.8783C45.4285 30.8013 45.4675 30.7783 45.5445 30.7783C46.8585 30.7803 48.1725 30.7783 49.4865 30.7823C49.5355 30.7833 49.6005 30.8183 49.6305 30.8583C49.8825 31.1933 50.1315 31.5313 50.3745 31.8733C50.4055 31.9183 50.4205 31.9953 50.4065 32.0473C50.1035 33.1513 49.7965 34.2543 49.4855 35.3563C49.4655 35.4253 49.4075 35.4923 49.3505 35.5393C49.0475 35.7913 48.7405 36.0413 48.4285 36.2843C48.3385 36.3533 48.3135 36.4233 48.3275 36.5343C48.4365 37.3913 48.5395 38.2493 48.6435 39.1073C48.6495 39.1553 48.6505 39.2043 48.6555 39.2643C48.6045 39.2683 48.5625 39.2763 48.5195 39.2763C48.0795 39.2763 47.6405 39.2723 47.2005 39.2783C47.0875 39.2793 47.0505 39.2443 47.0385 39.1313C46.9575 38.4053 46.8685 37.6793 46.7805 36.9543C46.7725 36.8863 46.7595 36.8193 46.7455 36.7343C46.4125 36.7343 46.0825 36.7343 45.7535 36.7343C45.4225 36.7343 45.4245 36.7353 45.3385 37.0483C45.1465 37.7483 44.9515 38.4473 44.7615 39.1473C44.7355 39.2443 44.6945 39.2793 44.5895 39.2783C44.1355 39.2713 43.6805 39.2753 43.2265 39.2753C43.1835 39.2743 43.1405 39.2703 43.0815 39.2663" fill="#EBEBEB"/>
<path fill-rule="evenodd" clip-rule="evenodd" d="M27.3392 34.1933C27.7992 34.1933 28.2332 34.1933 28.6672 34.1933C29.0132 34.1933 29.3592 34.1963 29.7052 34.1913C29.7922 34.1903 29.8482 34.2133 29.9002 34.2883C30.1412 34.6323 30.3922 34.9693 30.6312 35.3143C30.6672 35.3653 30.6842 35.4533 30.6682 35.5133C30.4462 36.3433 30.2172 37.1703 29.9862 37.9973C29.9702 38.0533 29.9262 38.1103 29.8792 38.1473C29.4242 38.5033 28.9662 38.8563 28.5062 39.2043C28.4522 39.2453 28.3732 39.2723 28.3052 39.2723C27.4162 39.2763 26.5272 39.2733 25.6382 39.2763C25.5492 39.2763 25.4942 39.2503 25.4422 39.1783C25.1972 38.8373 24.9442 38.5023 24.7032 38.1593C24.6652 38.1053 24.6512 38.0123 24.6672 37.9473C24.7522 37.5973 24.8512 37.2503 24.9442 36.9033C24.9612 36.8403 24.9722 36.7833 25.0632 36.7843C25.5622 36.7893 26.0612 36.7873 26.5602 36.7893C26.5732 36.7893 26.5862 36.7983 26.6142 36.8083C26.5392 37.0833 26.4642 37.3563 26.3852 37.6473C26.4422 37.6523 26.4882 37.6583 26.5342 37.6583C27.1172 37.6593 27.7002 37.6553 28.2832 37.6613C28.3982 37.6623 28.4452 37.6273 28.4742 37.5153C28.6232 36.9583 28.7812 36.4033 28.9412 35.8283C28.8772 35.8283 28.8302 35.8283 28.7832 35.8283C28.0472 35.8283 27.3112 35.8263 26.5752 35.8303C26.4802 35.8303 26.4242 35.8013 26.3702 35.7233C26.1352 35.3813 25.8892 35.0473 25.6572 34.7033C25.6192 34.6483 25.6022 34.5543 25.6192 34.4903C25.8422 33.6713 26.0722 32.8543 26.3052 32.0383C26.3212 31.9823 26.3652 31.9243 26.4122 31.8883C26.8702 31.5353 27.3302 31.1853 27.7922 30.8393C27.8392 30.8033 27.9082 30.7813 27.9672 30.7813C28.8812 30.7783 29.7952 30.7773 30.7082 30.7823C30.7622 30.7823 30.8332 30.8193 30.8652 30.8613C31.1172 31.1973 31.3632 31.5373 31.6062 31.8793C31.6332 31.9163 31.6492 31.9803 31.6382 32.0233C31.5362 32.4053 31.4282 32.7853 31.3162 33.1633C31.3032 33.2073 31.2452 33.2683 31.2082 33.2693C30.6952 33.2763 30.1822 33.2733 29.6412 33.2733C29.7212 32.9783 29.7972 32.6973 29.8782 32.3993C29.8222 32.3963 29.7802 32.3913 29.7382 32.3913C29.1502 32.3903 28.5622 32.3933 27.9752 32.3883C27.8712 32.3873 27.8302 32.4193 27.8042 32.5183C27.6552 33.0703 27.4992 33.6203 27.3392 34.1933" fill="#EBEBEB"/>
<path fill-rule="evenodd" clip-rule="evenodd" d="M35.7883 33.7024C35.9083 33.2644 36.0273 32.8334 36.1483 32.3904H34.1063C33.6213 34.1374 33.1343 35.8894 32.6423 37.6584H33.4573C33.8233 37.6584 34.1893 37.6534 34.5543 37.6614C34.6663 37.6634 34.7063 37.6244 34.7323 37.5204C34.8223 37.1664 34.9233 36.8154 35.0213 36.4634C35.0393 36.3964 35.0543 36.3374 35.1523 36.3384C35.6463 36.3444 36.1403 36.3414 36.6343 36.3424C36.6483 36.3424 36.6623 36.3504 36.6863 36.3574C36.6783 36.4004 36.6723 36.4434 36.6613 36.4844C36.5233 36.9834 36.3873 37.4844 36.2443 37.9824C36.2273 38.0424 36.1813 38.1054 36.1313 38.1444C35.6813 38.4994 35.2283 38.8504 34.7723 39.1964C34.7143 39.2404 34.6313 39.2704 34.5593 39.2714C33.6703 39.2764 32.7813 39.2774 31.8913 39.2714C31.8303 39.2714 31.7473 39.2334 31.7103 39.1854C31.4533 38.8534 31.2083 38.5134 30.9543 38.1794C30.8963 38.1044 30.8883 38.0374 30.9133 37.9474C31.4263 36.1074 31.9453 34.2684 32.4383 32.4234C32.5313 32.0754 32.6933 31.8304 32.9873 31.6324C33.3393 31.3964 33.6633 31.1194 34.0063 30.8694C34.0763 30.8184 34.1753 30.7834 34.2603 30.7834C35.1553 30.7774 36.0493 30.7814 36.9433 30.7764C37.0453 30.7764 37.1043 30.8114 37.1603 30.8924C37.3903 31.2194 37.6293 31.5404 37.8573 31.8684C37.8893 31.9134 37.9063 31.9904 37.8923 32.0424C37.7503 32.5664 37.5993 33.0884 37.4553 33.6114C37.4353 33.6844 37.4063 33.7164 37.3263 33.7164C36.8363 33.7124 36.3473 33.7144 35.8583 33.7134C35.8403 33.7134 35.8213 33.7074 35.7883 33.7024" fill="#EBEBEB"/>
<path fill-rule="evenodd" clip-rule="evenodd" d="M24.1875 27.839C24.9775 24.998 25.7615 22.177 26.5455 19.356H27.5045C27.4245 19.65 27.3495 19.934 27.2705 20.217C26.9795 21.267 26.6875 22.317 26.3965 23.367C26.0715 24.536 25.7475 25.706 25.4225 26.875C25.3435 27.16 25.2355 27.555 25.1505 27.839H24.1875Z" fill="#EBEBEB"/>
<path fill-rule="evenodd" clip-rule="evenodd" d="M27.5864 27.8394C28.3954 24.9984 29.1974 22.1774 30.0004 19.3564H31.5954C31.5164 19.6504 31.4414 19.9344 31.3604 20.2174C31.0634 21.2674 30.7644 22.3174 30.4664 23.3674C30.1344 24.5364 29.8024 25.7064 29.4704 26.8754C29.3894 27.1604 29.1894 27.8404 29.1894 27.8404L27.5864 27.8394Z" fill="#EBEBEB"/>
<path fill-rule="evenodd" clip-rule="evenodd" d="M35.5703 27.8505C34.5983 27.8585 33.3763 27.8555 32.3003 27.8555C33.1083 25.0125 33.9173 22.1515 34.7183 19.3315H37.9523C37.8703 19.6255 37.7913 19.9105 37.7123 20.1945C37.1203 22.3195 36.5283 24.4445 35.9353 26.5695L35.5703 27.8505Z" fill="#EBEBEB"/>
<path fill-rule="evenodd" clip-rule="evenodd" d="M29.8135 27.8394C30.6225 24.9984 31.4245 22.1774 32.2275 19.3564H33.8225C33.7435 19.6504 33.6685 19.9344 33.5875 20.2174C33.2905 21.2674 32.9915 22.3174 32.6935 23.3674C32.3615 24.5364 32.0295 25.7064 31.6975 26.8754C31.6165 27.1604 31.4165 27.8404 31.4165 27.8404L29.8135 27.8394Z" fill="#EBEBEB"/>
<path fill-rule="evenodd" clip-rule="evenodd" d="M25.7949 27.839C26.5849 24.998 27.3689 22.177 28.1529 19.356H29.1119C29.0319 19.65 28.9569 19.934 28.8779 20.217C28.5869 21.267 28.2949 22.317 28.0039 23.367C27.6789 24.536 27.3549 25.706 27.0299 26.875C26.9509 27.16 26.8429 27.555 26.7579 27.839H25.7949Z" fill="#EBEBEB"/>
</g>
<defs>
<clipPath id="clip0_1054_145527">
<rect width="60" height="60" fill="white"/>
</clipPath>
</defs>
</svg>
