<svg width="60" height="60" viewBox="0 0 60 60" fill="none" xmlns="http://www.w3.org/2000/svg">
<g clip-path="url(#clip0_924_109945)">
<path d="M12.9199 35.7129C12.6349 35.5757 12.3271 35.5598 12.0171 35.5598H11V39.3877H11.5946C11.5946 39.171 11.5803 38.9459 11.6732 38.7435C11.8232 38.4176 12.1724 38.2611 12.4774 38.1133C12.8045 37.9552 13.1671 37.8009 13.3841 37.4943C13.5765 37.2228 13.6289 36.8629 13.5728 36.5383C13.5083 36.1673 13.2544 35.8741 12.9199 35.7129ZM12.8905 37.1763C12.7493 37.3877 12.5104 37.5065 12.289 37.6169C12.0474 37.7376 11.7986 37.8573 11.5946 38.0382V36.1133H12.1584C12.474 36.1133 12.8216 36.2103 12.9464 36.5346C13.0224 36.7323 13.0093 36.9976 12.8905 37.1763Z" fill="#1E1D21"/>
<path d="M17.2922 35.6659C16.7771 35.3746 16.0387 35.4607 15.6405 35.9094C15.4469 36.1273 15.3487 36.408 15.3312 36.6964C15.3268 36.7694 15.3284 39.3877 15.3284 39.3877H15.9171V38.1195C16.2638 38.0756 16.6521 38.1092 16.943 38.3207C17.2037 38.5099 17.3181 38.808 17.3187 39.123C17.3187 39.2112 17.3187 39.3877 17.3187 39.3877H17.9077V36.8208C17.9071 36.35 17.7141 35.9044 17.2922 35.6659ZM17.2863 37.9508C16.9364 37.596 16.3998 37.4719 15.9171 37.5489V36.9234C15.9171 36.8083 15.9143 36.6933 15.9439 36.5807C16.0004 36.3649 16.1644 36.1869 16.3764 36.1158C16.5975 36.0413 16.8535 36.075 17.0412 36.215C17.2295 36.3556 17.3165 36.5717 17.3187 36.8024C17.3203 36.982 17.3187 37.1619 17.3187 37.3416V37.988C17.3078 37.9758 17.2978 37.9624 17.2863 37.9508Z" fill="#1E1D21"/>
<path d="M21.9564 37.9655C21.8884 37.9293 21.8157 37.8994 21.7397 37.8754C21.9286 37.7715 22.1157 37.6434 22.2479 37.4703C22.3705 37.3097 22.4403 37.1245 22.4625 36.9243C22.5083 36.5046 22.3711 36.1046 22.0256 35.8486C21.5654 35.5068 20.9832 35.5598 20.4428 35.5598H19.8806V39.3877H20.4752C20.4752 39.2742 20.4712 39.1598 20.4765 39.0463C20.4883 38.7934 20.6 38.5492 20.8211 38.4139C21.0371 38.282 21.3321 38.2664 21.5626 38.3696C21.7949 38.4738 21.9455 38.697 21.9832 38.9452C22.0053 39.0899 21.9947 39.2418 21.9947 39.3877H22.5953C22.5953 39.1775 22.6068 38.9636 22.5604 38.7572C22.4833 38.417 22.2638 38.1298 21.9564 37.9655ZM21.0583 36.1133C21.4369 36.1133 21.8198 36.2982 21.861 36.7123C21.8809 36.9116 21.8373 37.1089 21.7047 37.262C21.5597 37.4292 21.3437 37.5302 21.1478 37.6244C20.9102 37.7388 20.6717 37.8579 20.4752 38.0366V36.1133H21.0583Z" fill="#1E1D21"/>
<path d="M24.4443 36.0967C24.6383 36.0449 24.8391 36.0209 25.039 36.0084V35.5607H24.4443V36.0967Z" fill="#1E1D21"/>
<path d="M24.4443 36.4314V39.3877H25.039V36.3431C24.8391 36.3515 24.638 36.3808 24.4443 36.4314Z" fill="#1E1D21"/>
<path d="M29.0084 37.5507C28.7952 37.3832 28.5398 37.2869 28.2875 37.1946C28.0537 37.1095 27.7817 37.0194 27.6127 36.8263C27.4565 36.6483 27.4914 36.3661 27.6523 36.2043C27.8189 36.0371 28.0861 35.9997 28.3053 36.0692C28.5529 36.1475 28.7022 36.3705 28.7022 36.6262H29.2909C29.2909 36.3455 29.2011 36.0758 29.0081 35.8691C28.821 35.6689 28.5632 35.5498 28.2934 35.5145C28.0131 35.4777 27.7225 35.5142 27.4746 35.6555C27.242 35.7877 27.0459 35.9978 26.9626 36.2557C26.8831 36.502 26.9006 36.8095 27.0272 37.0377C27.1684 37.2919 27.4235 37.4447 27.6838 37.556C27.967 37.6767 28.2934 37.7509 28.5466 37.9314C28.6486 38.0041 28.7334 38.0973 28.7637 38.2217C28.7933 38.3433 28.7824 38.4805 28.7259 38.5928C28.5884 38.8662 28.246 38.9498 27.9657 38.8959C27.6514 38.8357 27.4244 38.5731 27.4244 38.2513H26.8413C26.8413 38.5628 26.9426 38.8566 27.1656 39.0783C27.3864 39.2984 27.6929 39.4172 28.0006 39.4419C28.3234 39.4677 28.6564 39.4023 28.9236 39.2133C29.1693 39.039 29.3352 38.769 29.3673 38.4681C29.4044 38.1169 29.2909 37.7727 29.0084 37.5507Z" fill="#1E1D21"/>
<path d="M34.5502 37.6338C34.6817 37.4704 34.8099 37.2983 34.8969 37.1062C34.9826 36.9166 35.0135 36.7067 34.9904 36.5C34.9465 36.1065 34.6743 35.78 34.3194 35.6179C33.9568 35.4523 33.5 35.4601 33.1451 35.6416C32.7868 35.8246 32.5299 36.1742 32.5084 36.5814C32.4862 36.9977 32.6799 37.3656 33.0073 37.616L33.3428 37.1863C33.2224 37.0713 33.127 36.9319 33.0996 36.7647C33.0731 36.6038 33.1005 36.4414 33.1984 36.3089C33.3905 36.0491 33.7762 35.9709 34.0615 36.1143C34.204 36.1857 34.3238 36.3098 34.3749 36.4623C34.4282 36.621 34.403 36.8034 34.3353 36.9537C34.2667 37.1056 34.1576 37.2353 34.0544 37.3644C33.6568 37.8617 33.2592 38.3587 32.862 38.8558C32.7201 39.0335 32.5779 39.2112 32.436 39.3887H35.1273V38.8411H33.5835L34.5502 37.6338Z" fill="#1E1D21"/>
<path d="M40.1446 36.0724C39.5516 35.4928 38.6227 35.3369 37.8699 35.6842C37.1107 36.0347 36.6535 36.8408 36.7324 37.6714C36.8098 38.4859 37.4184 39.1841 38.2095 39.3846C39.0121 39.5879 39.8927 39.2885 40.3732 38.6075C40.8562 37.9228 40.8422 36.9614 40.338 36.292C40.279 36.214 40.2145 36.1407 40.1446 36.0724ZM40.0121 38.0247C39.7798 38.5701 39.2316 38.9206 38.6376 38.8847C38.062 38.8504 37.5622 38.4379 37.3954 37.8894C37.2242 37.3263 37.4275 36.6973 37.8946 36.3406C38.3639 35.9826 39.0283 35.9699 39.5132 36.3057C40.0552 36.6811 40.2706 37.4167 40.0121 38.0247Z" fill="#1E1D21"/>
<path d="M44.5143 37.6338C44.6458 37.4704 44.774 37.2983 44.861 37.1062C44.9468 36.9166 44.9776 36.7067 44.9545 36.5C44.9103 36.1065 44.6384 35.78 44.2835 35.6179C43.9209 35.4523 43.4641 35.4601 43.1092 35.6416C42.7509 35.8246 42.494 36.1742 42.4725 36.5814C42.4503 36.9977 42.6437 37.3656 42.9714 37.616L43.3069 37.1863C43.1865 37.0713 43.0911 36.9319 43.0637 36.7647C43.0372 36.6038 43.0643 36.4414 43.1625 36.3089C43.3546 36.0491 43.7403 35.9709 44.0256 36.1143C44.1681 36.1857 44.2879 36.3098 44.339 36.4623C44.3923 36.621 44.3671 36.8034 44.2994 36.9537C44.2308 37.1056 44.1217 37.2353 44.0182 37.3644C43.6209 37.8617 43.2233 38.3587 42.8261 38.8558C42.6839 39.0335 42.542 39.2112 42.4001 39.3887H45.0914V38.8411H43.5476L44.5143 37.6338Z" fill="#1E1D21"/>
<path d="M48.7072 36.5845V37.8819C48.4241 37.6802 48.0702 37.6188 47.7739 37.4413C47.5179 37.2882 47.4366 37.0204 47.4353 36.7369C47.4338 36.4594 47.4353 35.5598 47.4353 35.5598H46.8404C46.8404 35.5598 46.8397 36.3565 46.8404 36.755C46.841 37.1629 46.9414 37.5617 47.2753 37.8242C47.4811 37.9861 47.7287 38.0859 47.9741 38.1716C48.193 38.2483 48.4256 38.3444 48.5759 38.5293C48.6941 38.6749 48.7072 38.8492 48.7072 39.0288V39.3877H49.2785V36.5845H48.7072Z" fill="#1E1D21"/>
<path d="M29.8775 48.8569C29.8775 50.5925 28.4696 52 26.734 52C24.9982 52 23.5916 50.5925 23.5916 48.8569C23.5916 47.121 24.9982 45.7141 26.734 45.7141C28.4696 45.7141 29.8775 47.121 29.8775 48.8569ZM26.734 46.2379C25.2878 46.2379 24.1154 47.4107 24.1154 48.8569C24.1154 50.3031 25.2878 51.4758 26.734 51.4758C28.1809 51.4758 29.3536 50.3031 29.3536 48.8569C29.3536 47.4107 28.1809 46.2379 26.734 46.2379Z" fill="#292B2E"/>
<path d="M36.6873 48.8569C36.6873 50.5925 35.2798 52 33.5442 52C31.8084 52 30.4011 50.5925 30.4011 48.8569C30.4011 47.121 31.8084 45.7141 33.5442 45.7141C35.2798 45.7141 36.6873 47.121 36.6873 48.8569ZM33.5442 46.2379C32.0974 46.2379 30.9253 47.4107 30.9253 48.8569C30.9253 50.3031 32.0974 51.4758 33.5442 51.4758C34.9908 51.4758 36.1635 50.3031 36.1635 48.8569C36.1635 47.4107 34.9908 46.2379 33.5442 46.2379Z" fill="#999BA4"/>
<path d="M23.3301 42.8342C21.5939 42.8342 20.187 44.2405 20.187 45.9763C20.187 47.7119 21.5939 49.1191 23.3301 49.1191C23.4218 49.1191 23.5119 49.1138 23.602 49.1064C23.5958 49.0243 23.5914 48.9411 23.5914 48.8572C23.5914 48.7634 23.5967 48.6723 23.6042 48.5813C23.5138 48.59 23.4227 48.5947 23.3301 48.5947C21.8833 48.5947 20.7106 47.4229 20.7106 45.9763C20.7106 44.5295 21.8833 43.3568 23.3301 43.3568C24.7763 43.3568 25.9491 44.5295 25.9491 45.9763C25.9491 47.1379 25.1926 48.122 24.1449 48.4649C24.1259 48.5931 24.1153 48.7244 24.1153 48.8572C24.1153 48.9118 24.1175 48.9645 24.1206 49.0184C25.4736 48.667 26.4723 47.4378 26.4723 45.9763C26.4723 44.2405 25.0657 42.8342 23.3301 42.8342Z" fill="#43474B"/>
<path d="M36.9488 42.8335C35.2974 42.8335 33.9444 44.107 33.8169 45.726C33.994 45.7412 34.1674 45.7709 34.3351 45.8151C34.4184 44.4438 35.5568 43.3568 36.9488 43.3568C38.3959 43.3568 39.5684 44.5295 39.5684 45.9757C39.5684 47.4229 38.3959 48.5947 36.9488 48.5947C35.6363 48.5947 34.5481 47.6283 34.3595 46.3683C34.1867 46.3119 34.0052 46.2732 33.8188 46.2532C33.9588 47.8585 35.3068 49.1191 36.9488 49.1191C38.6844 49.1191 40.0916 47.7119 40.0916 45.9757C40.0916 44.2405 38.6844 42.8335 36.9488 42.8335Z" fill="#43474B"/>
<path d="M30.1396 42.8327C28.4876 42.8327 27.1343 44.1077 27.0071 45.7251C27.1848 45.741 27.3576 45.7713 27.5259 45.8143C27.6092 44.4429 28.747 43.3559 30.1396 43.3559C31.5861 43.3559 32.7585 44.5287 32.7585 45.9749C32.7585 47.137 32.0021 48.1211 30.955 48.4641C30.9363 48.5929 30.9254 48.7235 30.9254 48.8564C30.9254 48.9106 30.9269 48.9636 30.9307 49.0176C32.283 48.6662 33.2824 47.437 33.2824 45.9749C33.2824 44.2396 31.8755 42.8327 30.1396 42.8327Z" fill="#1E1D21"/>
<path d="M30.4015 48.8562C30.4015 48.7624 30.4061 48.6713 30.4142 48.5803C30.3235 48.589 30.2321 48.5937 30.1395 48.5937C28.8262 48.5937 27.7389 47.6274 27.549 46.3676C27.3762 46.3109 27.196 46.2725 27.0095 46.2529C27.1495 47.8575 28.4972 49.1182 30.1395 49.1182C30.2312 49.1182 30.3219 49.1129 30.4114 49.1054C30.4046 49.0234 30.4015 48.9401 30.4015 48.8562Z" fill="#1E1D21"/>
<path d="M31.488 29.0043C31.1594 28.8821 30.6065 28.8709 30.1391 29.2513C29.6717 28.8709 29.1188 28.8821 28.7902 29.0043C28.5155 29.1066 28.3 29.1749 27.8953 29.1715C28.2963 30.0074 29.1506 30.584 30.1391 30.584C31.1276 30.584 31.9819 30.0074 32.3829 29.1715C31.9782 29.1749 31.7627 29.1066 31.488 29.0043Z" fill="#43474B"/>
<path d="M30.1393 7.99935C23.3744 7.99935 17.8899 13.4836 17.8899 20.2488C17.8899 26.0476 21.9201 30.9057 27.3323 32.1748C23.0314 29.8739 21.2778 24.598 23.3517 20.1786C23.6869 21.9238 24.8247 23.4789 26.5247 24.2858C24.3074 19.0997 25.9401 13.0031 30.516 9.6314C29.6158 12.7137 30.9984 15.5341 33.964 17.6635C37.3563 20.0988 37.4997 25.0682 34.506 27.7545C35.6952 27.4776 36.8016 26.8228 37.6279 25.8203C37.1181 28.447 35.471 30.8237 32.9456 32.1748C38.3582 30.9057 42.3881 26.0476 42.3881 20.2488C42.3881 13.4836 36.9042 7.99935 30.1393 7.99935Z" fill="#43474B"/>
<path d="M39.0725 31.3747H39.3039V32.1758H39.4152V31.3747H39.6466V31.2703H39.0725V31.3747ZM40.6706 31.2703C40.4978 31.2703 40.36 31.3454 40.293 31.4695C40.2262 31.3454 40.0884 31.2703 39.9154 31.2703H39.8555V32.1758H39.9671V31.3819H39.9712C40.133 31.3819 40.2375 31.496 40.2375 31.6716V31.897H40.3488V31.6716C40.3488 31.496 40.4532 31.3819 40.6148 31.3819H40.6188V32.1758H40.7304V31.2703H40.6706Z" fill="#D6C278"/>
</g>
<defs>
<clipPath id="clip0_924_109945">
<rect width="60" height="60" fill="white"/>
</clipPath>
</defs>
</svg>
