<svg width="60" height="60" viewBox="0 0 60 60" fill="none" xmlns="http://www.w3.org/2000/svg">
<path d="M30 52C42.1503 52 52 42.1503 52 30C52 17.8497 42.1503 8 30 8C17.8497 8 8 17.8497 8 30C8 42.1503 17.8497 52 30 52Z" fill="#D6C278"/>
<path fill-rule="evenodd" clip-rule="evenodd" d="M33.75 16.875C33.75 15.8395 34.5894 15 35.625 15H43.125C44.1606 15 45 15.8395 45 16.875V24.375C45 25.4105 44.1606 26.25 43.125 26.25C42.0894 26.25 41.25 25.4105 41.25 24.375V18.75H35.625C34.5894 18.75 33.75 17.9105 33.75 16.875ZM15.5492 32.4242C16.2814 31.692 17.4686 31.692 18.2008 32.4242L21.5625 35.7859L24.9242 32.4242C25.6564 31.692 26.8436 31.692 27.5758 32.4242C28.308 33.1564 28.308 34.3436 27.5758 35.0758L24.2141 38.4375L27.5758 41.7992C28.308 42.5314 28.308 43.7186 27.5758 44.4508C26.8436 45.183 25.6564 45.183 24.9242 44.4508L21.5625 41.0891L18.2008 44.4508C17.4686 45.183 16.2814 45.183 15.5492 44.4508C14.8169 43.7186 14.8169 42.5314 15.5492 41.7992L18.9109 38.4375L15.5492 35.0758C14.8169 34.3436 14.8169 33.1564 15.5492 32.4242ZM18.75 21.5625C18.75 20.0092 20.0092 18.75 21.5625 18.75C23.1158 18.75 24.375 20.0092 24.375 21.5625C24.375 23.1158 23.1158 24.375 21.5625 24.375C20.0092 24.375 18.75 23.1158 18.75 21.5625ZM21.5625 15C17.9381 15 15 17.9381 15 21.5625C15 25.1869 17.9381 28.125 21.5625 28.125C25.1869 28.125 28.125 25.1869 28.125 21.5625C28.125 17.9381 25.1869 15 21.5625 15ZM38.4375 35.625C36.8842 35.625 35.625 36.8842 35.625 38.4375C35.625 39.9908 36.8842 41.25 38.4375 41.25C39.9908 41.25 41.25 39.9908 41.25 38.4375C41.25 36.8842 39.9908 35.625 38.4375 35.625ZM31.875 38.4375C31.875 34.8131 34.8131 31.875 38.4375 31.875C42.0619 31.875 45 34.8131 45 38.4375C45 42.0619 42.0619 45 38.4375 45C34.8131 45 31.875 42.0619 31.875 38.4375ZM33.75 28.125C34.7856 28.125 35.625 27.2856 35.625 26.25C35.625 25.2145 34.7856 24.375 33.75 24.375C32.7144 24.375 31.875 25.2145 31.875 26.25C31.875 27.2856 32.7144 28.125 33.75 28.125ZM31.875 30C31.875 31.0356 31.0356 31.875 30 31.875C28.9644 31.875 28.125 31.0356 28.125 30C28.125 28.9644 28.9644 28.125 30 28.125C31.0356 28.125 31.875 28.9644 31.875 30ZM37.5 24.375C38.5356 24.375 39.375 23.5355 39.375 22.5C39.375 21.4645 38.5356 20.625 37.5 20.625C36.4644 20.625 35.625 21.4645 35.625 22.5C35.625 23.5355 36.4644 24.375 37.5 24.375Z" fill="white"/>
</svg>
