<svg width="60" height="60" viewBox="0 0 60 60" fill="none" xmlns="http://www.w3.org/2000/svg">
<path d="M30.9836 13.2324H29.5566V20.3676H30.9836V13.2324Z" fill="#7F7774"/>
<path d="M24.3242 13.2324H22.8972V20.3676H24.3242V13.2324Z" fill="#7F7774"/>
<path d="M37.6433 13.2324H36.2163V20.3676H37.6433V13.2324Z" fill="#554F4E"/>
<path d="M32.1729 12.2811V9.90274C32.1729 8.85181 31.321 8 30.2702 8C29.2193 8 28.3674 8.85181 28.3674 9.90274V12.2811C28.3674 13.332 29.2192 14.1839 30.2702 14.1839C31.321 14.1838 32.1729 13.3319 32.1729 12.2811Z" fill="#3891E9"/>
<path d="M25.5135 12.2811V9.90274C25.5135 8.85181 24.6616 8 23.6107 8C22.5599 8 21.708 8.85181 21.708 9.90274V12.2811C21.708 13.332 22.5598 14.1839 23.6107 14.1839C24.6617 14.1839 25.5135 13.3319 25.5135 12.2811Z" fill="#68AEF4"/>
<path d="M38.8325 12.2811V9.90274C38.8325 8.85181 37.9807 8 36.9298 8C35.879 8 35.0271 8.85181 35.0271 9.90274V12.2811C35.0271 13.332 35.8789 14.1839 36.9298 14.1839C37.9808 14.1839 38.8325 13.3319 38.8325 12.2811Z" fill="#68AEF4"/>
<path d="M37.8811 45.5788V49.3842H19.8054V27.0273H37.8811V30.8327L33.1244 38.2057L37.8811 45.5788Z" fill="#C08577"/>
<path d="M40.7352 27.0273H35.0271V49.3841H40.7352V27.0273Z" fill="#AB5D4A"/>
<path d="M38.8323 48.4326L36.9297 49.8596L38.8323 51.2866H41.6864V48.4326H38.8323Z" fill="#D5AEA4"/>
<path d="M37.881 30.833V45.579H35.0269L33.1243 38.206L35.0269 30.833H37.881Z" fill="#D5AEA4"/>
<path d="M35.027 30.832H22.6594V45.578H35.027V30.832Z" fill="#EAD6D2"/>
<path d="M33.1243 20.3672L38.8323 27.978H41.6864V20.3672H33.1243Z" fill="#D5AEA4"/>
<path d="M38.8324 20.3672H18.854V27.978H38.8324V20.3672Z" fill="#EAD6D2"/>
<path d="M44.5405 19.416V22.2701H41.6864L40.7351 20.8431L41.6864 19.416H44.5405Z" fill="#AB5D4A"/>
<path d="M38.8324 48.4326H18.854V51.2867H38.8324V48.4326Z" fill="#EAD6D2"/>
<path d="M41.6865 19.416H16V22.2701H41.6865V19.416Z" fill="#C08577"/>
<path d="M41.9243 52.0003H18.6161C18.222 52.0003 17.9026 51.6809 17.9026 51.2868C17.9026 50.8928 18.2219 50.5732 18.6161 50.5732H41.9243C42.3184 50.5732 42.6378 50.8927 42.6378 51.2868C42.6378 51.6809 42.3184 52.0003 41.9243 52.0003Z" fill="#AB5D4A"/>
<path d="M38.1189 25.8382H22.4215C22.0274 25.8382 21.708 25.5188 21.708 25.1247C21.708 24.7306 22.0274 24.4111 22.4215 24.4111H38.1189C38.513 24.4111 38.8324 24.7306 38.8324 25.1247C38.8323 25.5187 38.513 25.8382 38.1189 25.8382Z" fill="white"/>
</svg>
