<svg width="60" height="60" viewBox="0 0 60 60" fill="none" xmlns="http://www.w3.org/2000/svg">
<g clip-path="url(#clip0_1054_145167)">
<mask id="mask0_1054_145167" style="mask-type:luminance" maskUnits="userSpaceOnUse" x="8" y="8" width="44" height="44">
<path fill-rule="evenodd" clip-rule="evenodd" d="M8 8H51.9978V52H8V8Z" fill="white"/>
</mask>
<g mask="url(#mask0_1054_145167)">
<path fill-rule="evenodd" clip-rule="evenodd" d="M51.2421 24.2997C49.7371 18.6899 46.1911 14.176 41.6201 11.3319C36.6321 8.22727 30.4221 7.11275 24.2991 8.75613C18.5001 10.3114 13.8701 14.0477 11.0471 18.8446C8.16014 23.7512 7.16414 29.7665 8.75614 35.7005C9.73914 39.3633 11.5901 42.56 14.0301 45.1298C19.4041 50.7925 27.6291 53.4084 35.6991 51.2431C45.5801 48.5939 52.0731 39.6199 51.9971 29.8439C51.9831 28.0125 51.7391 26.1517 51.2421 24.2997" fill="#FACB2E"/>
</g>
<path fill-rule="evenodd" clip-rule="evenodd" d="M29.0116 13.93C23.1016 17.5046 21.7506 25.5511 25.9946 31.9043C30.2386 38.2574 38.4716 40.5129 44.3816 36.9402C50.2926 33.3655 50.1616 25.084 46.3796 19.4614C42.6276 13.878 34.9236 10.3572 29.0116 13.93" fill="#F5F5F5"/>
<mask id="mask1_1054_145167" style="mask-type:luminance" maskUnits="userSpaceOnUse" x="15" y="12" width="37" height="40">
<path fill-rule="evenodd" clip-rule="evenodd" d="M15.3296 12.5908H51.9977V51.9996H15.3296V12.5908Z" fill="white"/>
</mask>
<g mask="url(#mask1_1054_145167)">
<path fill-rule="evenodd" clip-rule="evenodd" d="M43.4346 12.5908C44.0996 14.1794 44.6126 15.859 44.9416 17.6189C47.4546 31.0666 38.5906 44.007 25.1436 46.521C21.7896 47.1478 18.4666 47.0665 15.3296 46.3839C20.2416 50.7754 27.0616 52.9261 34.0406 51.6216C45.9806 49.3886 53.8516 37.8987 51.6196 25.9582C50.5856 20.4287 47.5646 15.7767 43.4346 12.5908" fill="black" fill-opacity="0.1"/>
</g>
<path fill-rule="evenodd" clip-rule="evenodd" d="M38.7644 22.3072C37.9414 20.5405 36.7214 19.8324 35.1014 20.1801C33.7194 20.6257 33.3524 21.701 34.0004 23.4061C34.7394 24.9858 35.8864 25.6361 37.4384 25.356C38.9734 24.9251 39.4144 23.9085 38.7644 22.3072M34.1714 31.0608L36.9564 29.8278C37.7554 30.9795 38.7094 31.4163 39.8204 31.1421C41.5294 30.7719 41.7024 28.915 40.3394 25.5715C40.0334 26.7869 39.1584 27.6007 37.7124 28.0091C34.6724 28.6046 32.4224 27.399 30.9584 24.3913C29.6674 20.8754 30.6914 18.6013 34.0324 17.5671C37.9264 16.4496 40.9834 18.5974 43.2014 24.0084C45.5544 29.3891 44.7624 32.5896 40.8274 33.614C38.0284 34.3055 35.8094 33.4544 34.1714 31.0608" fill="black"/>
</g>
<defs>
<clipPath id="clip0_1054_145167">
<rect width="60" height="60" fill="white"/>
</clipPath>
</defs>
</svg>
