<svg width="60" height="60" viewBox="0 0 60 60" fill="none" xmlns="http://www.w3.org/2000/svg">
<g clip-path="url(#clip0_1054_145618)">
<mask id="mask0_1054_145618" style="mask-type:luminance" maskUnits="userSpaceOnUse" x="12" y="12" width="9" height="39">
<path fill-rule="evenodd" clip-rule="evenodd" d="M12 12.1772H20.5734V50.3138H12V12.1772Z" fill="white"/>
</mask>
<g mask="url(#mask0_1054_145618)">
<path fill-rule="evenodd" clip-rule="evenodd" d="M13.3793 50.3045L12.5003 50.1495C12.1713 50.0915 11.9513 49.7775 12.0093 49.4485L18.4933 12.6775C18.5513 12.3485 18.8653 12.1285 19.1943 12.1865L20.0733 12.3415C20.4023 12.3995 20.6223 12.7135 20.5643 13.0425L14.0803 49.8135C14.0223 50.1425 13.7083 50.3625 13.3793 50.3045" fill="#B48255"/>
</g>
<path fill-rule="evenodd" clip-rule="evenodd" d="M44.9965 42.3208C36.2255 36.1168 25.0645 43.4638 16.2935 37.2598C17.6205 29.7318 18.9485 22.2038 20.2755 14.6758C29.0465 20.8798 40.2075 13.5328 48.9785 19.7368C47.6515 27.2648 46.3235 34.7928 44.9965 42.3208" fill="#3C4646"/>
<path fill-rule="evenodd" clip-rule="evenodd" d="M24.7747 22.7298C22.8677 22.3558 21.0177 21.6578 19.2637 20.4168C19.6007 18.5028 19.9387 16.5898 20.2757 14.6758C22.0297 15.9168 23.8797 16.6158 25.7867 16.9888C25.4497 18.9028 25.1117 20.8158 24.7747 22.7298" fill="#EBEBEB"/>
<path fill-rule="evenodd" clip-rule="evenodd" d="M29.6763 28.4995C27.6923 28.5595 25.7283 28.5115 23.8213 28.1375C24.1583 26.2245 24.4963 24.3105 24.8333 22.3975C26.7403 22.7705 28.7053 22.8185 30.6883 22.7585C30.3513 24.6725 30.0133 26.5855 29.6763 28.4995" fill="#EBEBEB"/>
<path fill-rule="evenodd" clip-rule="evenodd" d="M36.5999 22.803C34.6159 22.863 32.6139 23.032 30.6299 23.092C30.9669 21.178 31.3049 19.265 31.6419 17.351C33.6259 17.291 35.6289 17.122 37.6119 17.062C37.2749 18.976 36.9369 20.889 36.5999 22.803" fill="#EBEBEB"/>
<path fill-rule="evenodd" clip-rule="evenodd" d="M41.5015 28.5728C39.5945 28.1988 37.6295 28.1508 35.6465 28.2108C35.9835 26.2978 36.3215 24.3838 36.6585 22.4708C38.6425 22.4108 40.6065 22.4588 42.5135 22.8318C42.1765 24.7458 41.8385 26.6588 41.5015 28.5728" fill="#EBEBEB"/>
<path fill-rule="evenodd" clip-rule="evenodd" d="M22.7586 34.1648C20.8516 33.7908 19.0016 33.0928 17.2476 31.8518C17.5846 29.9378 17.9226 28.0248 18.2596 26.1108C20.0136 27.3518 21.8636 28.0508 23.7706 28.4238C23.4336 30.3378 23.0956 32.2508 22.7586 34.1648" fill="#EBEBEB"/>
<path fill-rule="evenodd" clip-rule="evenodd" d="M27.6602 39.9345C25.6762 39.9945 23.7122 39.9465 21.8052 39.5725C22.1422 37.6595 22.4802 35.7455 22.8172 33.8325C24.7242 34.2055 26.6892 34.2535 28.6722 34.1935C28.3352 36.1075 27.9972 38.0205 27.6602 39.9345" fill="#EBEBEB"/>
<path fill-rule="evenodd" clip-rule="evenodd" d="M34.5838 34.2376C32.5998 34.2976 30.5978 34.4666 28.6138 34.5266C28.9508 32.6126 29.2888 30.6996 29.6258 28.7856C31.6098 28.7256 33.6128 28.5576 35.5958 28.4966C35.2588 30.4106 34.9208 32.3236 34.5838 34.2376" fill="#EBEBEB"/>
<path fill-rule="evenodd" clip-rule="evenodd" d="M47.9666 25.4778C46.2126 24.2368 44.3626 23.5388 42.4556 23.1648C42.7926 21.2508 43.1306 19.3378 43.4676 17.4238C45.3746 17.7978 47.2246 18.4968 48.9786 19.7368C48.6416 21.6508 48.3036 23.5638 47.9666 25.4778" fill="#EBEBEB"/>
<path fill-rule="evenodd" clip-rule="evenodd" d="M45.95 36.9129C44.196 35.6719 42.346 34.9729 40.439 34.5999C40.776 32.6859 41.114 30.7729 41.451 28.8589C43.358 29.2329 45.208 29.9319 46.962 31.1719C46.625 33.0859 46.287 34.9989 45.95 36.9129" fill="#EBEBEB"/>
<path fill-rule="evenodd" clip-rule="evenodd" d="M39.4854 40.0079C37.5784 39.6339 35.6134 39.5859 33.6304 39.6459C33.9674 37.7329 34.3054 35.8189 34.6424 33.9059C36.6264 33.8459 38.5904 33.8939 40.4974 34.2669C40.1604 36.1809 39.8224 38.0939 39.4854 40.0079" fill="#EBEBEB"/>
<path fill-rule="evenodd" clip-rule="evenodd" d="M21.8629 12.657C22.0799 11.426 21.2579 10.252 20.0269 10.035C18.7959 9.817 17.6209 10.64 17.4039 11.871C17.1869 13.102 18.0089 14.276 19.2409 14.493C20.4719 14.71 21.6459 13.888 21.8629 12.657" fill="#B48255"/>
<path fill-rule="evenodd" clip-rule="evenodd" d="M21.0441 12.3427C21.1111 11.9607 20.8571 11.5977 20.4751 11.5297C20.0931 11.4627 19.7301 11.7177 19.6621 12.0987C19.5951 12.4807 19.8501 12.8447 20.2311 12.9117C20.6131 12.9787 20.9771 12.7247 21.0441 12.3427" fill="white"/>
<path fill-rule="evenodd" clip-rule="evenodd" d="M18.4789 38.5108L22.4609 15.9268C21.7189 15.5868 20.9889 15.1808 20.2759 14.6758L16.2939 37.2598L18.3979 38.4728C18.4249 38.4858 18.4519 38.4988 18.4789 38.5108" fill="black" fill-opacity="0.3"/>
</g>
<defs>
<clipPath id="clip0_1054_145618">
<rect width="60" height="60" fill="white"/>
</clipPath>
</defs>
</svg>
