<svg width="36" height="36" xmlns="http://www.w3.org/2000/svg"><g fill="none"><path fill="#000" d="M0 0h36v36H0z"/><path d="M15.668 19.433c-.007.072-.008.123-.018.172-.02.097-.004.171.09.227.034.02.064.078.064.12.002.112-.018.224-.019.336-.006 1.586-.013 3.172-.016 4.758-.002 1.27-.002 2.54.002 3.81a.83.83 0 01-.093.426c-.052.093-.078.202-.122.32l.182-.028v.249l.284.033-.024.118c.279 0 .547 0 .816-.002.021 0 .056-.023.06-.04.018-.08.075-.077.135-.075a.963.963 0 00.715-.254.187.187 0 00.07-.157l-.016-3.574c-.001-.234.006-.47-.002-.703a.649.649 0 01.168-.447c.21-.255.506-.327.812-.377.18-.03.359-.058.537-.095.147-.03.226-.13.243-.277.014-.123.03-.247.03-.37.004-.442-.009-.883.006-1.324.007-.186.061-.371.108-.553a.211.211 0 01.182-.16c.717-.112 1.435-.226 2.152-.342.19-.03.377-.072.55-.105 0-.542-.005-1.06.002-1.58a1.422 1.422 0 00-.12-.587c-.117-.28-.38-.471-.68-.454a2.869 2.869 0 00-.72.11c-.49.16-.968.352-1.449.536-.431.165-.871.279-1.338.227-.178-.02-.323-.077-.377-.284-.038-.145-.076-.321-.292-.316-.035 0-.07-.007-.105-.005-.291.012-.584.013-.873.042a2.667 2.667 0 00-.551.124c-.127.042-.24.125-.226.288.01.126-.003.228-.167.213M17.896 3h.586l.713.067c.508.048 1.02.07 1.525.148 1.017.156 1.975.476 2.815 1.096.367.27.684.588.96.949.382.499.64 1.062.858 1.648.151.41.274.827.28 1.262.015.953.005 1.907.005 2.861v.643H19.42v-2.61c0-.056-.014-.114-.003-.167.04-.198-.028-.342-.203-.437-.099-.053-.196-.111-.3-.15-.52-.196-.997-.104-1.431.232a.429.429 0 00-.179.376c.009 1.544.005 3.088.005 4.632v.135l.034.015c.059-.073.114-.148.177-.218.242-.268.569-.367.906-.443.516-.115 1.043-.116 1.566-.12.537 0 1.075.016 1.611.049a5.76 5.76 0 011.965.436 3.5 3.5 0 011.1.732c.295.29.525.624.724.983.14.253.214.514.203.81-.023.644-.02 1.288-.025 1.932-.005.89-.006 1.781-.01 2.672-.004.777-.01 1.554-.017 2.332-.007.866-.017 1.732-.021 2.599-.004.578 0 1.156 0 1.735-.001.375.018.751-.011 1.124-.035.45-.187.877-.339 1.3-.047.13-.093.27-.174.378a6.306 6.306 0 01-.97 1.056 7.58 7.58 0 01-2.222 1.29c-.935.353-1.901.555-2.897.624-.111.008-.222.02-.333.029h-1.009c-.017-.007-.033-.017-.05-.02-.443-.048-.888-.078-1.327-.148a8.156 8.156 0 01-2.675-.904 5.459 5.459 0 01-1.535-1.219 3.91 3.91 0 01-.98-2.623c0-.632.013-1.264.019-1.896l.027-2.997c.004-.41.014-.819.02-1.228.004-.402.005-.803.01-1.205.004-.402.01-.804.017-1.206.006-.448.018-.896.018-1.344.001-.343-.017-.685-.017-1.028-.002-2.978-.002-5.956 0-8.934 0-.09.026-.18.037-.27.017-.142.012-.29.05-.425.073-.26.16-.518.26-.769.132-.33.264-.663.43-.978.422-.806 1.057-1.402 1.866-1.816.631-.322 1.305-.51 1.998-.638.244-.045.492-.069.733-.127.382-.09.762-.175 1.155-.197.09-.006.182-.019.273-.028" fill="#FFF"/><path d="M19.265 22.467c-.151-.038-.28-.079-.413-.1-.236-.04-.475-.058-.699.048-.142.067-.3.153-.308.328-.016.335-.006.671-.002 1.007.003.212.109.31.32.31.294.001.59-.01.884.004.23.01.376-.101.37-.373a25.89 25.89 0 01-.003-1.307c.005-.168-.03-.296-.154-.414a.51.51 0 00-.555-.11c.218.17.46.313.56.607m-3.597-3.034c.165.015.178-.087.167-.213-.015-.163.099-.246.226-.288a2.67 2.67 0 01.55-.124c.29-.03.583-.03.874-.042.035-.002.07.005.105.005.216-.005.254.171.292.316.054.207.2.264.377.284.467.052.907-.062 1.338-.227.481-.184.96-.377 1.45-.536.227-.074.477-.096.718-.11.301-.017.564.174.682.454.08.188.122.38.12.588-.008.518-.003 1.037-.003 1.579-.173.033-.36.074-.55.105-.717.116-1.435.23-2.152.342a.211.211 0 00-.182.16c-.047.182-.101.367-.108.553-.015.44-.002.882-.006 1.323-.001.124-.016.248-.03.371-.017.147-.096.247-.243.277-.178.037-.358.065-.537.095-.306.05-.602.122-.812.377a.649.649 0 00-.168.447c.008.234 0 .468.002.703l.016 3.574a.187.187 0 01-.07.157.961.961 0 01-.715.254c-.06-.002-.117-.005-.135.075-.004.017-.04.04-.06.04-.269.003-.537.002-.816.002l.024-.118-.284-.033v-.249l-.182.029c.044-.12.07-.228.122-.321a.831.831 0 00.093-.426c-.004-1.27-.004-2.54-.002-3.81.003-1.586.01-3.172.016-4.758 0-.112.021-.224.02-.336-.001-.042-.031-.1-.065-.12-.094-.056-.11-.13-.09-.227.01-.05.01-.1.018-.172" fill="#000"/><path d="M19.265 22.467c-.1-.294-.342-.437-.56-.608a.51.51 0 01.555.11c.124.12.159.247.154.415-.011.435-.008.871.002 1.307.007.272-.14.384-.369.373-.294-.013-.59-.003-.885-.003-.21 0-.316-.099-.319-.311-.004-.336-.014-.672.002-1.007.009-.175.166-.26.308-.328.224-.106.463-.088.699-.049.132.022.262.063.413.1" fill="#FFF"/></g></svg>