<svg width="60" height="60" viewBox="0 0 60 60" fill="none" xmlns="http://www.w3.org/2000/svg">
<path d="M10.0213 30.0133V16.6037C9.59832 10.1637 15.7185 5.91295 21.3198 9.06189L33.5388 16.1239L45.8182 23.1966C51.6363 26.4663 51.6007 33.4395 45.7862 36.7093L33.9901 43.6007L21.1669 50.9719C15.5621 54.1244 9.59832 49.5787 10.0213 43.423V30.0133Z" fill="url(#paint0_linear_1085_12655)"/>
<path fill-rule="evenodd" clip-rule="evenodd" d="M27.0525 27.9342C27.7207 28.4247 27.5288 29.8179 27.4719 30.0134C27.3333 30.479 26.9032 30.9303 26.5265 31.1649C26.1533 31.3959 25.183 31.6625 24.3549 31.858C24.6499 31.8509 24.9378 31.8473 25.2115 31.8437L26.7682 31.8082V31.7975C27.6531 31.7975 28.4564 31.435 29.0321 30.845C29.6115 30.2551 29.9704 29.4198 29.9704 28.4745C29.9704 27.5291 29.6115 26.6974 29.0321 26.1039C28.4564 25.5139 27.6531 25.1514 26.7682 25.1514H10.0212L24.5504 27.1737C24.8312 27.1808 26.395 27.4402 27.0525 27.9236V27.9342Z" fill="url(#paint1_linear_1085_12655)"/>
<path fill-rule="evenodd" clip-rule="evenodd" d="M20.1861 42.6308C19.1447 41.7032 17.0407 39.5743 17.1153 37.3245C17.1651 35.8958 17.1935 34.9433 18.3592 33.6318C17.126 34.9646 16.5893 36.0877 16.5395 37.5129C16.4649 39.7627 17.7266 41.7387 18.6222 42.8263C20.1932 44.7349 22.1621 47.2263 23.9321 49.3374L28.229 46.8851C26.1498 46.0428 22.0235 44.2622 20.1861 42.6237V42.6308Z" fill="url(#paint2_linear_1085_12655)"/>
<path fill-rule="evenodd" clip-rule="evenodd" d="M33.7165 43.761C33.0447 43.5228 31.6373 43.043 28.7443 42.119C27.4897 41.7173 25.6202 40.676 24.7708 40.1358C24.0706 39.6915 22.848 38.8208 22.521 38.5968C22.2829 38.4369 22.0839 38.0531 22.0732 37.9678C22.0377 37.7403 21.995 37.3707 22.0839 37.0899C22.1016 37.0259 22.3113 36.7416 22.5566 36.7416C22.8125 36.7416 25.9401 36.7487 25.9401 36.7487H26.7931C29.0144 36.7523 31.0118 35.7251 32.4761 34.2324C33.919 32.761 34.8147 30.7316 34.8147 28.4819C34.8147 26.2321 33.919 24.2027 32.4761 22.7313C31.0153 21.2386 28.993 20.3252 26.7717 20.3252H10.0212V25.1623H26.7646C27.6496 25.1623 28.4528 25.5248 29.0286 26.1148C29.6079 26.7048 29.9669 27.54 29.9669 28.4854C29.9669 29.4308 29.6079 30.2625 29.0286 30.856C28.4528 31.446 27.6496 31.8085 26.7646 31.8085V31.8192L25.2079 31.8547C25.4603 31.8547 25.7055 31.8547 25.933 31.8547H25.2079C22.9937 31.8689 19.9514 32.004 18.6399 33.3439C17.197 34.8153 17.1685 35.8033 17.1152 37.3351C17.0406 39.5849 19.1446 41.7138 20.186 42.6414C22.0306 44.2834 26.1782 46.0711 28.2502 46.9099L33.7165 43.7681V43.761Z" fill="white"/>
<path d="M10.0212 22.7098L23.175 24.0852V21.3379L10.0212 22.7098Z" fill="#FAC5A4"/>
<path d="M23.175 24.0849C23.9346 24.0849 24.5504 23.4691 24.5504 22.7094C24.5504 21.9498 23.9346 21.334 23.175 21.334C22.4154 21.334 21.7996 21.9498 21.7996 22.7094C21.7996 23.4691 22.4154 24.0849 23.175 24.0849Z" fill="#ED2D29"/>
<defs>
<linearGradient id="paint0_linear_1085_12655" x1="8.43257" y1="40.3842" x2="39.5736" y2="14.8906" gradientUnits="userSpaceOnUse">
<stop offset="0.05" stop-color="#EE3A34"/>
<stop offset="1" stop-color="#EB5C2A"/>
</linearGradient>
<linearGradient id="paint1_linear_1085_12655" x1="10.0212" y1="28.51" x2="29.9704" y2="28.51" gradientUnits="userSpaceOnUse">
<stop offset="0.05" stop-color="#282828"/>
<stop offset="1" stop-color="#282828" stop-opacity="0"/>
</linearGradient>
<linearGradient id="paint2_linear_1085_12655" x1="16.536" y1="41.49" x2="28.229" y2="41.49" gradientUnits="userSpaceOnUse">
<stop offset="0.05" stop-color="#282828"/>
<stop offset="1" stop-color="#282828" stop-opacity="0"/>
</linearGradient>
</defs>
</svg>
