<svg width="60" height="60" xmlns="http://www.w3.org/2000/svg"><g fill="none" fill-rule="evenodd"><path d="M0 0h60v60H0z"/><path d="M32.231 14.545c-4.726 1.351-9.494 5.211-10.585 6.13l-.003-.003s-.04.034-.113.102l-.115.1.002.003c-1.049.966-5.478 5.212-7.413 9.73-4.96 11.587-1.864 15.518-1.864 15.518s3.51 3.566 15.63.102c4.726-1.351 9.495-5.21 10.585-6.13l.003.004.114-.103.115-.1-.003-.003c1.049-.966 5.479-5.211 7.413-9.73 4.96-11.587 1.866-15.518 1.866-15.518s-3.514-3.566-15.633-.102" fill="#A15B31" fill-rule="nonzero"/><path d="M21.333 38.023c-2.64-2.995-8.173-5.327-8.174-5.326-.667 1.77-1.129 3.335-1.439 4.714 0 0 3.575.571 5.607 3.061 3.58 4.387 3.169 7.203 3.169 7.203 1.608-.139 2.844-.286 5.046-.84 0 0-.597-4.715-4.21-8.812M38.774 22.68c-2.657-2.98-4.29-8.69-4.3-8.721.951-.213 1.791-.427 2.485-.546 1.513-.26 2.363-.274 2.363-.274s.134 3.541 2.363 5.857c3.926 4.082 6.664 4.006 6.664 4.006-.33 1.581-.627 2.763-1.442 4.882 0 0-4.499-1.128-8.133-5.204" fill="#EBEBEB" fill-rule="nonzero"/><path d="M37.105 22.087s-.412.185-1.099.539v-.001c-.242-.229-1.847-2.01-2.263-1.396-.194.283.724.83.906.98.272.225.518.475.752.737a40.91 40.91 0 00-1.294.729c-.448-.448-2.03-2.097-2.467-1.465-.218.318.817.922 1.022 1.09.287.233.549.492.798.763-.47.287-.97.605-1.494.954-.503-.501-2.106-2.134-2.505-1.46-.205.345.86.96 1.072 1.13.286.233.55.49.803.759-.462.32-.935.659-1.418 1.023-.662-.568-2.15-1.802-2.482-1.156-.185.36.933.901 1.161 1.06.25.173.487.362.715.562-.481.378-.967.781-1.453 1.202-.742-.568-2.099-1.53-2.379-.915-.167.368.977.855 1.21 1.002.207.129.404.27.598.417-.52.473-1 .954-1.44 1.435-.775-.524-2.193-1.408-2.437-.776-.144.377 1.027.796 1.27.929.23.125.451.262.668.408-.43.5-.817.995-1.165 1.473-.74-.506-2.29-1.514-2.546-.85-.146.377 1.025.795 1.268.927.295.16.575.345.848.54a22.77 22.77 0 00-1.09 1.78c-.567-.39-2.493-1.757-2.78-1.011-.146.376 1.024.795 1.267.928.406.22.787.482 1.149.77-.494.98-.707 1.6-.707 1.6s.277-.416 1.043-1.326c.606.536 1.15 1.148 1.82 1.598.125.084.294.12.398.011.365-.378-.946-1.618-1.697-2.215.373-.427.822-.927 1.366-1.51.553.506 1.067 1.06 1.688 1.478.125.084.294.12.398.011.34-.352-.77-1.448-1.531-2.08a98.84 98.84 0 011.276-1.316c.532.492 1.03 1.022 1.632 1.426.125.084.293.12.397.011.328-.34-.698-1.375-1.455-2.016.422-.422.869-.864 1.354-1.336.504.525.972 1.09 1.55 1.53.12.09.286.137.396.034.352-.324-.64-1.445-1.36-2.127.405-.382.84-.777 1.288-1.176.466.537.898 1.108 1.442 1.565.115.096.278.15.394.054.362-.303-.542-1.438-1.224-2.156.4-.35.81-.697 1.214-1.04.42.563.806 1.153 1.307 1.64.106.104.263.17.383.08.376-.276-.449-1.477-1.074-2.236.454-.378.9-.745 1.324-1.088.444.584.828 1.213 1.355 1.73.102.101.255.166.379.087.421-.272-.53-1.607-1.128-2.307.407-.328.785-.629 1.119-.893.448.57.806 1.208 1.321 1.722.092.09.227.15.337.078.404-.264-.62-1.65-1.126-2.22.576-.45.926-.72.926-.72" fill="#FFF" fill-rule="nonzero"/><path d="M47.833 14.562s-.725-.737-2.656-1.215c.486 2.147.568 6.412-2.567 13.735-1.935 4.52-6.363 8.764-7.413 9.731l.003.003-.114.1-.114.102-.004-.003c-1.089.918-5.859 4.778-10.585 6.13-6.61 1.889-10.658 1.687-12.973 1.113.282 1.25.7 1.783.7 1.783s3.512 3.565 15.63.102c4.727-1.35 9.496-5.211 10.586-6.13l.003.003.114-.102.115-.1-.003-.003c1.05-.967 5.479-5.212 7.413-9.73 4.962-11.588 1.866-15.519 1.866-15.519" fill="#44302D" fill-rule="nonzero" opacity=".35"/></g></svg>