<svg width="60" height="60" xmlns="http://www.w3.org/2000/svg"><g fill="none" fill-rule="evenodd"><path d="M0 0h60v60H0z"/><path d="M11.604 35.094c-.165-.127-.323-.264-.48-.4.157.136.314.273.48.4m3.828 1.947c-.076-.023-.155-.04-.23-.064.075.024.154.041.23.064m-.945-.325c-.124-.048-.248-.095-.37-.148.122.053.246.1.37.148" fill="#CE2527" fill-rule="nonzero"/><path d="M17.51 33.477c.995-5.189 5.02-9.298 10.155-10.446.279-1.124.444-2.292.444-3.502 0-.321-.015-.637-.035-.952C25.922 15.796 22.558 14 18.769 14c-6.5 0-11.77 5.269-11.77 11.769a11.71 11.71 0 002.95 7.783c1.197.313 2.43.47 3.667.47 1.35 0 2.654-.199 3.895-.545" fill="#575961" fill-rule="nonzero"/><path d="M30 22.244c-.019-.061-.044-.12-.064-.18.021.065.039.132.059.197l.005-.017" fill="#CE2527" fill-rule="nonzero"/><path d="M12.088 35.439c-.163-.113-.327-.224-.483-.345.156.12.32.232.483.345m17.341-14.643c.057.123.114.245.167.37-.053-.125-.11-.247-.167-.37M11.123 34.694c-.126-.108-.256-.21-.377-.323.12.113.25.215.377.323m16.95-16.129v.012l.101.13c-.035-.046-.065-.096-.1-.142m1.714 3.086c.05.137.102.274.148.413-.046-.139-.097-.276-.148-.413" fill="#C4C4C4" fill-rule="nonzero"/><path d="M27.665 23.03a13.188 13.188 0 012.21-.313c.042-.152.075-.306.12-.456-.02-.065-.037-.132-.06-.197-.045-.14-.096-.276-.147-.413-.06-.163-.124-.325-.192-.485a11.576 11.576 0 00-1.421-2.458l-.101-.131c.02.315.035.632.035.952 0 1.21-.165 2.379-.444 3.502" fill="#CE2527" fill-rule="nonzero"/><path d="M27.665 23.03a13.188 13.188 0 012.21-.313c.042-.152.075-.306.12-.456-.02-.065-.037-.132-.06-.197-.045-.14-.096-.276-.147-.413-.06-.163-.124-.325-.192-.485a11.576 11.576 0 00-1.421-2.458l-.101-.131c.02.315.035.632.035.952 0 1.21-.165 2.379-.444 3.502" fill="#444650" fill-rule="nonzero"/><path d="M17.27 35.979c0-.856.085-1.691.241-2.502a14.471 14.471 0 01-3.895.545 14.48 14.48 0 01-3.666-.47c.01.01.017.023.026.033.244.274.501.536.77.786.121.113.251.216.377.323.158.136.316.273.481.4.157.12.32.232.483.345.144.099.288.198.436.29.313.197.636.378.967.544.206.104.414.204.627.296.122.053.246.099.37.148.236.092.472.183.715.26.075.025.154.042.23.065.622.184 1.263.324 1.923.404a13.422 13.422 0 01-.085-1.467" fill="#CE2527" fill-rule="nonzero"/><path d="M17.27 35.979c0-.856.085-1.691.241-2.502a14.471 14.471 0 01-3.895.545 14.48 14.48 0 01-3.666-.47c.01.01.017.023.026.033.244.274.501.536.77.786.121.113.251.216.377.323.158.136.316.273.481.4.157.12.32.232.483.345.144.099.288.198.436.29.313.197.636.378.967.544.206.104.414.204.627.296.122.053.246.099.37.148.236.092.472.183.715.26.075.025.154.042.23.065.622.184 1.263.324 1.923.404a13.422 13.422 0 01-.085-1.467" fill="#444650" fill-rule="nonzero"/><path d="M19.883 18.94a2.155 2.155 0 11-4.31.001 2.155 2.155 0 014.31-.002" fill="#FFF" fill-rule="nonzero"/><path d="M52.024 21.08c.059.137.11.277.164.415-.054-.138-.105-.278-.164-.414m.873 3.211c.015.12.035.24.046.362-.01-.121-.03-.241-.046-.362m-2.139-5.414c.099.137.2.27.294.412-.093-.141-.195-.275-.294-.412m-4.125 17.34c-.05.026-.104.048-.154.074.05-.025.104-.048.154-.074m4.114-3.544c-.124.17-.246.344-.379.507.133-.163.255-.336.38-.507m.768-1.19c-.097.175-.206.343-.311.513.105-.17.212-.338.31-.513m-2.305 2.918c-.093.087-.188.175-.284.26.097-.085.19-.173.285-.26m.745-.755c-.093.103-.183.208-.28.308.097-.1.187-.205.28-.308m-2.41 2.042c-.084.054-.17.104-.257.156.086-.052.173-.102.257-.156" fill="#509CF3" fill-rule="nonzero"/><path d="M50.57 19.529c0-.32-.014-.635-.035-.949-2.152-2.782-5.514-4.58-9.304-4.58-5.272 0-9.733 3.466-11.231 8.244.047.15.08.307.121.46.149-.005.295-.022.446-.022 5.98 0 11.048 3.969 12.715 9.411 4.351-2.501 7.288-7.185 7.288-12.564" fill="#282828" fill-rule="nonzero"/><path d="M50.535 18.565v.015c.076.098.15.197.223.298-.075-.104-.145-.212-.223-.313m1.198 12.496c-.072.141-.14.285-.217.423.077-.138.145-.28.217-.423m.44-.978c-.058.146-.115.291-.178.434.063-.143.12-.288.178-.434m-1.805 3.098c-.131.161-.273.312-.412.466.139-.154.28-.305.412-.466m2.576-6.283c-.012.123-.034.243-.049.365.015-.122.035-.242.048-.365m-.16 1.098c-.027.143-.061.283-.094.424.033-.141.067-.281.094-.424" fill="#C4C4C4" fill-rule="nonzero"/><path d="M50.368 33.181c.133-.164.255-.336.379-.507.16-.22.312-.446.457-.677.106-.17.214-.338.312-.513.077-.138.145-.28.217-.423.09-.179.18-.359.262-.544.063-.143.12-.289.178-.434.133-.336.25-.677.352-1.023.06-.21.115-.425.164-.64.033-.14.067-.28.094-.424.046-.24.08-.486.112-.732.015-.122.036-.243.048-.367.036-.37.057-.747.057-1.128 0-.377-.022-.747-.056-1.115-.012-.122-.031-.242-.046-.363a9.785 9.785 0 00-.201-1.142 11.03 11.03 0 00-.509-1.654c-.054-.139-.105-.279-.164-.414a13.3 13.3 0 00-.615-1.204c-.116-.198-.231-.397-.357-.587-.093-.14-.195-.276-.294-.412-.073-.1-.147-.2-.223-.298.02.314.035.63.035.95 0 5.378-2.937 10.062-7.288 12.562.377 1.231.582 2.535.582 3.886 0 .43-.024.852-.064 1.27h.002a11.73 11.73 0 002.677-.956c.05-.026.103-.048.154-.074.224-.116.44-.244.657-.373.086-.052.172-.102.256-.156a12.28 12.28 0 001.38-1.028c.097-.084.19-.172.285-.259.158-.146.315-.293.465-.447.097-.099.187-.205.28-.308.139-.154.28-.305.412-.466" fill="#509CF3" fill-rule="nonzero"/><path d="M50.368 33.181c.133-.164.255-.336.379-.507.16-.22.312-.446.457-.677.106-.17.214-.338.312-.513.077-.138.145-.28.217-.423.09-.179.18-.359.262-.544.063-.143.12-.289.178-.434.133-.336.25-.677.352-1.023.06-.21.115-.425.164-.64.033-.14.067-.28.094-.424.046-.24.08-.486.112-.732.015-.122.036-.243.048-.367.036-.37.057-.747.057-1.128 0-.377-.022-.747-.056-1.115-.012-.122-.031-.242-.046-.363a9.785 9.785 0 00-.201-1.142 11.03 11.03 0 00-.509-1.654c-.054-.139-.105-.279-.164-.414a13.3 13.3 0 00-.615-1.204c-.116-.198-.231-.397-.357-.587-.093-.14-.195-.276-.294-.412-.073-.1-.147-.2-.223-.298.02.314.035.63.035.95 0 5.378-2.937 10.062-7.288 12.562.377 1.231.582 2.535.582 3.886 0 .43-.024.852-.064 1.27h.002a11.73 11.73 0 002.677-.956c.05-.026.103-.048.154-.074.224-.116.44-.244.657-.373.086-.052.172-.102.256-.156a12.28 12.28 0 001.38-1.028c.097-.084.19-.172.285-.259.158-.146.315-.293.465-.447.097-.099.187-.205.28-.308.139-.154.28-.305.412-.466" fill="#282828" fill-rule="nonzero"/><path d="M42.344 18.94a2.155 2.155 0 11-4.31.001 2.155 2.155 0 014.31-.002" fill="#FFF" fill-rule="nonzero"/><path d="M30.567 24.21c-6.5 0-11.769 5.27-11.769 11.768 0 6.5 5.269 11.77 11.769 11.77 6.501 0 11.769-5.27 11.769-11.77 0-6.499-5.268-11.769-11.769-11.769" fill="#8D909B" fill-rule="nonzero"/><path d="M30.121 22.704c-.04-.153-.074-.31-.12-.46-.05.154-.083.315-.126.472l.246-.012" fill="#509CF3" fill-rule="nonzero"/><path d="M39.907 29.739c0 8.004-6.488 14.493-14.493 14.493-1.27 0-2.5-.164-3.672-.471a11.741 11.741 0 008.825 3.987c6.5 0 11.77-5.27 11.77-11.77 0-2.714-.923-5.211-2.466-7.203.021.319.035.639.035.964" fill="#72747D" fill-rule="nonzero"/><path d="M31.68 29.149a2.155 2.155 0 11-4.31 0 2.155 2.155 0 014.31 0" fill="#FFF" fill-rule="nonzero"/></g></svg>