<svg xmlns="http://www.w3.org/2000/svg" width="60" height="60"><g fill="none" fill-rule="evenodd"><path d="M0 0h60v60H0z"/><path fill="#43474B" d="M52 30c0 12.15-9.85 22-22 22S8 42.15 8 30 17.85 8 30 8s22 9.85 22 22"/><path fill="#999BA4" d="M48.039 21.012c.204-.221-.125-.295-.243-.402-.38-.341-.752-.7-1.172-.984-.496-.338-.426-.752-.32-1.254.149.08.25.13.345.189.818.51 1.642 1.013 2.452 1.537a.759.759 0 00.606.123 22.024 22.024 0 00-3.356-4.937c-.025-.003-.047-.014-.073-.014-2.685-.033-5.364-.011-8.036.348-2.263.304-4.538.52-6.81.77-2.175.24-4.355.454-6.53.719-1.13.137-1.963.742-2.432 1.805-.375.848-4.671 10.185-5.12 11.448-.372.78-.647 1.269-1.4 1.622-2.066.968-4.092 2.022-6.131 3.047-.181.09-.395.138-.514.328.16.242.414.24.659.24 4.46.01 8.919.012 13.379 0 .817.093.919-.513.985-.721.48-1.506 3.155-10.16 3.682-11.975.126-.438.352-.638.782-.758 4.262-1.187 8.522-2.376 12.769-3.613.624-.182 1.03-.08 1.444.366 1.174 1.263 2.813 1.732 4.292 2.473.387.194.565-.165.742-.357"/><path fill="#575961" d="M39.994 27.877a8.399 8.399 0 012.035 2.205c.904 1.783 1.122 3.622.462 5.535-.127.194-.322.258-.537.257-1.222-.003-2.446.083-3.666-.046-.335-.132-.493-.438-.665-.72-1.373-2.241-2.72-4.5-4.093-6.742-.168-.275-.418-.546-.237-.92 2.051-1.045 4.083-.912 6.1.105.203.102.4.217.601.326"/><path fill="#282828" d="M33.293 27.447c1.122 1.874 2.246 3.746 3.364 5.622.5.839 1.06 1.643 1.476 2.53-.315.4-.73.28-1.135.225-.572-.445-1.176-.824-1.925-.888-.37-.322-.637-.708-.736-1.198.3-.86.22-1.64-.295-2.432-.458-.705-1.087-.992-1.855-1.114-.438-.451-.83-.931-.94-1.58.178-.528.635-.635 1.102-.726.337-.1.583-.391.944-.44"/><path fill="#999BA4" d="M34.086 36.07c-2.452 0-4.914-.472-7.366-.474-.104-2.176.677-3.993 2.225-5.501.773-.55 1.564-1.071 2.405-1.514l.857 1.494c-.072.293-.352.396-.539.583-.478.478-.601 1.026-.344 1.65.152.367.361.704.586 1.028.466.67 1.157.863 1.917.556.203-.082.383-.273.636-.155.209.365.418.73.626 1.097-.191.449-.666.98-1.003 1.237"/><path fill="#383C43" d="M34.463 33.736c-1.178.907-2.133.733-2.909-.529-.109-.178-.223-.354-.326-.535-.633-1.118-.259-2.109.98-2.598 1.92.03 3.11 1.961 2.255 3.662"/><path fill="#663D47" d="M34.075 35.6c.191-.45.57-.65 1.014-.766.773-.167 1.346.13 1.77.768-.929 0-1.856 0-2.784-.002"/><path fill="#575961" d="M40.485 37.082c-.908 0-1.759-.262-2.4-.736l-.234-.174c-.6-.444-1.644-.444-2.242 0l-.213.158c-1.324.98-3.478.98-4.802 0l-.269-.199c-.618-.457-1.622-.457-2.242 0-.354.262-.927.262-1.28 0-.355-.262-.355-.686 0-.948 1.323-.98 3.477-.98 4.801 0l.27.2c.617.456 1.623.456 2.241 0l.213-.159c1.283-.95 3.52-.95 4.802 0l.234.173c.6.444 1.644.444 2.242 0 .352-.262.927-.262 1.281 0 .354.263.354.687 0 .95-.643.474-1.494.735-2.402.735m-5.059 6.849c-.908 0-1.759-.262-2.4-.736l-.234-.174c-.6-.444-1.644-.444-2.242 0l-.213.158c-1.324.98-3.478.98-4.802 0l-.269-.199c-.618-.457-1.622-.457-2.242 0-.354.262-.927.262-1.28 0-.355-.262-.355-.686 0-.948 1.323-.98 3.477-.98 4.801 0l.27.2c.617.456 1.623.456 2.241 0l.213-.159c1.283-.95 3.52-.95 4.802 0l.234.173c.6.444 1.644.444 2.242 0 .352-.262.927-.262 1.281 0 .354.263.354.687 0 .95-.643.474-1.494.735-2.402.735m-11.602-8.689c-.628.444-1.722.444-2.352 0l-.246-.173c-1.346-.95-3.692-.95-5.038 0l-.223.157c-.648.457-1.704.457-2.352 0l-.282-.199c-1.31-.924-3.382-.962-4.78-.144.097.428.206.852.328 1.271.27.018.55-.032.758-.179.649-.457 1.703-.457 2.35 0l.284.2c1.389.98 3.649.98 5.038 0l.224-.158c.627-.444 1.722-.444 2.35 0l.247.173c.672.474 1.566.737 2.518.737.952 0 1.846-.26 2.52-.737.372-.262.372-.686 0-.948-.371-.262-.974-.262-1.344 0"/></g></svg>