<svg width="60" height="60" xmlns="http://www.w3.org/2000/svg"><g fill="none" fill-rule="evenodd"><path d="M0 0h60v60H0z"/><g fill-rule="nonzero"><path d="M37.363 33.96l2.078 5.414a8.286 8.286 0 01-4.86 10.74l-7.17 2.654a9.114 9.114 0 01-11.208-4.26c-.758-1.423-1.276-2.496-1.554-3.221-.14-.372-.266-.75-.377-1.132a9.998 9.998 0 0012.493-2.374l5.151-6.193a9.953 9.953 0 002.28-5.572 8.248 8.248 0 013.167 3.944z" fill="#777B87"/><path d="M34.196 30.016a8.248 8.248 0 013.167 3.944l1.803 4.699c-2.318 6.623-8.623 11.374-16.037 11.374-2.452 0-4.782-.52-6.887-1.454l-.372-.703c-.579-1.113-.986-1.976-1.221-2.589-.14-.372-.266-.75-.377-1.132l.187.102c.605.315 1.23.563 1.867.745l.412.107.222.053.089.017a9.82 9.82 0 001.213.175l.55.03h.47l.433-.018.175-.013.24-.022.27-.033.38-.058.197-.036.23-.047.325-.077.349-.094.252-.078.46-.16c.234-.087.466-.184.693-.29l.097-.045c.215-.103.428-.213.637-.332l.26-.153.334-.213a9.913 9.913 0 002.151-1.934l5.162-6.207.181-.224.103-.134.222-.305.217-.325c.383-.594.7-1.226.946-1.885l.055-.154c.098-.272.183-.549.256-.829l.115-.493c.07-.338.123-.68.157-1.026l.017-.183z" fill="#8D909B"/></g><g fill-rule="nonzero"><path d="M24.662 18.67l4.57 3.57a8.287 8.287 0 011.366 11.708l-4.78 5.97a9.114 9.114 0 01-11.8 2.119c-1.384-.829-2.38-1.482-2.992-1.96-.517-.404-1.202-1.029-2.054-1.875a9.114 9.114 0 01-.696-12.168l4.818-6.015a8.286 8.286 0 0111.568-1.35z" fill="#777B87"/><path d="M22.078 17.75c.804 0 1.597.117 2.354.341a13.222 13.222 0 014.082 9.57c0 7.322-5.935 13.257-13.257 13.257-1.727 0-3.376-.33-4.889-.93a9.093 9.093 0 01-2.467-6.346l.094-7.706a8.286 8.286 0 018.285-8.186h5.798z" fill="#8D909B"/></g><g transform="translate(3.407 25.754)"><circle stroke="#8B8B8B" stroke-width=".5" cx="3.564" cy="3.564" r="3.564"/><path d="M3.564.25c.704 0 1.356.22 1.892.593A3.314 3.314 0 01.843 5.457 3.314 3.314 0 013.564.25z" fill="#EEE" fill-rule="nonzero"/></g><g fill-rule="nonzero"><path d="M24.904 17.294l7.081 5.567-.312-2.023c-.187-.77.186-1.66 1.115-2.677.896-.977 3.645-4.197 8.25-9.66a.829.829 0 00-.119-1.184L37.506 4.61a.829.829 0 00-1.196.178L29.123 15.19c-.804 1.097-1.446 1.717-1.924 1.859-.477.141-1.243.223-2.295.244z" fill="#CDCDCD"/><path d="M40.18 6.588l.298.205a.829.829 0 01.2 1.172l-5.752 7.831a187.22 187.22 0 01-1.295 1.725l-.508.656c-.856 1.079-1.166 1.994-.926 2.749l.453 1.996-4.584-3.113c1.056-.29 1.894-.81 2.514-1.557l9.6-11.664z" fill="#969696" opacity=".597"/><path d="M37.92 5.041l2.558 1.752c.09.062.167.141.226.231L32.35 17.132l-2.128-1.713L37.92 5.041z" fill="#8D909B"/><path fill="#DEDEDE" d="M37.9 5.027l.54.37-7.915 10.263-.302-.242zm2.412 1.653l.166.113c.131.09.232.215.294.36l-8.421 9.979-.303-.242 8.264-10.21z"/></g><g fill-rule="nonzero"><path d="M37.319 30.796l3.348 8.362.741-1.908c.223-.76.992-1.345 2.305-1.761 1.264-.399 5.255-1.813 11.974-4.242a.829.829 0 00.49-1.083l-1.603-4.052a.829.829 0 00-1.125-.444l-11.425 5.416c-1.245.549-2.111.764-2.596.648-.484-.116-1.188-.428-2.109-.936z" fill="#CDCDCD"/><path d="M55.901 29.163l.155.326a.829.829 0 01-.412 1.115l-8.898 3.906c-.82.354-1.48.636-1.984.846l-.767.314c-1.281.507-2.007 1.144-2.177 1.918l-.605 1.955-2.414-4.988c1.06.276 2.045.246 2.956-.091L55.9 29.163z" fill="#ACACAC" opacity=".597"/><path d="M54.717 26.693l1.34 2.796a.84.84 0 01.079.313L43.849 34.38l-.987-2.547 11.855-5.14z" fill="#8D909B"/><path fill="#DEDEDE" d="M54.708 26.671l.283.59-11.988 4.93-.14-.36zm1.262 2.635l.086.183a.829.829 0 01.075.458l-12.282 4.432-.142-.36 12.262-4.713z"/></g></g></svg>