<svg width="60" height="60" xmlns="http://www.w3.org/2000/svg"><g fill="none" fill-rule="evenodd"><path d="M0 0h60v60H0z"/><g fill-rule="nonzero"><path d="M37.363 33.96l2.078 5.414a8.286 8.286 0 01-4.86 10.74l-7.17 2.654a9.114 9.114 0 01-11.208-4.26c-.758-1.424-1.276-2.498-1.554-3.222-.14-.372-.266-.75-.377-1.131a9.998 9.998 0 0012.493-2.374l5.151-6.193a9.953 9.953 0 002.28-5.572 8.248 8.248 0 013.167 3.944z" fill="#981D1C"/><path d="M17.613 45.28l.177.023.47.05.29.02.395.013.437-.005.409-.02.435-.042.412-.056.262-.045.373-.076.1-.023a9.76 9.76 0 00.706-.194l.357-.12.337-.126.36-.152.253-.116a10.424 10.424 0 00.938-.51l.304-.196.149-.1.15-.106.238-.178a9.982 9.982 0 001.364-1.266l.236-.274 5.151-6.193.193-.238.112-.146.184-.252.18-.263.12-.189.164-.269.202-.363.125-.244.14-.294.083-.189.148-.363.135-.375.093-.288.106-.373.092-.38.068-.335.052-.307.055-.414.028-.29a8.248 8.248 0 013.167 3.944l1.803 4.698C36.85 45.28 30.544 50.032 23.13 50.032c-2.452 0-4.783-.52-6.889-1.455l-.37-.701c-.579-1.114-.986-1.977-1.221-2.59-.14-.372-.266-.75-.377-1.131l.177.095.303.152.34.155.304.127.253.096.317.11.21.067.367.103.352.086.29.06.428.073z" fill="#CE2527"/></g><g fill-rule="nonzero"><path d="M24.661 18.67l4.57 3.57a8.286 8.286 0 011.366 11.708l-4.78 5.97a9.114 9.114 0 01-11.8 2.119c-1.383-.83-2.38-1.482-2.99-1.96-.519-.405-1.204-1.029-2.056-1.875a9.114 9.114 0 01-.696-12.167l4.818-6.016a8.286 8.286 0 0111.568-1.35z" fill="#3E74B5"/><path d="M22.078 17.75c.804 0 1.597.117 2.354.341a13.22 13.22 0 014.082 9.57c0 7.322-5.935 13.257-13.257 13.257-1.727 0-3.377-.33-4.89-.931A9.097 9.097 0 017.9 33.642l.093-7.706a8.286 8.286 0 018.285-8.186h5.799z" fill="#509CF3"/></g><g transform="translate(3.407 25.754)"><circle stroke="#8B8B8B" stroke-width=".5" cx="3.564" cy="3.564" r="3.564"/><path d="M3.564.25c.704 0 1.356.22 1.892.593A3.314 3.314 0 01.843 5.457 3.314 3.314 0 013.564.25z" fill="#EEE" fill-rule="nonzero"/></g><g fill-rule="nonzero"><path d="M24.904 17.294l7.081 5.567-.312-2.023c-.187-.77.186-1.66 1.115-2.677.896-.977 3.645-4.197 8.25-9.66a.829.829 0 00-.119-1.184L37.506 4.61a.829.829 0 00-1.196.178L29.123 15.19c-.804 1.097-1.446 1.717-1.924 1.859-.477.141-1.243.223-2.295.244z" fill="#F7DA9A"/><path d="M40.18 6.588l.298.205a.829.829 0 01.2 1.172l-5.752 7.831a187.22 187.22 0 01-1.295 1.725l-.508.656c-.856 1.079-1.166 1.994-.926 2.749l.453 1.996-4.584-3.113c1.056-.29 1.894-.81 2.514-1.557l9.6-11.664z" fill="#C1A467" opacity=".597"/><path d="M37.92 5.041l2.558 1.752c.09.062.167.141.226.231L32.35 17.132l-2.128-1.713L37.92 5.041z" fill="#B64443"/><path fill="#509CF3" d="M37.9 5.027l.54.37-7.915 10.263-.302-.242zm2.412 1.653l.166.113c.131.09.232.215.294.36l-8.421 9.979-.303-.242 8.264-10.21z"/></g><path d="M37.319 30.796l3.348 8.362.741-1.908c.223-.76.992-1.345 2.305-1.761 1.264-.399 5.255-1.813 11.974-4.242a.829.829 0 00.49-1.083l-1.603-4.052a.829.829 0 00-1.125-.444l-11.425 5.416c-1.245.549-2.111.764-2.596.648-.484-.116-1.188-.428-2.109-.936z" fill="#F7DA9A" fill-rule="nonzero"/><path d="M55.901 29.163l.155.326a.829.829 0 01-.412 1.115l-8.67 3.808a119.478 119.478 0 01-2.98 1.258c-1.28.507-2.006 1.144-2.176 1.918l-.605 1.955-2.414-4.988c1.06.276 2.045.246 2.956-.091L55.9 29.163z" fill="#D6BA7B" fill-rule="nonzero" opacity=".597"/><path d="M54.717 26.692l1.34 2.797a.829.829 0 01.079.312l-12.287 4.578-.987-2.547 11.855-5.14z" fill="#B64443" fill-rule="nonzero"/><path fill="#509CF3" d="M54.707 26.67l.283.59-11.987 4.931-.14-.36z"/><path d="M55.97 29.307l.086.182a.829.829 0 01.075.458l-12.282 4.432-.142-.36 12.263-4.712z" fill="#509CF3" fill-rule="nonzero"/></g></svg>