<svg width="60" height="60" viewBox="0 0 60 60" fill="none" xmlns="http://www.w3.org/2000/svg">
<path d="M29.5512 8.79688C24.4662 8.79688 20.344 10.2238 20.344 11.984H38.7585C38.7585 10.2238 34.6363 8.79688 29.5512 8.79688Z" fill="#64464B"/>
<path d="M40.9337 18.7119H42.2992C42.7081 18.7119 43.0263 19.0557 43.0072 19.4642C42.9251 21.2145 42.5633 23.2738 41.9033 25.3074C41.8088 25.5985 41.5323 25.7944 41.2263 25.7944H39.6357C40.3677 23.3303 40.7956 20.8723 40.9337 18.7119Z" fill="#5073A5"/>
<path d="M18.1688 18.7119H16.8033C16.3944 18.7119 16.0762 19.0557 16.0953 19.4642C16.1774 21.2145 16.5392 23.2738 17.1992 25.3074C17.2937 25.5985 17.5701 25.7944 17.8762 25.7944H19.4667C18.7348 23.3303 18.3069 20.8723 18.1688 18.7119Z" fill="#5073A5"/>
<path d="M42.8816 37.0483L37.2029 35.3781C36.4217 35.1483 35.8405 34.4922 35.7066 33.689L35.3144 31.3358C38.093 28.789 39.4668 24.5212 39.4668 20.8435C39.4668 15.1717 35.0275 13.0527 29.5513 13.0527C24.0751 13.0527 19.6358 15.1717 19.6358 20.8435C19.6358 24.5212 21.0096 28.7891 23.7882 31.3358L23.396 33.689C23.2621 34.4922 22.6809 35.1483 21.8997 35.3781L16.2208 37.0483C13.2066 37.9348 11.1367 40.7011 11.1367 43.843V49.8756C11.1367 51.0491 12.088 52.0003 13.2615 52.0003H45.8409C47.0144 52.0003 47.9657 51.0491 47.9657 49.8756V43.843C47.9657 40.7011 45.8958 37.9348 42.8816 37.0483Z" fill="#FDD5AD"/>
<path d="M19.8563 13.0463C20.8253 10.7907 24.8719 9.4165 29.5512 9.4165C34.2305 9.4165 38.277 10.7907 39.2461 13.0463H40.7438C39.8981 9.90236 35.2856 8 29.5512 8C23.8168 8 19.2043 9.90236 18.3586 13.0463H19.8563Z" fill="#5073A5"/>
<path d="M40.0938 36.2284L37.2028 35.3782C36.4216 35.1484 35.8404 34.4923 35.7065 33.6891L35.2171 30.7529L29.5511 32.8777L23.8851 30.7529L23.5249 32.9142C25.5373 36.4622 32.8834 40.6489 40.0938 36.2284Z" fill="#FFC78F"/>
<path d="M42.8816 37.0477C41.8833 36.7541 40.8832 37.5025 40.8832 38.543V44.209H18.2192V38.543C18.2192 37.5024 17.2191 36.7541 16.2208 37.0477C13.2066 37.9343 11.1367 40.7005 11.1367 43.8424V49.875C11.1367 51.0485 12.088 51.9998 13.2615 51.9998H29.5512H45.8409C47.0144 51.9998 47.9657 51.0485 47.9657 49.875V43.8424C47.9657 40.7005 45.8958 37.9343 42.8816 37.0477Z" fill="#D2D7DC"/>
<path d="M38.4044 11.6298C34.7684 11.6298 31.8138 9.61773 31.688 8.09977C31.0012 8.03683 30.2882 8 29.5513 8C28.8143 8 28.1013 8.03683 27.4145 8.09977C27.2887 9.61773 24.3341 11.6298 20.6981 11.6298C20.5023 11.6298 20.419 11.6298 20.344 11.6298C20.222 11.8597 20.344 12.0942 20.344 12.338C20.344 14.2938 24.4663 15.8793 29.5513 15.8793C34.6362 15.8793 38.7585 14.2938 38.7585 12.338C38.7585 12.0942 38.8805 11.8597 38.7585 11.6298C38.6141 11.6298 38.5919 11.6298 38.4044 11.6298Z" fill="#5F87B9"/>
<path d="M39.4667 20.8435C39.4667 26.5152 36.2009 33.592 29.5512 33.592C22.9016 33.592 19.6357 26.5152 19.6357 20.8435C19.6357 15.1717 24.075 13.0527 29.5512 13.0527C35.0274 13.0527 39.4667 15.1717 39.4667 20.8435Z" fill="#FDD5AD"/>
<path d="M29.5512 33.5917C27.2848 33.5917 25.4119 32.7692 23.9269 31.4609H21.9661C23.8637 33.6145 26.4311 35.0082 29.5512 35.0082C32.6712 35.0082 35.2386 33.6145 37.1362 31.4609H35.1754C33.6904 32.7693 31.8175 33.5917 29.5512 33.5917Z" fill="#727887"/>
<path d="M40.5593 12.5483C40.3563 11.9932 39.8239 11.6299 39.2328 11.6299H29.5512H19.8696C19.2785 11.6299 18.7462 11.9932 18.5432 12.5483C18.1237 13.6953 17.511 15.8593 17.511 18.7124C17.511 22.5043 18.9548 28.1866 22.125 31.7012C22.4047 32.0114 22.7904 32.1691 23.1773 32.1691C23.4931 32.1691 23.8097 32.0642 24.0707 31.8516C24.6844 31.3517 24.724 30.3586 24.1968 29.7681C22.0685 27.3843 20.7941 23.5618 20.4434 20.4095C20.3449 19.5241 21.0749 18.7686 21.9632 18.8369L27.9216 19.2953C29.0064 19.3788 30.096 19.3788 31.1808 19.2953L37.1392 18.8369C38.0275 18.7686 38.7576 19.5241 38.6591 20.4095C38.3084 23.5618 37.034 27.3843 34.9057 29.7681C34.3785 30.3585 34.4181 31.3517 35.0317 31.8516C35.2927 32.0642 35.6094 32.1691 35.9251 32.1691C36.3121 32.1691 36.6977 32.0114 36.9775 31.7012C40.1476 28.1866 41.5915 22.5043 41.5915 18.7124C41.5915 15.8593 40.9787 13.6953 40.5593 12.5483Z" fill="#5F87B9"/>
<path d="M39.2633 35.107L38.38 38.6402C37.7699 41.0805 35.5774 42.7923 33.062 42.7923H26.0405C23.5251 42.7923 21.3325 41.0804 20.7225 38.6402L19.8392 35.107C19.7215 34.6365 19.283 34.3185 18.7992 34.3532L10.4625 34.9486C10.109 34.9739 9.89449 35.3502 10.053 35.6672C10.2776 36.1162 10.6879 36.4431 11.1741 36.5676C18.8017 38.5203 18.2193 51.9996 18.2193 51.9996H29.5512H40.8832C40.8832 51.9996 40.3008 38.5203 47.9284 36.5676C48.4146 36.4431 48.8249 36.1162 49.0494 35.6672C49.2079 35.3502 48.9935 34.9739 48.64 34.9486L40.3033 34.3532C39.8195 34.3186 39.3809 34.6365 39.2633 35.107Z" fill="#E6EBF0"/>
<path d="M41.0135 48.459H18.0889C18.2817 50.5131 18.2192 52.0002 18.2192 52.0002H29.5512H40.8832C40.8832 52.0002 40.8207 50.5131 41.0135 48.459Z" fill="#5F87B9"/>
</svg>
