<svg width="60" height="60" xmlns="http://www.w3.org/2000/svg"><g fill="none" fill-rule="evenodd"><path d="M0 0h60v60H0z"/><path d="M13.336 15.636c-1.429 6.083-.143 11.011 4.329 14.888 1.258 1.09 2.284 1.836 4.14 2.658l.358.155.589.244.63.25.166.065.167.064.701.266 2.43.897c3.834 1.455 6.036 2.739 7.96 4.966 2.706 3.133 3.562 5.747 4.15 9.972l.005.036-.485.21A21.933 21.933 0 0130 52C17.85 52 8 42.15 8 30c0-5.468 1.995-10.47 5.296-14.317l.04-.047zM30 8c1.018 0 2.02.07 3.002.203 5.968 2.155 9.551 5.499 12.829 9.828 3.14 4.15 5.295 8.981 5.955 15.048-.983 7.02-5.278 12.977-11.255 16.242-.588-4.365-1.566-6.776-4.426-10.087-2.084-2.412-4.748-3.763-8.755-5.278l-.45-.17-1.664-.61-.698-.26-.65-.25-.605-.24-.563-.233c-1.683-.71-2.817-1.346-3.857-2.18l-.239-.197-.33-.288c-4.34-3.9-5.68-8.833-4.03-14.902A21.93 21.93 0 0130 8zm21.974 20.913l.001.026c-1.89-9.117-6.995-15.765-15.289-19.905 8.551 2.725 14.833 10.537 15.288 19.879z" fill="#777B87" fill-rule="nonzero"/></g></svg>