<svg width="60" height="60" xmlns="http://www.w3.org/2000/svg"><g fill="none" fill-rule="evenodd"><path d="M0 0h60v60H0z"/><path d="M13.336 15.636c-1.429 6.083-.143 11.011 4.329 14.888 1.258 1.09 2.284 1.836 4.14 2.658l.358.155.589.244.63.25.166.065.167.064.701.266 2.43.897c3.834 1.455 6.036 2.739 7.96 4.966 2.706 3.133 3.562 5.747 4.15 9.972l.005.036-.485.21A21.933 21.933 0 0130 52C17.85 52 8 42.15 8 30c0-5.468 1.995-10.47 5.296-14.317l.04-.047zM30 8c1.018 0 2.02.07 3.002.203 5.968 2.155 9.551 5.499 12.829 9.828 3.14 4.15 5.295 8.981 5.955 15.048-.983 7.02-5.278 12.977-11.255 16.242-.588-4.365-1.566-6.776-4.426-10.087-2.084-2.412-4.748-3.763-8.755-5.278l-.45-.17-1.664-.61-.698-.26-.65-.25-.605-.24-.563-.233c-1.683-.71-2.817-1.346-3.857-2.18l-.239-.197-.33-.288c-4.34-3.9-5.68-8.833-4.03-14.902A21.93 21.93 0 0130 8zm21.974 20.913l.001.026c-1.89-9.117-6.995-15.765-15.289-19.905 8.551 2.725 14.833 10.537 15.288 19.879z" fill="#444650" fill-rule="nonzero"/><path d="M12.926 16.125l.41-.489-.008.03a23.48 23.48 0 00-.183.858l-.05.27a19.389 19.389 0 00-.263 2.003c-.025.322-.041.64-.048.953-.012.539.003 1.067.045 1.585l.033.35.041.347c.012.088.024.176.038.264.039.262.086.521.14.778l.036.16c.043.193.09.383.143.573l.116.397.075.234.087.254.188.494.21.491.182.38.07.138.19.36.316.538.128.202c.738 1.148 1.684 2.224 2.843 3.229 1.258 1.09 2.284 1.836 4.14 2.658l.358.155.589.244.796.315.868.33 2.43.897c3.834 1.455 6.036 2.739 7.96 4.966a22.33 22.33 0 011.007 1.257l.221.308.211.307.186.283a14.276 14.276 0 011.444 2.952c-2.009.585-4.09.881-6.183.879-12.15 0-22-9.849-22-22 0-1.028.07-2.039.207-3.029a21.99 21.99 0 013.027-4.92zM38.9 43.295l-.047-.096-.25-.479-.182-.322-.104-.176a17.98 17.98 0 00-1.153-1.69l-.487-.617-.11-.133c-.147-.18-.302-.363-.462-.549-2.004-2.32-4.544-3.658-8.299-5.104l-.906-.344-1.664-.61-.698-.26-.65-.25-.605-.24-.563-.233c-1.683-.71-2.817-1.346-3.857-2.18l-.239-.197-.33-.288a15.595 15.595 0 01-2.52-2.857l-.186-.285-.281-.458-.168-.297-.152-.286-.182-.367-.094-.202-.176-.408-.12-.305-.066-.174-.132-.382-.111-.36-.089-.314-.052-.203-.068-.292-.095-.464-.058-.346-.048-.335-.04-.334-.03-.336-.022-.325-.015-.328-.007-.349v-.148a14.688 14.688 0 01.052-1.248l.033-.363.035-.31a20.498 20.498 0 01.563-2.825A21.926 21.926 0 0130 8c1.018 0 2.02.07 3.002.203 5.968 2.155 9.551 5.499 12.829 9.828 2.306 3.048 4.081 6.463 5.123 10.466a31.858 31.858 0 01.738 3.796l.091.758a22.07 22.07 0 01-12.304 11.607l-.14-.37-.177-.424-.14-.312-.122-.256zM36.69 9.037c8.423 2.684 14.646 10.31 15.26 19.472l.025.431-.153-.703-.186-.77-.027-.108a32.44 32.44 0 00-.812-2.674l-.305-.824-.277-.691-.076-.18a27.69 27.69 0 00-1.84-3.586l-.312-.498-.327-.497-.387-.557-.05-.07c-.25-.349-.51-.692-.778-1.028l-.23-.283a26.305 26.305 0 00-1.24-1.406l-.359-.371-.556-.548-.185-.175a27 27 0 00-1.728-1.49 28.192 28.192 0 00-.663-.51l-.638-.463-.57-.392-.697-.454-.785-.48-.322-.188-.614-.346-.37-.2-.375-.196a40.63 40.63 0 00-.424-.215z" fill="#575961" fill-rule="nonzero"/></g></svg>