<svg width="60" height="60" viewBox="0 0 60 60" fill="none" xmlns="http://www.w3.org/2000/svg">
<g clip-path="url(#clip0_1054_144168)">
<path fill-rule="evenodd" clip-rule="evenodd" d="M15.4303 42.173C15.5323 38.593 16.6913 36.488 17.4113 35.514C17.0333 35.215 16.6643 34.918 16.3083 34.628C16.1263 34.479 15.9473 34.332 15.7733 34.187C14.4143 33.062 13.0803 31.846 11.8543 30.666C10.9603 32.209 9.0313 36.21 9.6733 41.029C11.1343 43.901 13.1693 46.516 15.7883 48.65C16.0633 48.874 16.3433 49.088 16.6253 49.297C15.8963 47.359 15.3513 44.955 15.4303 42.173" fill="#8D909B"/>
<path fill-rule="evenodd" clip-rule="evenodd" d="M48.9438 20.1675C49.2208 22.1425 49.4678 26.8095 46.7258 31.5265L46.7238 31.5305C45.3378 34.0775 42.9388 36.6965 41.8728 37.8035L40.8818 38.7325C36.6388 42.2185 31.1948 43.8895 29.9308 44.2435C28.0348 47.1585 27.8408 49.4705 28.1768 51.1085C30.8388 50.8435 42.2138 49.2015 48.0068 40.1765C50.8708 35.7125 52.4568 31.3655 52.7198 27.2585C52.7268 27.1485 52.7298 27.0445 52.7348 26.9375C52.5338 25.2505 52.1448 23.5915 51.6028 21.9795C50.5868 20.7685 49.5938 20.3215 48.9438 20.1675" fill="#8D909B"/>
<path fill-rule="evenodd" clip-rule="evenodd" d="M22.6433 22.4389C23.7613 23.3909 25.0603 24.4719 26.5063 25.6479C32.2743 30.3489 38.9753 35.4809 40.7963 36.8689C41.7083 35.9239 43.9183 33.5379 45.2783 31.2199C44.1143 29.6229 39.2323 23.2049 31.6893 17.0569C30.8903 16.4059 30.0743 15.7689 29.2663 15.1629C23.7193 11.0159 20.8243 9.3449 19.3923 8.6709C17.1223 9.8919 15.0213 11.5239 13.1963 13.5549C15.0283 15.5029 18.1213 18.5859 22.6433 22.4389" fill="#8D909B"/>
<path fill-rule="evenodd" clip-rule="evenodd" d="M28.5365 43.8061C26.9675 42.6881 22.4525 39.4511 18.5265 36.3911C17.9595 37.1571 16.9175 38.9921 16.8255 42.2171C16.7215 45.8091 17.7765 48.7411 18.8195 50.7401C21.5925 52.3431 24.5895 53.2891 27.6225 53.6071C27.3585 53.1391 27.0985 52.5691 26.9125 51.8851C26.4335 50.1381 26.3555 47.3511 28.5365 43.8061" fill="#8D909B"/>
<path fill-rule="evenodd" clip-rule="evenodd" d="M48.4362 18.6388C48.8802 18.6548 49.6182 18.7718 50.4742 19.2158C49.0382 16.2178 46.9852 13.4868 44.3122 11.2578C42.9672 10.6668 41.7232 10.5078 40.8052 10.5118C45.0682 14.1848 47.6852 17.6048 48.4362 18.6388" fill="#8D909B"/>
<path fill-rule="evenodd" clip-rule="evenodd" d="M48.02 44.5908C50.289 41.5818 51.728 38.1808 52.419 34.6738C51.664 36.6168 50.618 38.7208 49.167 40.9828C45.526 46.6568 39.869 49.5168 35.767 50.9138C32.667 51.9708 30.01 52.3728 28.645 52.5218C28.914 53.0918 29.209 53.4908 29.409 53.7288C36.399 53.8948 43.375 50.7518 48.02 44.5908" fill="#8D909B"/>
<path fill-rule="evenodd" clip-rule="evenodd" d="M41.2327 9.07338C39.4137 8.00338 37.4957 7.22338 35.5337 6.71338C36.6697 7.35838 37.9107 8.17138 39.2277 9.20638C39.6227 9.13138 40.3327 9.03838 41.2327 9.07338" fill="#8D909B"/>
<mask id="mask0_1054_144168" style="mask-type:luminance" maskUnits="userSpaceOnUse" x="7" y="25" width="4" height="13">
<path fill-rule="evenodd" clip-rule="evenodd" d="M7 25.9888H10.8119V37.4698H7V25.9888Z" fill="white"/>
</mask>
<g mask="url(#mask0_1054_144168)">
<path fill-rule="evenodd" clip-rule="evenodd" d="M7.30001 25.9888C6.69401 29.8388 7.01201 33.7848 8.20001 37.4698C8.55401 33.6888 10.1 30.7978 10.812 29.6478C9.38301 28.2288 8.16301 26.9308 7.30001 25.9888" fill="#8D909B"/>
</g>
<path fill-rule="evenodd" clip-rule="evenodd" d="M16.6428 33.0513C21.1318 36.7693 28.1838 41.7993 29.6298 42.8233C30.8768 42.4613 35.8188 40.8993 39.7088 37.8393C37.5718 36.2083 31.1808 31.3043 25.6458 26.7923L25.6448 26.7913C24.1918 25.6073 22.8848 24.5203 21.7578 23.5623C17.2198 19.6953 14.1288 16.6283 12.2698 14.6533C12.1408 14.8143 12.0088 14.9723 11.8838 15.1393C9.78683 17.9193 8.39983 21.0363 7.65283 24.2613C9.10483 25.8803 12.7708 29.8463 16.6428 33.0513" fill="#8D909B"/>
<path fill-rule="evenodd" clip-rule="evenodd" d="M32.55 15.915C39.588 21.651 44.36 27.631 46.027 29.851C48.39 25.073 47.61 20.496 47.442 19.682C46.922 18.953 43.874 14.8289 38.825 10.716C35.01 7.60695 31.785 6.43295 30.174 6.00095C27.036 5.97195 23.909 6.60695 21.001 7.88395C22.815 8.86295 25.65 10.6709 30.082 13.9859C30.907 14.6019 31.737 15.253 32.55 15.915" fill="#8D909B"/>
<path fill-rule="evenodd" clip-rule="evenodd" d="M43.9717 10.9238C44.1587 11.4888 44.3357 12.0608 44.4937 12.6438C48.8807 28.8918 39.7677 45.7608 24.1407 50.3228C22.6557 50.7548 21.1667 51.0608 19.6807 51.2478C24.6107 53.8088 30.4387 54.5468 36.1637 52.8758C48.3867 49.3078 55.5137 36.1128 52.0827 23.4058C50.6887 18.2428 47.7677 13.9568 43.9717 10.9238" fill="black" fill-opacity="0.2"/>
</g>
<defs>
<clipPath id="clip0_1054_144168">
<rect width="60" height="60" fill="white"/>
</clipPath>
</defs>
</svg>
