<svg width="60" height="60" viewBox="0 0 60 60" fill="none" xmlns="http://www.w3.org/2000/svg">
<g clip-path="url(#clip0_1054_144152)">
<path fill-rule="evenodd" clip-rule="evenodd" d="M43.5562 12.7248C34.011 5.24518 20.2073 6.91529 12.7253 16.4578C5.24233 25.9984 6.91531 39.7971 16.4596 47.2767C26.0048 54.7564 39.8076 53.0844 47.2905 43.5438C54.7735 34.0032 53.1005 20.2045 43.5562 12.7248" fill="#595959"/>
<path fill-rule="evenodd" clip-rule="evenodd" d="M18.012 35.1958C17.6504 34.9209 17.2974 34.6468 16.9569 34.381C16.7828 34.244 16.6116 34.1088 16.4452 33.9745C15.1452 32.9408 13.8692 31.8216 12.6965 30.7373C11.8299 32.1747 9.94363 35.9297 10.6304 40.4379C12.025 43.0287 13.9649 45.3821 16.4299 47.3143C16.713 47.5359 17.0019 47.7493 17.2907 47.9553C16.5781 46.1592 16.0406 43.918 16.1171 41.3199C16.2146 38.0266 17.3233 36.0907 18.012 35.1958" fill="#FDFDFD"/>
<path fill-rule="evenodd" clip-rule="evenodd" d="M48.1739 21.082C48.4389 22.8984 48.6751 27.1905 46.0523 31.5285L46.0504 31.5322C44.7247 33.8746 42.43 36.2832 41.4103 37.3013L40.4624 38.1556C36.4038 41.3616 31.1964 42.8984 29.9874 43.2239C28.1738 45.9048 27.9882 48.031 28.3096 49.5374C30.8559 49.2937 41.7365 47.7836 47.2777 39.4836C50.0172 35.3783 51.5342 31.3805 51.7858 27.6034C51.7982 27.4057 51.8068 27.2153 51.8126 27.0286C51.6203 25.6178 51.2922 24.2255 50.8302 22.8735C49.8192 21.6596 48.8196 21.2292 48.1739 21.082" fill="#FDFDFD"/>
<path fill-rule="evenodd" clip-rule="evenodd" d="M31.6694 18.2214C30.9051 17.6236 30.1255 17.0368 29.3517 16.4804C23.9693 12.6105 21.1944 11.0838 19.8457 10.4814C17.6839 11.6053 15.6828 13.1043 13.9448 14.9639C15.6924 16.7536 18.6634 19.6055 23.0166 23.171C24.0869 24.0465 25.3295 25.0407 26.7126 26.1222C32.2299 30.4456 38.6396 35.1653 40.3805 36.4427C41.2528 35.5727 43.3677 33.3784 44.6677 31.2466C43.5552 29.7779 38.8845 23.8755 31.6694 18.2214" fill="#FDFDFD"/>
<path fill-rule="evenodd" clip-rule="evenodd" d="M19.0791 36.0024C18.5368 36.7069 17.5401 38.3945 17.4521 41.3595C17.3516 44.7089 18.3895 47.4376 19.3996 49.2778C22.0501 50.7392 24.914 51.6037 27.8084 51.8906C27.5454 51.4519 27.2852 50.9047 27.1006 50.2508C26.6424 48.6451 26.5678 46.082 28.654 42.8218C27.1532 41.7936 22.8345 38.8166 19.0791 36.0024" fill="#FDFDFD"/>
<path fill-rule="evenodd" clip-rule="evenodd" d="M43.9164 12.9526C42.5619 12.3447 41.3069 12.1976 40.3887 12.2012C44.4673 15.5801 46.9696 18.7244 47.688 19.6754C48.1318 19.691 48.8779 19.7986 49.7436 20.2548C48.3891 17.5086 46.4387 15.0071 43.9164 12.9526" fill="#FDFDFD"/>
<path fill-rule="evenodd" clip-rule="evenodd" d="M35.5702 49.3584C32.605 50.3305 30.0625 50.7002 28.7578 50.8372C29.0323 51.3963 29.3394 51.7835 29.5297 51.9951C36.2159 52.1358 42.8848 49.2397 47.3279 43.5737C49.5767 40.7061 50.9991 37.457 51.6314 34.1094C50.9015 35.98 49.856 38.0244 48.3868 40.2252C44.9041 45.4433 39.4939 48.0736 35.5702 49.3584" fill="#FDFDFD"/>
<path fill-rule="evenodd" clip-rule="evenodd" d="M38.8804 11.0016C39.2736 10.9299 39.9862 10.8379 40.8958 10.8802C39.0746 9.84006 37.1472 9.08685 35.1758 8.6123C36.3064 9.21928 37.5556 10.0001 38.8804 11.0016" fill="#FDFDFD"/>
<path fill-rule="evenodd" clip-rule="evenodd" d="M8.29505 26.3887C7.69913 29.9873 8.01096 33.6825 9.18463 37.123C9.49741 33.5805 11.0106 30.872 11.7003 29.8006C10.3095 28.4745 9.12245 27.2578 8.29505 26.3887" fill="#FDFDFD"/>
<path fill-rule="evenodd" clip-rule="evenodd" d="M25.8875 27.1737C24.4986 26.0848 23.2484 25.0851 22.1704 24.2041C17.8 20.6248 14.8309 17.7876 13.0566 15.9722C12.9312 16.1221 12.8079 16.2738 12.6873 16.4283C10.6882 18.9776 9.34138 21.8314 8.62207 24.7872C9.97365 26.2393 13.5262 29.9456 17.2768 32.9308C21.5716 36.3501 28.3161 40.9761 29.6992 41.9178C30.893 41.5849 35.6192 40.1484 39.3411 37.3342C37.296 35.8342 31.1838 31.3242 25.8884 27.1746L25.8875 27.1737Z" fill="#FDFDFD"/>
<path fill-rule="evenodd" clip-rule="evenodd" d="M38.4953 12.3896C34.694 9.41169 31.4878 8.35591 30.0195 8C27.0657 8.00184 24.1253 8.5941 21.3896 9.75564C23.1219 10.6486 25.85 12.3169 30.1314 15.3969C30.9205 15.9643 31.7145 16.5621 32.4931 17.1709C39.2251 22.4461 43.7887 27.9457 45.3833 29.9874C47.6436 25.5941 46.8984 21.3839 46.7377 20.6353C46.2403 19.9649 43.3248 16.1722 38.4953 12.3896" fill="#FDFDFD"/>
<path fill-rule="evenodd" clip-rule="evenodd" d="M43.4177 12.5806C43.5966 13.1002 43.7659 13.6262 43.917 14.1624C48.1133 29.1051 39.3965 44.619 24.4487 48.8145C23.0283 49.2118 21.604 49.4932 20.1826 49.6652C24.8983 52.0205 30.473 52.6992 35.9491 51.1624C47.6408 47.8811 54.458 35.7461 51.1762 24.0598C49.8427 19.3116 47.0487 15.3699 43.4177 12.5806" fill="black" fill-opacity="0.2"/>
</g>
<defs>
<clipPath id="clip0_1054_144152">
<rect width="60" height="60" fill="white"/>
</clipPath>
</defs>
</svg>
